<?xml version="1.0" standalone="no"?>
<!DOCTYPE svg PUBLIC "-//W3C//DTD SVG 20010904//EN"
 "http://www.w3.org/TR/2001/REC-SVG-20010904/DTD/svg10.dtd">
<svg version="1.0" xmlns="http://www.w3.org/2000/svg"
 width="2160.000000pt" height="1200.000000pt" viewBox="0 0 2160.000000 1200.000000"
 preserveAspectRatio="xMidYMid meet">

<g transform="translate(0.000000,1200.000000) scale(0.100000,-0.100000)"
fill="#000000" stroke="none">
<path d="M8465 10980 c-486 -11 -500 -12 -560 -41 l-50 -24 0 -75 c0 -69 2
-75 25 -87 14 -7 59 -13 101 -13 52 0 80 -4 88 -13 17 -22 3 -27 -78 -27 -97
0 -116 -6 -130 -37 -8 -18 -12 -147 -11 -437 0 -389 3 -479 32 -926 7 -102 13
-210 14 -240 1 -52 11 -208 35 -570 5 -85 16 -236 24 -335 8 -99 21 -286 29
-415 9 -129 20 -293 26 -365 5 -71 12 -173 15 -225 3 -52 8 -120 10 -150 2
-30 7 -100 10 -155 3 -55 10 -147 15 -205 5 -58 17 -195 25 -305 22 -272 23
-280 46 -300 21 -20 22 -22 111 -200 33 -66 90 -174 126 -240 36 -66 70 -129
76 -140 6 -11 37 -58 70 -103 123 -175 224 -258 373 -308 72 -24 97 -27 328
-35 138 -4 286 -11 330 -14 177 -14 400 -89 575 -194 80 -48 287 -189 409
-279 l74 -55 46 17 c145 56 311 67 606 41 366 -32 488 -4 705 160 180 137 400
352 780 765 227 246 276 284 371 285 49 0 62 -4 96 -31 63 -51 125 -169 142
-272 16 -87 34 -67 50 56 11 90 46 447 56 587 3 44 10 109 15 145 5 36 14 128
20 205 6 77 15 174 20 215 5 41 12 113 15 160 8 122 25 320 36 425 5 50 15
178 23 285 8 107 20 247 25 310 24 258 36 399 86 1080 25 337 30 411 41 595 3
55 9 132 14 170 12 96 25 826 16 898 -10 78 -22 87 -111 87 -74 0 -105 6 -105
20 0 4 46 10 102 14 56 3 107 11 115 17 9 8 13 36 13 88 -1 111 7 108 -297
126 -279 17 -599 28 -1433 50 -667 18 -3033 27 -3585 15z m1691 -45 c14 -10
48 -14 130 -15 120 0 267 -10 260 -18 -3 -2 -96 -5 -206 -6 -171 -1 -204 -4
-213 -17 -7 -9 -19 -18 -27 -22 -9 -3 -2 -6 14 -6 17 -1 40 -11 53 -22 19 -18
45 -24 154 -36 73 -7 137 -17 143 -22 12 -9 188 -7 204 3 6 3 22 2 36 -3 31
-12 219 -17 263 -7 18 4 38 4 45 0 18 -11 138 -15 138 -5 0 5 22 11 48 15 27
3 57 12 67 20 16 12 17 16 6 30 -22 26 100 22 157 -5 61 -30 43 -37 -126 -53
l-137 -13 85 -3 c47 -1 155 -2 240 -2 317 2 290 0 290 22 0 11 4 20 9 20 13 0
21 -63 9 -75 -5 -6 -103 -11 -247 -11 -130 -1 -253 -6 -272 -11 -20 -6 -289
-8 -664 -5 l-631 5 -12 39 c-13 41 -7 92 10 82 5 -4 8 -14 5 -24 -7 -25 12
-28 188 -28 131 0 140 1 70 8 -44 4 -95 13 -113 20 -18 7 -35 10 -38 7 -7 -7
-64 13 -64 22 0 5 10 13 23 19 19 9 17 11 -23 11 -53 1 -75 13 -67 35 5 12 20
16 57 16 27 0 50 5 50 10 0 6 -20 10 -45 10 -42 0 -54 7 -38 23 13 14 149 7
169 -8z m1327 -5 c20 0 37 -4 37 -10 0 -5 -11 -10 -24 -10 -13 0 -32 -3 -41
-6 -24 -10 1 -24 43 -24 21 0 32 -5 32 -14 0 -33 -110 -38 -137 -6 -16 18 -31
20 -138 21 -66 1 -165 4 -220 8 l-100 6 180 8 c99 5 205 14 235 22 30 8 64 12
75 10 11 -3 37 -5 58 -5z m-755 -37 c-15 -2 -42 -2 -60 0 -18 2 -6 4 27 4 33
0 48 -2 33 -4z m-1845 -40 c-12 -2 -27 -11 -33 -19 -10 -11 -35 -14 -109 -12
-53 1 -74 3 -48 5 37 3 47 8 43 19 -4 12 10 14 82 13 48 -1 77 -4 65 -6z
m1432 -13 c3 -5 2 -10 -4 -10 -5 0 -13 5 -16 10 -3 6 -2 10 4 10 5 0 13 -4 16
-10z m2373 -27 c-10 -2 -26 -2 -35 0 -10 3 -2 5 17 5 19 0 27 -2 18 -5z m129
0 c-20 -2 -52 -2 -70 0 -17 2 0 4 38 4 39 0 53 -2 32 -4z m48 -23 c4 -6 11 -8
16 -5 13 9 50 -5 44 -16 -8 -12 -31 -11 -80 2 -34 10 -37 13 -20 20 28 11 33
11 40 -1z m-3050 -10 c4 -6 15 -8 25 -5 13 4 22 -1 30 -15 6 -11 17 -20 25
-20 19 0 30 -19 17 -32 -18 -18 -1682 -5 -1682 14 0 10 -8 10 836 8 385 -1
717 2 737 5 85 16 25 25 -170 26 -118 0 -199 4 -188 9 11 4 92 8 180 9 87 1
161 4 164 6 7 8 19 6 26 -5z m-692 -11 c-8 -8 -28 -9 -70 -2 l-58 10 70 2 c51
1 66 -2 58 -10z m2936 -20 c64 2 162 4 219 6 56 2 102 -1 102 -5 0 -5 8 -11
18 -13 9 -3 -83 -5 -205 -6 -123 0 -223 -4 -223 -8 0 -5 82 -9 183 -11 100 -2
265 -7 367 -12 102 -6 278 -10 391 -10 258 0 465 -10 425 -21 -21 -6 -953 1
-1458 11 -27 0 -22 27 6 34 13 3 26 15 29 27 4 14 10 18 18 13 7 -4 65 -6 128
-5z m-3701 -3115 c23 -8 44 -26 51 -40 14 -32 14 -87 -1 -102 -9 -9 -8 -16 5
-30 22 -24 23 -105 1 -126 -15 -15 -28 -15 -86 0 -13 4 -17 24 -22 112 -4 59
-8 126 -10 149 -5 60 0 62 62 37z m350 -49 c6 -2 12 -14 12 -25 0 -17 -6 -20
-50 -20 -54 0 -58 -6 -41 -54 7 -17 19 -26 38 -28 20 -2 29 -9 31 -25 3 -20
-1 -23 -32 -23 -34 0 -36 -1 -36 -35 0 -38 3 -40 63 -50 31 -5 37 -10 37 -32
0 -25 -1 -25 -47 -18 -98 14 -89 -2 -100 168 -6 84 -9 155 -7 158 3 6 105 -7
132 -16z m4537 -10 c0 -13 -8 -21 -22 -23 -19 -3 -22 -11 -27 -80 -10 -126
-20 -185 -33 -190 -10 -3 -11 17 -6 90 12 159 12 163 -19 166 -29 3 -37 25
-15 39 14 8 85 21 107 19 8 -1 15 -10 15 -21z m-294 -25 c41 -23 14 -64 -31
-47 -26 10 -33 8 -55 -13 -31 -29 -45 -78 -38 -128 10 -66 46 -88 91 -56 21
14 42 12 42 -5 0 -5 -12 -20 -26 -35 -37 -36 -95 -36 -129 0 -40 43 -44 147
-9 215 32 64 104 96 155 69z m-3609 -19 c3 -3 8 -15 10 -26 3 -17 -3 -20 -39
-23 l-43 -3 0 -128 c0 -70 -2 -130 -5 -133 -3 -3 -16 -3 -29 -1 -23 5 -24 9
-32 136 l-9 132 -35 5 c-30 4 -36 9 -38 34 l-4 28 109 -7 c59 -4 111 -10 115
-14z m3175 -13 c5 -7 19 -51 32 -98 12 -47 29 -107 37 -134 18 -57 13 -79 -18
-74 -14 2 -25 14 -31 33 -13 39 -18 41 -67 37 -34 -4 -45 -10 -61 -36 -10 -17
-20 -34 -21 -38 -2 -3 -15 -10 -30 -13 -20 -5 -28 -3 -28 6 0 17 110 299 123
317 5 6 20 12 32 12 12 0 27 -6 32 -12z m-2875 -65 l3 -68 63 -3 62 -3 0 65
c0 69 5 75 51 68 27 -4 27 -4 34 -106 4 -55 5 -128 3 -161 -3 -59 -3 -60 -35
-63 -39 -4 -52 16 -49 76 1 23 0 46 -3 51 -3 5 -32 11 -63 15 l-57 5 -3 -67
c-3 -61 -5 -67 -26 -70 -46 -7 -50 8 -51 173 l-2 155 35 0 35 0 3 -67z m651
48 c56 -1 57 -1 57 -31 0 -33 1 -33 -85 -34 l-60 -1 0 -35 0 -35 47 0 c51 0
72 -13 66 -41 -3 -15 -14 -20 -59 -22 l-55 -3 0 -34 c0 -32 3 -35 31 -36 114
-3 110 -2 110 -34 l0 -30 -100 -1 c-55 0 -106 3 -114 6 -10 5 -13 42 -14 161
-1 85 2 159 6 166 5 7 28 10 60 9 28 -2 78 -4 110 -5z m1820 -4 c45 -19 59
-41 59 -86 -1 -73 -36 -108 -119 -119 l-48 -7 -3 -50 c-2 -27 -9 -53 -15 -57
-17 -11 -55 -10 -59 2 -5 17 9 308 16 319 10 16 130 14 169 -2z m-1086 -162
c1 -82 -1 -158 -4 -168 -4 -14 -13 -17 -46 -15 l-42 3 2 70 c1 39 2 114 2 168
l1 98 43 -3 42 -3 2 -150z m404 55 c26 -52 51 -95 54 -95 4 0 30 43 58 95 l52
95 44 3 43 3 -7 -158 c-4 -87 -11 -162 -15 -166 -4 -5 -18 -7 -31 -5 -23 3
-24 6 -24 96 0 50 -4 91 -9 89 -4 -1 -24 -33 -43 -70 -58 -112 -84 -110 -143
9 -18 36 -34 63 -37 60 -3 -3 -5 -41 -4 -85 2 -86 -12 -115 -53 -109 -20 3
-21 9 -24 158 -1 85 0 160 3 168 3 9 18 12 46 10 l41 -3 49 -95z m-1639 -667
l3 -38 270 -12 c303 -13 1499 -17 1730 -4 200 10 240 -2 276 -85 19 -42 19
-55 9 -257 -16 -326 -16 -331 -34 -364 -19 -37 -73 -90 -100 -99 -10 -3 -23
-1 -30 6 -8 8 0 20 32 47 65 54 69 68 76 253 3 91 9 210 12 265 7 116 -2 146
-48 176 -28 17 -43 20 -108 15 -343 -26 -1629 -27 -1920 -1 -19 2 -64 4 -100
6 l-65 3 -3 -42 c-2 -23 -7 -42 -12 -42 -11 0 -150 111 -150 119 1 11 124 90
142 90 12 1 18 -9 20 -36z m-217 -48 c0 -14 -8 -21 -25 -23 -47 -5 -81 -25
-96 -54 -13 -24 -14 -69 -8 -291 9 -363 12 -370 195 -387 367 -34 1528 -54
1927 -34 l132 7 0 34 c0 46 22 51 67 16 21 -16 51 -37 67 -47 l29 -18 -39 -34
c-62 -53 -114 -88 -121 -80 -4 4 -6 23 -5 43 l3 36 -143 -6 c-586 -26 -1221
-15 -1892 33 -118 8 -133 11 -170 37 -22 16 -50 48 -62 73 -25 50 -33 148 -35
453 -1 176 6 201 71 245 44 29 105 28 105 -3z m73 -231 c7 -13 13 -14 30 -5
11 6 32 11 46 11 41 0 34 -36 -9 -54 -47 -20 -57 -50 -55 -166 1 -52 1 -101 1
-107 -1 -17 -26 -17 -39 0 -12 15 -20 306 -9 325 11 17 24 15 35 -4z m371 -24
c21 -10 50 -33 64 -50 29 -34 52 -104 41 -122 -5 -7 -48 -9 -145 -4 -76 4
-143 5 -149 1 -14 -9 13 -58 46 -84 54 -42 120 -35 168 18 21 23 66 29 66 8 0
-15 -55 -69 -87 -86 -72 -37 -188 8 -230 88 -81 153 72 310 226 231z m1881 0
c0 -11 -8 -23 -17 -27 -33 -11 -73 -56 -78 -87 -3 -17 -6 -71 -7 -121 -3 -89
-3 -90 -28 -90 l-25 0 4 160 c2 88 5 163 8 168 7 12 41 8 45 -5 4 -10 11 -8
29 4 35 24 69 23 69 -2z m-1486 -1 c21 -6 58 -29 83 -52 40 -37 43 -42 28 -53
-21 -16 -42 -9 -81 28 -37 35 -99 47 -143 28 -38 -15 -81 -77 -81 -116 0 -74
66 -134 147 -134 33 0 50 7 76 30 36 31 87 41 87 17 0 -17 -58 -70 -93 -85
-65 -28 -176 -3 -224 49 -31 34 -43 72 -43 133 0 117 116 191 244 155z m1197
-15 c17 -10 41 -31 51 -45 21 -27 43 -108 33 -118 -4 -3 -71 -8 -150 -11 -79
-3 -146 -8 -150 -12 -10 -10 21 -63 47 -80 56 -36 104 -27 170 31 41 36 58 39
58 11 0 -45 -102 -110 -171 -110 -39 1 -104 36 -128 69 -52 72 -47 150 12 218
61 69 156 89 228 47z m-765 0 c146 -69 145 -258 -1 -325 -109 -50 -230 8 -265
127 -14 47 -2 98 33 146 45 61 160 87 233 52z m474 0 c0 -16 -126 -299 -143
-321 -16 -21 -55 -15 -69 10 -13 24 -116 271 -125 300 -4 13 1 17 24 17 29 0
32 -4 80 -122 28 -67 54 -123 59 -125 5 -1 32 48 59 109 28 62 58 121 68 130
21 22 47 23 47 2z m-1510 -649 c0 -7 6 -15 13 -18 10 -4 10 -7 0 -18 -7 -7
-13 -32 -13 -56 0 -32 -4 -43 -15 -43 -11 0 -15 11 -15 43 0 24 -5 48 -11 54
-8 8 -6 18 6 37 17 26 35 27 35 1z m205 -66 c0 -87 -19 -103 -21 -17 -1 31 -4
63 -7 71 -7 17 2 29 17 24 7 -2 11 -34 11 -78z m-477 54 c2 -7 -3 -13 -12 -13
-22 0 -20 -13 4 -28 23 -14 25 -31 7 -56 -11 -15 -17 -17 -35 -7 -12 6 -22 18
-22 27 0 12 4 12 20 4 11 -6 20 -7 20 -2 0 5 -9 17 -20 27 -20 18 -26 46 -13
59 11 10 46 3 51 -11z m52 -32 c0 -39 20 -68 40 -56 5 3 10 24 10 46 0 51 24
49 28 -2 2 -25 10 -37 29 -46 37 -18 41 -8 10 25 -32 34 -34 48 -6 62 15 9 24
8 35 -1 20 -17 17 -32 -6 -26 -27 7 -25 -3 7 -29 42 -33 7 -84 -39 -55 -15 9
-27 9 -56 0 -33 -11 -37 -10 -59 15 -27 32 -33 106 -8 106 11 0 15 -11 15 -39z
m767 19 c4 -15 14 -20 38 -20 24 0 39 -7 54 -26 27 -34 26 -47 -2 -79 -20 -24
-27 -26 -69 -20 l-46 7 -4 72 c-2 39 -2 74 0 79 6 14 24 7 29 -13z m152 -2
c12 -32 1 -150 -13 -145 -15 5 -21 167 -6 167 6 0 14 -10 19 -22z m1098 -47
c-2 -38 -8 -74 -12 -81 -14 -23 -21 6 -17 78 3 56 7 72 19 72 12 0 14 -12 10
-69z m-1649 43 c8 -2 12 -23 12 -59 0 -46 -3 -55 -17 -55 -10 0 -28 -3 -40 -6
-15 -4 -29 2 -47 20 -34 33 -33 69 0 95 25 20 43 21 92 5z m169 -12 c14 -11
24 -34 29 -65 6 -44 5 -49 -12 -45 -14 2 -20 13 -22 46 -2 23 -7 43 -13 44
-30 4 -34 0 -39 -42 -7 -61 -24 -53 -28 14 -3 50 -1 55 20 59 40 7 42 7 65
-11z m1662 2 c16 -11 19 -20 12 -27 -7 -7 -15 -6 -25 2 -33 27 -76 -12 -56
-50 12 -22 23 -24 50 -7 25 16 38 2 18 -18 -35 -35 -108 -7 -108 42 0 23 51
74 74 74 6 0 22 -7 35 -16z m145 -6 c9 -12 16 -29 16 -37 0 -20 -50 -71 -69
-71 -22 0 -61 41 -61 65 0 56 83 87 114 43z m-1632 -4 c13 -8 9 -90 -4 -101
-31 -25 -66 -23 -98 4 -27 22 -31 31 -26 57 9 43 33 59 80 51 22 -3 43 -8 48
-11z m1246 -12 c25 -32 -13 -112 -53 -112 -22 0 -65 41 -65 61 0 66 79 100
118 51z m-902 -7 c15 -15 23 -32 20 -41 -3 -9 -6 -22 -6 -30 0 -7 -13 -20 -29
-29 -70 -36 -133 45 -79 102 28 30 63 29 94 -2z m237 5 c5 -4 7 -29 5 -55 -3
-44 -6 -49 -33 -57 -70 -19 -128 26 -105 82 6 15 21 32 33 38 22 11 85 6 100
-8z m135 0 c46 -43 6 -131 -52 -116 -22 5 -26 3 -26 -15 0 -14 -5 -19 -17 -17
-10 2 -18 11 -17 21 0 9 1 44 2 76 2 57 3 60 30 64 52 8 58 7 80 -13z m160 -8
l25 -27 29 28 c25 25 33 28 66 22 20 -4 40 -9 43 -11 7 -4 3 -93 -4 -101 -3
-2 -23 -7 -46 -10 -34 -5 -43 -2 -65 22 -22 24 -27 25 -32 11 -9 -23 -61 -48
-84 -41 -16 5 -20 2 -20 -14 0 -20 -24 -30 -33 -13 -2 4 -1 38 2 77 6 63 8 70
31 76 46 13 62 9 88 -19z m233 2 c-12 -15 -21 -41 -21 -60 0 -35 -13 -46 -24
-19 -5 14 0 60 10 93 2 6 15 12 29 12 l26 0 -20 -26z m575 -61 c-10 -10 -19 5
-10 18 6 11 8 11 12 0 2 -7 1 -15 -2 -18z"/>
<path d="M8336 7593 c-12 -13 -5 -71 10 -84 14 -11 18 -11 29 5 22 29 -15 103
-39 79z"/>
<path d="M8340 7427 c0 -54 44 -80 56 -33 8 31 -11 66 -36 66 -16 0 -20 -7
-20 -33z"/>
<path d="M12457 7383 c-18 -54 -14 -64 26 -56 25 5 27 9 22 37 -17 82 -26 86
-48 19z"/>
<path d="M12017 7443 c-4 -3 -7 -26 -7 -50 0 -42 1 -43 33 -43 40 0 57 15 57
50 0 14 -5 31 -12 38 -13 13 -60 16 -71 5z"/>
<path d="M9893 6385 c-18 -8 -42 -29 -53 -47 -18 -31 -19 -33 -2 -39 31 -12
222 -10 222 2 0 22 -44 72 -76 85 -41 17 -50 17 -91 -1z"/>
<path d="M11464 6361 c-18 -11 -39 -30 -48 -42 -32 -46 -25 -49 102 -42 64 3
119 7 121 9 2 2 -5 18 -16 36 -34 58 -101 75 -159 39z"/>
<path d="M10745 6370 c-83 -18 -121 -81 -101 -166 18 -78 120 -118 189 -75 68
42 85 139 34 196 -30 33 -85 54 -122 45z"/>
<path d="M10375 5676 c-20 -14 -17 -44 6 -59 24 -15 49 -1 49 27 0 32 -30 50
-55 32z"/>
<path d="M9882 5698 c-30 -30 11 -85 44 -57 25 21 11 69 -21 69 -6 0 -16 -5
-23 -12z"/>
<path d="M11858 5685 c-9 -21 -9 -29 3 -41 30 -29 76 19 49 51 -19 22 -39 18
-52 -10z"/>
<path d="M10209 5674 c-17 -21 0 -48 33 -52 30 -4 43 20 28 49 -13 23 -43 25
-61 3z"/>
<path d="M11477 5683 c-14 -13 -6 -23 18 -23 16 0 25 6 25 15 0 15 -31 21 -43
8z"/>
<path d="M11470 5625 c7 -8 18 -15 25 -15 7 0 18 7 25 15 11 13 7 15 -25 15
-32 0 -36 -2 -25 -15z"/>
<path d="M10575 5670 c-4 -6 7 -10 25 -10 18 0 29 4 25 10 -3 6 -15 10 -25 10
-10 0 -22 -4 -25 -10z"/>
<path d="M10570 5621 c0 -13 27 -21 45 -15 25 10 17 24 -15 24 -16 0 -30 -4
-30 -9z"/>
<path d="M10798 5669 c-37 -21 -10 -77 31 -64 27 8 32 29 15 54 -17 24 -22 25
-46 10z"/>
<path d="M10944 5655 c-16 -41 27 -68 59 -37 17 17 18 23 7 36 -16 20 -59 21
-66 1z"/>
<path d="M11106 5667 c-22 -16 -18 -46 7 -61 26 -16 62 27 47 55 -12 22 -29
24 -54 6z"/>
<path d="M11252 5668 c-18 -18 -15 -46 7 -58 28 -15 71 21 55 47 -14 22 -45
28 -62 11z"/>
<path d="M8306 4908 c3 -24 10 -67 15 -97 5 -30 9 -90 9 -133 0 -46 6 -93 14
-113 8 -19 14 -55 13 -80 -1 -30 2 -45 10 -45 9 0 12 -31 12 -112 -1 -62 4
-126 10 -141 15 -39 14 -67 -4 -67 -9 0 -12 -6 -9 -15 4 -8 9 -13 13 -11 3 2
5 -22 3 -53 -2 -31 1 -90 7 -130 11 -81 7 -101 -19 -101 -16 0 -18 -9 -13
-102 6 -153 22 -371 34 -473 6 -49 12 -139 14 -200 4 -116 23 -296 56 -535 33
-248 79 -590 95 -715 23 -181 53 -332 77 -384 40 -86 136 -236 179 -280 186
-189 541 -324 1058 -400 377 -56 511 -66 905 -65 372 0 608 17 890 65 125 20
395 88 432 107 10 5 38 13 63 17 25 4 77 22 115 39 39 18 86 39 105 46 70 28
203 111 266 167 76 67 124 130 175 228 50 97 66 171 119 535 12 80 26 170 31
200 6 30 14 96 19 145 5 50 14 106 20 125 6 19 15 87 20 150 6 63 17 144 24
180 22 99 36 204 36 273 0 57 6 121 29 317 5 41 17 143 26 225 8 83 18 158 21
168 4 12 0 17 -14 17 -12 0 -34 -22 -60 -58 -82 -117 -151 -162 -249 -162 -60
0 -113 23 -203 89 -171 126 -274 177 -372 187 -38 4 -68 3 -68 -2 0 -5 -21 -9
-47 -9 -31 0 -67 -10 -103 -27 -30 -14 -65 -29 -77 -33 -28 -8 -29 -21 -3 -37
19 -12 20 -24 20 -248 0 -160 4 -240 11 -247 6 -6 9 -17 7 -24 -4 -12 -70 42
-171 138 -15 15 -38 34 -51 42 -13 9 -49 35 -79 58 -104 79 -189 110 -332 118
-104 7 -243 -13 -470 -65 -146 -34 -223 -42 -345 -38 -104 4 -122 7 -183 36
-38 17 -80 41 -94 52 -14 11 -31 20 -37 20 -6 0 -59 -46 -118 -102 -58 -57
-143 -137 -188 -178 -182 -166 -190 -176 -264 -340 -21 -47 -49 -108 -62 -135
-13 -28 -24 -60 -24 -72 0 -12 -4 -25 -10 -28 -5 -3 -10 -17 -10 -31 0 -19 -5
-24 -25 -24 -49 0 -332 60 -450 95 -37 12 62 2 108 -10 71 -18 147 -20 147 -3
0 7 7 3 15 -9 11 -16 24 -20 52 -19 82 6 80 5 48 22 -16 8 -37 13 -47 11 -17
-5 -18 6 -18 149 l0 154 -25 0 -25 0 0 265 c0 170 4 265 10 265 6 0 10 7 10
15 0 8 -4 15 -10 15 -5 0 -10 7 -10 15 0 9 -9 15 -25 15 l-25 0 0 219 c0 182
3 222 15 235 20 19 19 53 -1 73 -13 13 -22 14 -47 5 -66 -23 -201 -35 -265
-24 -66 12 -132 38 -132 53 0 5 -6 9 -13 9 -13 0 -119 106 -165 165 -38 49
-145 233 -229 392 -42 81 -95 183 -118 225 -22 43 -43 78 -48 78 -4 0 -5 -19
-1 -42z m3765 -1838 c10 -6 19 -17 19 -25 0 -22 -18 -18 -25 4 -4 12 -12 18
-21 14 -7 -3 -14 0 -14 6 0 14 16 14 41 1z m-2996 -410 c3 -5 1 -10 -4 -10 -6
0 -11 5 -11 10 0 6 2 10 4 10 3 0 8 -4 11 -10z"/>
<path d="M9448 4083 c7 -3 16 -2 19 1 4 3 -2 6 -13 5 -11 0 -14 -3 -6 -6z"/>
<path d="M9400 4062 c-29 -5 -40 -18 -40 -52 0 -24 2 -25 50 -22 49 4 50 4 50
37 0 35 -14 44 -60 37z"/>
<path d="M9752 4004 c10 -10 20 -15 24 -12 3 4 -5 12 -18 18 -22 12 -22 12 -6
-6z"/>
</g>
</svg>
