<?xml version="1.0" standalone="no"?>
<!DOCTYPE svg PUBLIC "-//W3C//DTD SVG 20010904//EN"
 "http://www.w3.org/TR/2001/REC-SVG-20010904/DTD/svg10.dtd">
<svg version="1.0" xmlns="http://www.w3.org/2000/svg"
 width="2160.000000pt" height="1200.000000pt" viewBox="0 0 2160.000000 1200.000000"
 preserveAspectRatio="xMidYMid meet">

<g transform="translate(0.000000,1200.000000) scale(0.100000,-0.100000)"
fill="#000000" stroke="none">
<path d="M10067 11980 c3 -11 9 -20 14 -20 5 0 9 -7 9 -15 0 -28 104 -189 147
-227 25 -22 91 -58 107 -58 7 0 19 -7 26 -15 7 -9 21 -13 30 -10 17 5 154 -65
175 -90 6 -7 26 -18 45 -25 19 -8 39 -20 43 -27 4 -7 32 -20 61 -28 47 -14 54
-20 60 -46 6 -30 -10 -69 -29 -69 -5 0 -4 -4 4 -9 12 -8 13 -12 1 -25 -7 -9
-10 -19 -6 -23 3 -3 -5 -21 -19 -39 -14 -18 -25 -35 -25 -38 0 -3 -11 -16 -25
-30 -16 -17 -31 -23 -42 -19 -15 6 -15 5 -3 -8 16 -17 85 -17 165 1 28 6 64
14 80 17 17 3 35 10 42 15 7 5 16 7 21 4 5 -3 21 2 37 10 15 8 39 15 52 16 12
1 23 6 23 10 0 4 8 8 18 8 9 0 37 7 61 15 33 12 46 13 57 4 11 -9 14 -8 14 4
0 20 40 29 59 14 12 -10 14 -8 9 11 -5 19 -2 22 21 22 15 0 32 -5 39 -12 9 -9
12 -7 12 9 0 23 36 38 47 20 4 -7 10 -2 13 13 5 18 12 24 26 22 26 -5 31 -16
39 -84 9 -76 28 -65 23 15 -2 42 1 61 10 64 8 3 13 -7 14 -29 2 -52 3 -56 12
-65 5 -4 6 25 3 68 -3 42 -1 82 3 90 5 8 4 19 -2 26 -8 10 -5 13 12 13 15 0
20 5 17 14 -3 7 -1 18 4 23 6 6 14 36 18 67 7 51 6 59 -13 73 -15 11 -17 17
-8 20 10 4 10 8 1 19 -8 10 -10 50 -7 135 5 120 5 120 39 155 l33 34 -335 -1
c-183 -1 -325 -3 -314 -6 42 -9 95 -37 95 -50 0 -7 7 -16 15 -19 21 -9 19 -49
-7 -116 -18 -46 -28 -59 -50 -63 -14 -4 -33 -17 -42 -30 -20 -31 -54 -35 -88
-12 -23 15 -28 16 -28 3 0 -12 -16 -14 -95 -13 -66 1 -95 6 -95 14 0 8 -13 11
-36 9 -20 -1 -42 3 -49 11 -16 15 -35 17 -35 3 0 -16 -37 -12 -73 9 -62 35
-77 46 -77 56 0 6 -20 28 -45 49 -25 22 -45 46 -45 53 0 8 -15 20 -32 28 -35
14 -63 49 -53 65 4 6 -31 10 -88 10 -90 0 -95 -1 -90 -20z m1456 -580 c-12
-47 -25 -22 -14 28 1 2 5 1 10 -2 5 -3 7 -15 4 -26z m-38 -21 c11 -17 -1 -21
-15 -4 -8 9 -8 15 -2 15 6 0 14 -5 17 -11z"/>
<path d="M11637 11594 c9 -15 19 -21 21 -15 4 13 -16 41 -29 41 -5 0 -2 -12 8
-26z"/>
<path d="M9835 11590 c-8 -13 5 -79 16 -86 5 -3 9 18 9 45 0 47 -10 65 -25 41z"/>
<path d="M9850 11470 c0 -5 5 -10 10 -10 6 0 10 5 10 10 0 6 -4 10 -10 10 -5
0 -10 -4 -10 -10z"/>
<path d="M11562 11365 c0 -16 2 -22 5 -12 2 9 2 23 0 30 -3 6 -5 -1 -5 -18z"/>
<path d="M11571 11314 c0 -11 3 -14 6 -6 3 7 2 16 -1 19 -3 4 -6 -2 -5 -13z"/>
<path d="M11424 11312 c-9 -5 -9 -23 -2 -66 12 -70 28 -58 28 22 0 51 -4 59
-26 44z"/>
<path d="M11368 11254 c-2 -27 2 -53 9 -63 10 -13 12 -6 13 41 0 69 -17 86
-22 22z"/>
<path d="M11308 11233 c-5 -57 1 -95 13 -87 9 5 5 121 -4 130 -3 3 -7 -16 -9
-43z"/>
<path d="M11342 11260 c0 -14 2 -19 5 -12 2 6 2 18 0 25 -3 6 -5 1 -5 -13z"/>
<path d="M11241 11198 c0 -37 4 -70 9 -73 12 -7 12 64 0 110 -6 23 -8 15 -9
-37z"/>
<path d="M11171 11161 c1 -34 6 -61 10 -61 13 0 11 108 -1 115 -7 4 -10 -15
-9 -54z"/>
<path d="M11105 11161 c-3 -10 -1 -29 4 -42 9 -21 10 -19 10 19 1 45 -4 54
-14 23z"/>
<path d="M10585 11160 c27 -12 43 -12 25 0 -8 5 -22 9 -30 9 -10 0 -8 -3 5 -9z"/>
<path d="M9300 11146 c-19 -8 -66 -30 -103 -50 -38 -20 -74 -36 -81 -36 -7 0
-30 -12 -51 -26 -21 -14 -60 -34 -87 -45 -27 -11 -66 -30 -86 -44 -20 -14 -46
-25 -57 -25 -11 0 -29 -7 -39 -15 -11 -8 -28 -15 -39 -15 -10 0 -38 -13 -62
-30 -24 -16 -48 -30 -54 -30 -6 0 -31 -12 -56 -26 -79 -44 -386 -140 -525
-164 -52 -9 -81 -22 -145 -65 -109 -74 -148 -89 -302 -121 -13 -2 -29 -14 -37
-27 -15 -23 -12 -41 28 -171 9 -27 16 -72 16 -100 0 -47 16 -145 40 -241 16
-66 13 -87 -10 -80 -11 4 -20 2 -20 -4 0 -6 -5 -11 -10 -11 -19 0 -37 -24 -32
-43 5 -19 -35 -70 -48 -62 -4 3 -10 -5 -13 -16 -3 -11 -15 -23 -26 -26 -12 -3
-21 -11 -21 -17 0 -6 -34 -34 -75 -61 -41 -27 -75 -52 -75 -57 0 -4 -6 -8 -14
-8 -8 0 -16 -5 -18 -11 -3 -8 -15 -6 -39 4 -33 14 -36 13 -48 -5 -11 -18 -14
-18 -29 -5 -9 8 -27 18 -38 21 -12 4 -29 15 -39 26 -10 11 -21 20 -25 20 -10
0 -29 -45 -50 -115 -10 -33 -26 -80 -35 -105 -9 -25 -25 -92 -36 -150 -10 -58
-30 -152 -44 -210 -13 -58 -25 -126 -25 -152 0 -26 -7 -67 -15 -92 -30 -89
-82 -351 -125 -631 -14 -86 -12 -155 3 -159 6 -2 80 -20 162 -40 145 -35 150
-35 163 -17 11 16 19 17 50 10 20 -4 55 -10 77 -13 22 -2 40 -5 40 -6 0 -1 16
-3 35 -5 19 -2 35 -4 35 -5 0 -1 18 -3 40 -5 22 -2 61 -5 87 -8 38 -5 47 -3
51 12 4 18 32 22 54 8 6 -4 18 -4 27 -1 9 3 16 2 16 -4 0 -6 9 -8 20 -5 12 3
20 0 20 -7 0 -10 3 -10 15 0 8 7 15 18 15 25 0 14 45 12 97 -4 40 -12 62 -9
73 10 10 16 42 19 52 5 3 -5 18 -10 33 -12 20 -2 29 2 33 18 4 18 10 19 46 13
23 -3 52 -8 66 -9 14 -2 25 -4 25 -5 0 -1 13 -4 28 -6 21 -3 30 1 36 17 5 14
10 18 15 10 11 -18 24 -14 31 8 3 11 11 20 16 20 15 0 10 -16 -15 -43 -24 -26
-26 -77 -4 -77 7 0 8 -14 3 -37 -3 -21 -8 -46 -9 -55 -1 -10 -5 -21 -9 -24 -4
-4 -7 -27 -7 -50 0 -23 -6 -49 -14 -57 -12 -11 -37 -81 -40 -109 -2 -16 -16
-19 -16 -3 0 32 -9 11 -15 -38 -4 -31 -3 -47 4 -47 16 0 13 -16 -6 -36 -10
-10 -18 -22 -18 -27 0 -8 -16 -20 -43 -34 -2 0 -5 -7 -6 -15 -1 -7 -8 -23 -14
-35 -11 -20 -10 -23 5 -24 16 0 16 -1 -2 -9 -39 -17 -48 -12 -41 20 3 19 2 29
-4 25 -6 -3 -10 -14 -10 -25 0 -10 -7 -21 -16 -24 -8 -3 -12 -10 -9 -16 3 -5
1 -10 -4 -10 -6 0 -11 -4 -11 -10 0 -13 67 -13 75 -1 3 5 -5 12 -17 14 -18 3
-16 5 8 6 26 1 30 -2 29 -21 -1 -12 -7 -24 -13 -26 -15 -5 -3 -32 14 -32 8 0
14 5 14 10 0 6 4 10 9 10 5 0 7 -9 4 -20 -3 -11 -9 -20 -14 -20 -5 0 -8 -5 -6
-12 1 -6 -7 -14 -18 -17 -39 -12 -56 -27 -49 -44 3 -9 12 -17 20 -17 8 0 11 6
8 15 -5 11 1 15 19 15 14 0 29 -4 32 -10 3 -5 -1 -10 -10 -10 -8 0 -20 -11
-25 -25 -9 -24 -30 -35 -30 -15 0 6 -10 10 -22 10 -17 0 -20 -3 -9 -9 8 -5 11
-16 7 -26 -5 -15 -4 -16 8 -6 8 7 24 10 36 6 13 -4 22 -1 26 9 3 9 17 16 29
16 13 0 26 4 30 10 3 5 12 7 20 3 9 -3 15 1 15 11 0 9 7 16 15 16 9 0 16 10
16 28 2 23 2 24 6 5 6 -32 23 -28 23 5 0 15 7 38 16 50 8 12 12 22 9 22 -3 0
0 6 7 14 7 8 17 13 22 13 6 -1 12 7 14 18 2 11 7 22 11 25 16 13 51 71 51 85
0 8 8 15 18 15 13 0 14 2 3 9 -10 6 -10 10 -1 16 24 15 32 -13 31 -107 -1 -36
3 -69 9 -73 6 -4 10 6 10 24 0 17 4 31 9 31 5 0 14 -46 20 -102 6 -57 16 -139
21 -183 12 -95 12 -262 1 -360 -9 -76 -6 -89 13 -62 7 9 18 17 24 17 5 0 30
20 55 45 43 44 57 77 57 132 0 20 4 23 27 21 l26 -3 -2 190 c-1 105 2 202 7
215 6 15 6 45 1 75 -5 28 -16 108 -26 179 -20 144 -29 168 -57 141 -16 -16
-18 -16 -35 0 -29 26 -69 169 -77 275 -4 52 -8 178 -8 280 l-1 185 35 0 c19 1
69 5 110 10 41 4 99 8 128 8 28 0 52 5 52 10 0 5 6 4 14 -2 10 -8 16 -9 21 -1
3 6 10 8 15 5 4 -3 10 3 12 13 4 13 15 19 39 20 19 0 75 4 124 7 119 8 332 9
480 2 66 -3 120 -6 120 -7 0 -1 146 -7 345 -14 58 -2 105 -5 105 -5 0 -1 80
-4 178 -6 98 -3 182 -7 187 -10 5 -3 11 -1 14 4 3 5 14 7 25 4 13 -3 20 2 24
17 4 17 10 21 24 15 20 -8 27 -9 66 -7 17 1 27 8 27 17 0 10 10 15 30 15 17 0
30 -5 30 -11 0 -8 4 -8 14 0 7 6 21 8 30 5 12 -5 19 0 23 14 6 23 41 36 59 21
8 -7 13 -3 17 12 5 18 11 21 37 17 21 -3 35 0 43 12 19 26 37 33 53 19 12 -10
16 -9 20 8 7 24 43 38 59 22 6 -6 15 -2 27 13 14 20 26 23 95 24 43 0 88 4
101 8 22 7 22 6 20 -61 -3 -64 -2 -68 18 -66 21 2 22 -1 18 -62 -3 -42 0 -66
8 -71 7 -4 14 -2 16 4 7 23 24 12 18 -12 -8 -34 3 -58 24 -51 11 3 20 0 24
-10 3 -8 12 -15 21 -15 11 0 15 -11 15 -46 0 -42 2 -46 20 -41 20 5 21 2 15
-63 -5 -63 4 -95 20 -70 16 25 24 5 22 -57 -2 -66 -1 -68 21 -65 19 1 22 -2
17 -17 -9 -28 5 -53 25 -46 15 5 18 0 17 -27 -2 -31 0 -33 26 -30 16 2 27 -1
24 -5 -3 -5 -8 -46 -11 -92 -6 -88 4 -122 29 -101 10 8 12 -2 9 -47 -19 -332
-25 -782 -12 -830 8 -30 18 -38 40 -34 4 0 5 -35 3 -79 -6 -82 4 -120 30 -120
11 0 12 -17 9 -87 -3 -47 -9 -94 -14 -103 -11 -21 -2 -57 16 -64 16 -6 19 -42
4 -51 -16 -10 -12 -65 6 -72 12 -4 14 -15 9 -47 -8 -47 -25 -106 -37 -122 -5
-6 -6 -19 -2 -27 3 -10 -2 -21 -15 -29 -12 -7 -21 -16 -21 -21 0 -4 5 -5 10
-2 6 3 10 -1 10 -9 0 -16 -33 -39 -43 -30 -3 3 -9 -11 -12 -32 -11 -66 -21
-89 -37 -86 -21 3 -25 -22 -22 -138 2 -98 -6 -130 -31 -130 -17 0 -17 -5 -5
-75 11 -66 3 -105 -22 -105 -17 0 -18 -5 -12 -52 4 -29 8 -55 10 -57 2 -2 -1
-12 -7 -22 -8 -16 -13 -17 -31 -8 -19 10 -20 9 -14 -12 4 -13 8 -38 10 -55 2
-17 7 -49 11 -71 7 -44 -6 -63 -29 -44 -18 15 -27 2 -16 -20 6 -9 7 -24 4 -33
-3 -8 -2 -21 2 -27 4 -7 9 -35 11 -63 5 -58 18 -79 44 -71 12 4 18 1 19 -12 0
-10 1 -27 2 -38 1 -11 -2 -48 -6 -82 -7 -61 -6 -63 16 -63 17 0 19 -3 10 -12
-7 -7 -12 -20 -12 -30 0 -9 -6 -21 -12 -25 -7 -4 -18 -17 -25 -28 -6 -11 -17
-19 -24 -17 -9 2 -10 0 -1 -11 7 -8 8 -17 2 -23 -5 -5 -11 -30 -14 -54 -2 -25
-5 -49 -6 -55 -6 -27 2 -46 23 -56 42 -19 66 -116 62 -251 -2 -71 0 -81 16
-85 18 -5 25 -24 19 -48 -7 -27 -6 -85 0 -85 4 0 10 -9 13 -20 3 -11 10 -20
15 -20 6 0 8 9 5 20 -5 20 7 27 21 13 4 -5 56 -9 114 -10 144 -2 457 -18 457
-22 0 -1 36 -4 80 -6 275 -16 354 -24 374 -35 13 -6 22 -7 26 0 6 9 68 7 104
-5 21 -6 26 6 51 120 6 28 16 63 22 78 9 23 8 31 -2 37 -12 7 -12 13 0 36 11
20 15 62 15 153 0 133 -6 163 -55 261 -71 142 -82 160 -100 160 -22 0 -27 22
-30 120 -3 82 -6 121 -15 190 -3 25 -11 82 -17 127 -6 48 -17 92 -27 105 -17
23 -45 183 -35 199 3 5 0 17 -5 27 -13 25 -25 163 -24 283 2 128 23 204 88
319 75 132 101 194 114 275 15 90 8 241 -12 263 -8 9 -20 51 -26 92 -6 41 -16
100 -22 130 -5 30 -12 78 -15 105 -2 28 -7 57 -10 65 -4 8 -8 95 -10 193 -2
117 -7 183 -15 193 -8 10 -9 34 -3 81 4 38 6 75 5 84 -4 37 40 214 67 262 15
29 43 88 62 132 19 44 40 85 46 90 6 6 21 37 33 69 12 33 30 71 40 85 10 14
21 37 24 51 34 144 50 200 57 193 4 -4 13 -54 20 -110 12 -92 11 -108 -5 -165
-21 -72 -27 -291 -12 -416 8 -57 6 -79 -4 -99 -11 -21 -11 -27 -1 -30 7 -3 12
-23 12 -51 0 -26 5 -63 10 -82 6 -19 11 -53 12 -75 0 -22 4 -45 9 -50 4 -6 9
-33 11 -60 1 -28 7 -53 12 -57 6 -4 5 -12 -3 -21 -9 -12 -9 -16 1 -20 10 -4
10 -7 -1 -15 -10 -7 -10 -11 -1 -14 7 -2 14 -31 16 -72 3 -38 1 -65 -4 -62 -5
3 -10 -20 -11 -52 -2 -85 -20 -234 -31 -262 -14 -36 -47 -183 -61 -267 -7 -40
-15 -73 -19 -73 -3 0 -3 -24 1 -52 12 -84 11 -96 -8 -94 -14 1 -18 -8 -19 -39
0 -22 5 -48 12 -59 10 -15 10 -23 -2 -41 -10 -15 -11 -25 -5 -29 6 -4 20 -34
32 -66 12 -33 25 -60 30 -60 4 0 9 -6 12 -12 2 -7 2 1 -1 17 -2 17 -15 50 -29
74 -13 24 -22 45 -21 47 8 7 24 -13 42 -51 15 -31 20 -36 24 -21 2 10 -2 22
-8 26 -7 4 -10 12 -6 18 3 6 0 13 -6 15 -10 4 -9 8 2 16 13 9 12 11 -2 16 -8
3 -15 17 -15 30 0 15 4 22 10 18 7 -4 8 0 4 11 -4 10 -5 22 -2 27 13 20 81
-73 69 -94 -4 -7 -4 -9 1 -5 4 4 21 -13 36 -37 30 -48 45 -58 36 -25 -3 11 -1
17 4 14 6 -3 9 10 7 33 -3 32 0 38 18 41 16 2 23 -5 32 -35 l11 -38 -5 50 c-3
28 -10 82 -15 120 -16 121 -28 324 -29 483 0 84 -7 198 -15 255 -9 56 -18 197
-20 312 -3 116 -7 239 -10 275 -3 36 -2 72 1 80 12 26 15 43 15 92 1 29 6 49
15 52 21 8 37 84 38 186 1 89 -1 100 -33 165 -18 39 -40 84 -48 100 -25 53
-26 105 -3 190 11 44 30 98 41 121 10 22 19 46 19 52 0 7 6 15 14 18 9 3 12
12 9 21 -4 9 2 22 13 30 14 10 16 16 6 22 -10 6 -8 20 6 67 34 106 35 114 13
114 -10 0 -25 -10 -33 -22 -31 -47 -79 -86 -100 -80 -29 7 -19 45 47 179 52
107 105 248 105 280 0 10 -6 13 -16 9 -9 -3 -18 -6 -20 -6 -2 0 -4 -6 -4 -14
0 -8 -3 -16 -7 -18 -5 -1 -18 -30 -30 -63 -39 -107 -48 -130 -54 -135 -3 -3
-16 -34 -27 -70 l-21 -65 5 55 c4 30 16 93 29 140 12 47 28 111 34 143 7 31
16 57 20 57 4 0 13 10 19 23 l11 22 7 -23 c9 -30 27 -23 36 14 3 16 12 48 19
72 9 34 9 48 -1 66 -13 25 -11 31 29 145 11 34 12 46 3 49 -20 6 -14 30 23 93
19 33 35 66 35 73 0 6 4 16 8 22 28 32 92 250 90 305 -1 18 1 71 5 117 5 68 4
82 -8 82 -18 0 -18 11 0 130 18 117 18 110 0 110 -20 0 -19 6 9 95 23 72 23
83 1 80 -37 -4 -53 -19 -69 -68 -10 -28 -26 -59 -36 -67 -22 -20 -48 -173 -69
-405 -5 -54 -9 -70 -21 -68 -29 4 -50 -66 -50 -164 0 -71 -3 -92 -15 -97 -8
-3 -14 -13 -13 -23 4 -51 -3 -84 -19 -90 -10 -3 -26 -13 -35 -20 -29 -25 -37
-7 -31 67 5 60 4 70 -9 65 -23 -9 -29 20 -13 59 17 41 21 221 5 231 -5 3 -9
31 -7 61 2 47 4 54 21 52 16 -2 20 4 21 32 3 106 5 114 17 102 18 -18 26 -15
27 11 11 220 11 241 -1 229 -7 -7 -16 -12 -20 -12 -11 0 -10 64 1 131 21 123
21 130 3 127 -19 -3 -19 -4 -2 131 10 89 8 103 -15 94 -11 -4 -15 2 -15 20 0
32 -38 57 -88 57 l-39 0 5 -56 c4 -49 2 -56 -15 -60 -17 -5 -21 -17 -27 -74
-7 -84 -13 -100 -35 -100 -25 0 -40 -72 -46 -225 -3 -71 -7 -146 -8 -165 -2
-19 -4 -59 -5 -88 -2 -44 -6 -55 -21 -59 -16 -4 -19 -15 -20 -70 0 -77 -24
-129 -46 -100 -8 12 -15 13 -22 6 -21 -21 -34 1 -29 44 3 23 8 76 11 118 4 72
13 159 40 409 4 36 3 50 -3 41 -23 -33 -28 3 -15 111 13 102 13 150 -1 298 -2
14 -4 37 -4 52 -2 20 -6 26 -17 22 -11 -5 -15 1 -15 18 0 32 -18 48 -53 48
-22 0 -28 -4 -23 -16 9 -23 -4 -64 -20 -64 -9 0 -14 -12 -14 -35 0 -19 -4 -35
-10 -35 -5 0 -10 5 -10 11 0 5 -4 8 -9 5 -5 -3 -7 -25 -4 -47 6 -39 5 -41 -16
-34 -19 6 -21 2 -22 -32 -1 -21 -3 -51 -4 -68 -2 -16 -9 -85 -16 -153 -6 -67
-16 -125 -20 -128 -5 -3 -9 0 -9 6 0 6 -4 9 -9 6 -10 -6 -26 -74 -36 -148 -4
-30 -11 -48 -20 -48 -8 0 -17 -21 -23 -57 -11 -65 -9 -75 15 -66 14 6 15 -1 9
-52 -11 -98 -13 -101 -52 -101 l-34 0 0 63 c0 51 -3 63 -16 63 -14 0 -15 10
-9 77 3 42 9 81 12 86 3 5 7 26 9 48 3 29 0 39 -11 39 -23 0 -25 14 -12 91 14
84 12 109 -10 109 -13 0 -14 12 -9 76 6 69 5 76 -9 64 -12 -10 -15 -10 -16 1
-2 33 2 116 7 141 5 23 3 26 -16 21 -18 -5 -20 -2 -16 18 14 66 17 171 5 185
-30 36 -67 4 -72 -63 -3 -38 -7 -47 -20 -45 -13 2 -17 -4 -17 -27 0 -41 -9
-61 -29 -61 -10 0 -18 -6 -19 -12 -2 -43 -46 -255 -55 -265 -5 -7 -18 -13 -28
-13 -11 0 -19 -7 -20 -17 -1 -38 -10 -111 -19 -162 -5 -29 -7 -57 -4 -63 3 -5
0 -15 -6 -23 -7 -8 -10 -20 -7 -27 2 -7 1 -20 -4 -29 -4 -8 -10 -38 -14 -65
-3 -27 -18 -116 -34 -199 -16 -82 -27 -153 -25 -156 2 -4 -3 -43 -11 -89 -8
-45 -14 -85 -13 -88 1 -4 -2 -35 -6 -70 -10 -82 -15 -126 -21 -187 -2 -27 -7
-86 -11 -130 -4 -44 -7 -84 -6 -88 4 -15 -20 -142 -29 -151 -5 -5 -14 -4 -23
3 -8 7 -21 9 -27 5 -17 -10 -40 25 -30 45 5 9 5 25 0 36 -4 11 -8 16 -8 11 -1
-5 -8 -3 -16 4 -13 10 -14 28 -10 89 4 42 8 86 11 98 4 19 0 22 -18 20 -21 -2
-23 2 -23 43 0 29 -5 44 -12 43 -7 -2 -15 7 -18 18 -6 19 1 103 12 142 3 13
-2 20 -16 24 -19 5 -25 15 -22 35 0 4 3 29 7 55 3 26 7 59 8 73 2 14 7 33 11
42 4 11 0 20 -14 28 -13 6 -21 21 -21 35 0 16 -6 25 -15 25 -9 0 -15 9 -15 24
0 13 -7 26 -15 30 -8 3 -15 16 -15 30 0 25 -21 36 -69 36 -20 0 -22 4 -17 25
5 18 2 27 -9 31 -11 5 -15 22 -15 66 0 48 -3 59 -14 55 -8 -3 -20 1 -27 9 -16
19 20 232 49 293 12 25 20 46 19 48 -2 1 -49 -8 -105 -22 -55 -13 -125 -27
-154 -30 -176 -18 -267 -28 -293 -32 -41 -7 -221 -7 -325 0 -240 17 -325 32
-480 84 -58 19 -110 36 -116 37 -7 1 -18 7 -25 13 -8 6 -24 14 -37 18 -55 17
-192 99 -242 146 -30 28 -70 63 -88 77 -19 14 -55 57 -80 96 -43 65 -47 76
-47 133 0 35 -2 63 -5 62 -3 0 -21 -6 -40 -13z m3585 -1145 c3 -5 1 -12 -5
-16 -5 -3 -10 1 -10 9 0 18 6 21 15 7z m-45 -17 c0 -8 -5 -12 -10 -9 -6 4 -8
11 -5 16 9 14 15 11 15 -7z m105 -193 c3 -5 1 -12 -5 -16 -5 -3 -10 1 -10 9 0
18 6 21 15 7z m-8 -73 c-3 -8 -6 -5 -6 6 -1 11 2 17 5 13 3 -3 4 -12 1 -19z
m3 -42 c0 -3 -4 -8 -10 -11 -5 -3 -10 -1 -10 4 0 6 5 11 10 11 6 0 10 -2 10
-4z m-4839 -2223 c-8 -15 -10 -15 -11 -2 0 17 10 32 18 25 2 -3 -1 -13 -7 -23z
m-36 -143 c3 -5 -1 -10 -9 -10 -9 0 -16 5 -16 10 0 6 4 10 9 10 6 0 13 -4 16
-10z m4840 -1391 c5 -20 3 -35 -5 -42 -10 -9 -12 -7 -7 10 3 13 1 26 -4 29
-12 7 -12 34 0 34 5 0 12 -14 16 -31z"/>
<path d="M11038 11143 c-4 -48 -3 -83 4 -83 4 0 8 23 8 50 0 48 -8 70 -12 33z"/>
<path d="M10959 11135 c-2 -6 -2 -32 1 -60 5 -43 7 -47 14 -24 7 26 -6 102
-15 84z"/>
<path d="M10893 11080 c0 -25 2 -35 4 -22 2 12 2 32 0 45 -2 12 -4 2 -4 -23z"/>
<path d="M10726 11078 c-3 -13 -6 -30 -6 -37 0 -23 16 0 24 32 8 32 -9 37 -18
5z"/>
<path d="M10812 11060 c0 -14 2 -19 5 -12 2 6 2 18 0 25 -3 6 -5 1 -5 -13z"/>
<path d="M13820 10575 c-7 -8 -8 -15 -2 -15 5 0 15 7 22 15 7 8 8 15 2 15 -5
0 -15 -7 -22 -15z"/>
<path d="M14351 9534 c0 -11 3 -14 6 -6 3 7 2 16 -1 19 -3 4 -6 -2 -5 -13z"/>
<path d="M14361 9488 c-1 -10 -5 -18 -11 -18 -16 0 -11 -19 9 -37 11 -9 17
-22 14 -30 -4 -10 -9 -11 -18 -3 -9 7 -15 7 -19 1 -4 -5 -2 -12 3 -16 6 -3 9
-11 7 -18 -1 -7 -1 -9 1 -4 10 16 24 6 21 -15 -6 -44 -34 -50 -50 -10 l-12 27
-4 -25 c-2 -14 -8 -30 -12 -35 -13 -16 -8 -54 7 -59 7 -3 13 -10 13 -15 0 -6
-8 -7 -17 -4 -13 5 -15 2 -10 -12 4 -10 1 -27 -6 -39 -12 -19 -11 -24 10 -46
16 -17 22 -19 17 -7 -4 12 -1 17 12 17 18 1 18 1 2 14 -23 17 -23 26 2 26 10
0 24 -9 30 -21 11 -20 7 -34 -11 -34 -5 0 -9 -3 -9 -7 0 -5 0 -14 0 -22 0 -8
10 -17 23 -19 l22 -4 -22 -2 c-25 -1 -31 -16 -10 -24 10 -4 10 -7 0 -18 -10
-9 -13 -10 -13 -1 0 7 -7 12 -15 12 -22 0 -18 -28 6 -41 15 -8 18 -14 10 -22
-19 -19 -12 -27 19 -20 19 3 30 1 30 -6 0 -6 -9 -11 -20 -11 -12 0 -26 -5 -33
-10 -7 -6 -21 -18 -32 -26 -19 -15 -19 -15 8 -9 16 3 45 3 65 -1 l37 -7 -40
-13 c-22 -6 -33 -12 -24 -13 23 -1 31 -49 11 -60 -13 -7 -13 -12 -4 -23 6 -8
9 -24 5 -37 -4 -17 -1 -23 17 -28 21 -5 20 -7 -11 -21 -19 -8 -28 -16 -21 -19
19 -7 14 -22 -7 -16 -10 3 -22 0 -25 -6 -4 -6 0 -11 9 -11 9 0 13 -5 9 -11 -4
-8 0 -7 15 1 12 6 30 9 39 7 13 -4 12 -5 -4 -6 -23 -1 -34 -17 -27 -38 3 -7 9
-13 15 -13 6 0 8 7 4 15 -3 9 0 15 9 15 9 0 15 -10 15 -26 0 -18 -4 -25 -14
-21 -8 3 -23 -5 -35 -17 -22 -23 -28 -56 -11 -56 6 0 10 10 10 22 0 33 18 9
20 -27 3 -45 0 -53 -11 -27 -5 15 -13 20 -21 16 -9 -6 -9 -9 0 -12 19 -6 14
-32 -5 -33 -10 0 -13 -3 -6 -5 8 -4 10 -16 6 -35 -4 -20 -1 -29 7 -29 10 0 10
-3 -1 -16 -10 -13 -10 -17 2 -25 12 -7 12 -9 0 -9 -11 0 -12 -3 -4 -11 9 -9 9
-18 0 -36 -7 -15 -7 -27 -1 -31 8 -6 11 -65 4 -82 -5 -13 -9 -50 -6 -50 2 0
19 7 37 15 25 10 28 14 14 15 -20 1 -20 1 -1 15 19 15 19 15 -5 15 -15 0 -19
3 -12 8 7 4 15 31 18 60 4 44 2 52 -12 52 -13 0 -14 3 -6 11 13 13 47 4 38
-10 -9 -15 11 -22 37 -12 20 8 20 10 4 10 -20 1 -20 1 0 16 17 13 17 14 2 15
-10 0 -18 5 -18 11 0 6 7 9 15 6 8 -4 17 -2 20 3 3 5 -9 14 -27 19 -25 7 -28
9 -10 10 36 2 25 21 -12 21 -36 0 -56 -14 -34 -23 8 -3 5 -6 -5 -6 -14 -1 -18
5 -16 27 2 15 0 33 -4 40 -9 13 2 16 27 6 13 -5 14 -9 5 -21 -11 -12 -5 -14
39 -12 29 2 52 6 52 11 0 5 -11 6 -24 2 -18 -4 -25 -1 -29 17 -7 24 3 43 10
22 7 -20 23 -15 23 7 0 11 -6 20 -14 20 -9 0 -14 9 -13 20 1 11 8 20 15 20 10
0 12 6 7 18 -14 31 -15 82 -2 82 7 1 1 7 -13 15 -14 8 -19 14 -11 15 7 0 11 6
8 15 -4 8 -2 17 3 20 5 3 7 12 3 20 -3 8 -1 15 4 15 5 0 9 9 9 20 0 11 -4 20
-8 20 -6 0 -5 140 2 148 1 1 3 12 3 25 1 14 -4 22 -15 22 -30 0 -32 15 -2 16
16 0 23 3 17 6 -7 2 -13 9 -13 15 0 5 -9 23 -21 39 l-20 29 26 0 c15 0 24 -4
20 -10 -3 -5 1 -10 11 -10 13 0 14 3 4 15 -6 8 -9 23 -5 35 4 13 2 20 -6 20
-7 0 -10 3 -6 6 3 4 -1 14 -10 23 -15 15 -15 16 0 19 17 3 24 22 10 22 -5 0
-9 17 -9 38 -3 80 -61 338 -63 280z m-36 -188 c3 -5 1 -10 -4 -10 -6 0 -11 5
-11 10 0 6 2 10 4 10 3 0 8 -4 11 -10z m31 -54 c-4 -15 -14 -26 -23 -26 -15 0
-15 2 1 19 16 18 16 18 -11 13 l-28 -5 24 22 c29 25 47 14 37 -23z m37 4 c-7
-28 -13 -25 -13 6 0 14 4 23 9 20 5 -3 7 -15 4 -26z m24 -42 c-3 -7 -5 -2 -5
12 0 14 2 19 5 13 2 -7 2 -19 0 -25z m-47 -8 c0 -5 -9 -10 -20 -10 -11 0 -20
5 -20 10 0 6 9 10 20 10 11 0 20 -4 20 -10z m30 -30 c0 -5 -5 -10 -11 -10 -5
0 -7 5 -4 10 3 6 8 10 11 10 2 0 4 -4 4 -10z m0 -64 c0 -10 -7 -12 -22 -8 -21
5 -21 6 -2 13 10 4 20 8 22 8 1 1 2 -5 2 -13z m-23 -182 c-3 -3 -12 -4 -19 -1
-8 3 -5 6 6 6 11 1 17 -2 13 -5z m10 -106 c-3 -8 -6 -5 -6 6 -1 11 2 17 5 13
3 -3 4 -12 1 -19z m13 -332 c0 -3 -4 -8 -10 -11 -5 -3 -10 -1 -10 4 0 6 5 11
10 11 6 0 10 -2 10 -4z m-4 -169 c4 -4 -5 -7 -20 -7 -15 0 -25 4 -22 9 7 10
31 9 42 -2z"/>
<path d="M14275 9089 c-4 -6 -5 -11 -4 -12 2 -2 12 -9 22 -16 15 -12 17 -11
17 13 0 26 -22 36 -35 15z"/>
<path d="M14288 8963 c7 -3 16 -2 19 1 4 3 -2 6 -13 5 -11 0 -14 -3 -6 -6z"/>
<path d="M14278 8933 c7 -3 16 -2 19 1 4 3 -2 6 -13 5 -11 0 -14 -3 -6 -6z"/>
<path d="M14310 8772 c0 -5 7 -15 15 -22 8 -7 15 -8 15 -2 0 5 -7 15 -15 22
-8 7 -15 8 -15 2z"/>
<path d="M14315 8710 c4 -6 11 -8 16 -5 14 9 11 15 -7 15 -8 0 -12 -5 -9 -10z"/>
<path d="M14445 8650 c-3 -5 -1 -10 4 -10 6 0 11 5 11 10 0 6 -2 10 -4 10 -3
0 -8 -4 -11 -10z"/>
<path d="M14313 8586 c-10 -11 -9 -15 3 -20 9 -3 12 -1 9 4 -3 6 -1 10 4 10 6
0 11 5 11 10 0 14 -13 12 -27 -4z"/>
<path d="M14394 8228 c1 -13 -3 -26 -9 -30 -6 -5 -6 -11 3 -20 10 -10 16 -8
30 6 9 11 11 16 5 12 -18 -10 -16 9 2 28 21 20 19 26 -9 26 -18 0 -23 -5 -22
-22z"/>
<path d="M14335 8091 c-3 -2 -5 -15 -5 -28 0 -17 6 -23 21 -23 16 0 19 4 14
20 -4 11 -2 20 4 20 6 0 11 4 11 9 0 10 -37 11 -45 2z"/>
<path d="M14412 8083 c9 -11 9 -16 -3 -24 -10 -6 -2 -8 26 -7 23 0 30 3 18 5
-25 5 -31 28 -10 36 6 2 0 4 -16 4 -23 0 -25 -2 -15 -14z"/>
<path d="M14342 8018 c-15 -15 -16 -48 -2 -48 9 0 30 40 30 56 0 8 -16 4 -28
-8z"/>
<path d="M14405 8019 c-11 -17 1 -21 15 -4 8 9 8 15 2 15 -6 0 -14 -5 -17 -11z"/>
<path d="M14340 7945 c0 -22 4 -30 13 -27 4 1 3 -7 -3 -19 -13 -23 -6 -54 11
-44 6 4 8 13 5 20 -2 7 -2 16 2 20 4 4 7 20 7 36 0 21 -5 29 -17 29 -10 0 -18
-7 -18 -15z"/>
<path d="M14397 7940 c3 -11 7 -20 9 -20 2 0 4 9 4 20 0 11 -4 20 -9 20 -5 0
-7 -9 -4 -20z"/>
<path d="M14450 7939 c0 -5 5 -7 10 -4 6 3 10 8 10 11 0 2 -4 4 -10 4 -5 0
-10 -5 -10 -11z"/>
<path d="M14626 7837 c3 -10 9 -15 12 -12 3 3 0 11 -7 18 -10 9 -11 8 -5 -6z"/>
<path d="M14335 7793 c-12 -30 -14 -48 -8 -50 7 -3 8 -17 3 -39 -10 -42 4 -54
18 -16 15 35 24 152 13 152 -4 0 -16 -21 -26 -47z"/>
<path d="M8165 7820 c-3 -5 -1 -10 4 -10 6 0 11 5 11 10 0 6 -2 10 -4 10 -3 0
-8 -4 -11 -10z"/>
<path d="M14404 7801 c3 -5 15 -7 26 -4 28 7 25 13 -6 13 -14 0 -23 -4 -20 -9z"/>
<path d="M8153 7695 c0 -27 2 -38 4 -22 2 15 2 37 0 50 -2 12 -4 0 -4 -28z"/>
<path d="M14341 7640 c-6 -18 -6 -30 0 -30 5 0 9 9 9 19 0 11 5 21 12 23 9 3
9 6 1 11 -7 4 -15 -5 -22 -23z"/>
<path d="M14330 7560 c0 -13 5 -18 14 -14 8 3 12 12 9 20 -8 21 -23 17 -23 -6z"/>
<path d="M14335 7509 c-11 -16 -1 -19 13 -3 7 8 8 14 3 14 -5 0 -13 -5 -16
-11z"/>
<path d="M14668 7503 c-2 -5 -1 -30 3 -58 l6 -50 1 58 c2 52 -2 69 -10 50z"/>
<path d="M14351 7444 c0 -11 3 -14 6 -6 3 7 2 16 -1 19 -3 4 -6 -2 -5 -13z"/>
<path d="M7929 7183 c-1 -5 -1 -11 0 -15 0 -5 -3 -8 -9 -8 -5 0 -10 -4 -10 -9
0 -4 12 -6 26 -3 19 3 22 7 12 13 -10 7 -9 9 5 9 10 0 15 5 12 10 -7 12 -34
14 -36 3z"/>
<path d="M9249 7133 c-1 -28 0 -520 1 -620 0 -7 6 -13 14 -13 8 0 17 -12 20
-26 6 -21 11 -25 30 -20 16 4 26 1 29 -9 5 -11 13 -12 38 -5 21 6 37 6 44 0 7
-5 14 -8 16 -6 9 9 99 14 104 5 12 -18 25 -9 25 17 0 24 3 25 28 19 59 -16 83
-13 95 13 10 21 15 23 52 17 22 -4 74 -8 115 -11 100 -5 195 -13 195 -15 0 0
15 -2 33 -4 28 -2 32 0 32 22 0 20 3 23 13 14 8 -6 17 -8 20 -4 4 3 13 0 21
-6 12 -10 17 -9 28 8 14 23 38 27 55 10 26 -26 26 -22 20 454 l-2 168 -60 -7
c-91 -10 -348 -11 -362 -1 -6 4 -14 3 -18 -3 -3 -6 -11 -7 -18 -3 -13 8 -42
10 -257 18 -150 5 -215 10 -215 15 0 1 -21 4 -47 6 l-48 4 -1 -37z"/>
<path d="M8336 7142 c-2 -4 -1 -14 5 -22 7 -12 9 -10 9 8 0 23 -5 28 -14 14z"/>
<path d="M8326 7082 c-4 -13 -5 -26 -2 -29 10 -11 18 4 14 29 l-4 23 -8 -23z"/>
<path d="M14713 7035 c0 -22 2 -30 4 -17 2 12 2 30 0 40 -3 9 -5 -1 -4 -23z"/>
<path d="M14670 7039 c0 -5 5 -7 10 -4 6 3 10 8 10 11 0 2 -4 4 -10 4 -5 0
-10 -5 -10 -11z"/>
<path d="M8115 7030 c3 -5 8 -10 11 -10 2 0 4 5 4 10 0 6 -5 10 -11 10 -5 0
-7 -4 -4 -10z"/>
<path d="M8317 7011 c-2 -11 -1 -35 3 -53 7 -30 8 -28 9 20 1 54 -3 66 -12 33z"/>
<path d="M8028 6983 c7 -3 16 -2 19 1 4 3 -2 6 -13 5 -11 0 -14 -3 -6 -6z"/>
<path d="M14670 6976 c0 -2 11 -6 25 -8 14 -3 25 -1 25 3 0 5 -11 9 -25 9 -14
0 -25 -2 -25 -4z"/>
<path d="M8025 6960 c3 -5 8 -10 11 -10 2 0 4 5 4 10 0 6 -5 10 -11 10 -5 0
-7 -4 -4 -10z"/>
<path d="M7947 6940 c-4 -14 0 -20 11 -20 25 0 46 16 38 29 -12 18 -43 12 -49
-9z"/>
<path d="M7918 6943 c7 -3 16 -2 19 1 4 3 -2 6 -13 5 -11 0 -14 -3 -6 -6z"/>
<path d="M8298 6883 c-7 -31 3 -143 13 -143 5 0 9 36 9 80 0 44 -4 80 -9 80
-5 0 -10 -8 -13 -17z"/>
<path d="M14722 6840 c0 -14 2 -19 5 -12 2 6 2 18 0 25 -3 6 -5 1 -5 -13z"/>
<path d="M14630 6750 c-1 -8 -3 -25 -6 -37 -2 -13 1 -23 7 -23 8 0 7 -5 -1
-15 -7 -9 -10 -19 -6 -23 4 -4 17 4 28 18 18 22 18 25 4 28 -20 4 -21 18 -1
26 8 3 15 13 15 23 -1 17 -1 17 -14 0 -14 -18 -14 -18 -19 0 -3 13 -5 14 -7 3z"/>
<path d="M8299 6702 c-10 -12 -13 -25 -8 -38 11 -29 11 -32 -8 -37 -17 -4 -17
-5 0 -6 14 -1 16 -7 11 -28 -4 -16 -11 -33 -16 -40 -5 -7 -7 -17 -3 -22 3 -6
1 -20 -5 -31 -8 -15 -8 -25 -1 -34 7 -9 7 -16 -1 -24 -9 -9 -9 -15 0 -24 14
-14 19 -2 26 67 3 28 10 74 16 103 6 29 10 71 8 93 -3 38 -4 39 -19 21z"/>
<path d="M14680 6700 c0 -5 5 -10 11 -10 5 0 7 5 4 10 -3 6 -8 10 -11 10 -2 0
-4 -4 -4 -10z"/>
<path d="M14660 6656 c0 -7 -10 -17 -22 -21 -21 -7 -20 -8 10 -12 34 -4 58 6
35 14 -7 2 -9 11 -6 19 3 8 0 14 -6 14 -6 0 -11 -6 -11 -14z"/>
<path d="M14626 6588 c-9 -36 -7 -66 6 -70 7 -3 9 -11 3 -24 -4 -10 -7 -22 -7
-26 1 -5 -2 -8 -8 -8 -5 0 -10 -4 -10 -10 0 -5 8 -10 18 -10 10 0 13 -3 6 -8
-6 -4 -10 -20 -9 -37 3 -43 4 -45 20 -45 8 0 15 -5 15 -10 0 -6 -7 -13 -15
-16 -22 -9 -18 -32 5 -36 13 -2 17 -7 12 -15 -7 -10 -14 -10 -35 0 -28 12 -36
42 -14 50 6 3 -4 5 -23 5 -19 0 -27 -2 -17 -5 19 -5 22 -24 6 -40 -13 -13 -3
-34 14 -32 18 3 77 -22 77 -32 0 -15 -42 -10 -62 8 -10 9 -20 14 -22 12 -3 -2
-7 -55 -10 -117 -5 -100 -3 -112 11 -112 15 0 15 -1 1 -12 -19 -16 -31 -48
-18 -48 6 0 6 -9 0 -22 -9 -23 -20 -80 -25 -128 -2 -14 -11 -62 -20 -108 -9
-46 -15 -85 -13 -87 7 -7 48 7 43 14 -6 11 21 82 35 91 9 6 9 9 0 15 -9 6 -9
9 1 16 8 4 19 3 26 -3 9 -7 13 -7 13 1 0 7 6 9 13 5 10 -6 10 -4 0 7 -17 17
-16 29 0 29 7 0 13 9 13 20 0 13 -7 20 -19 20 -10 0 -16 4 -13 9 4 5 17 8 31
6 14 -1 25 2 25 6 0 5 -21 10 -47 11 -35 1 -39 2 -17 5 22 3 34 11 37 25 3 11
10 17 17 13 8 -5 8 -10 0 -20 -8 -10 -5 -13 14 -11 21 1 23 3 11 16 -7 8 -15
42 -17 75 -3 33 -3 54 -1 48 3 -7 9 -13 14 -13 6 0 7 5 4 10 -3 6 1 10 11 10
12 0 15 7 12 30 -3 22 -1 30 11 30 14 0 14 2 2 9 -12 8 -12 12 -2 24 9 12 9
17 0 22 -8 6 -7 10 5 17 9 5 16 13 16 18 0 6 -9 2 -20 -7 -11 -10 -20 -27 -20
-40 0 -23 -17 -40 -28 -28 -3 3 -1 10 6 14 7 4 12 12 11 17 -4 24 2 55 10 49
19 -11 22 16 4 46 -13 24 -15 33 -5 36 6 3 12 13 12 23 0 10 -6 20 -12 23 -7
2 -10 8 -6 12 4 4 13 3 21 -3 10 -8 13 -6 13 8 0 15 -7 18 -33 16 -33 -2 -45
8 -20 17 9 4 8 8 -3 16 -12 9 -10 11 13 11 18 0 27 5 27 16 0 10 -6 14 -15 10
-8 -3 -19 3 -25 14 -15 28 -12 40 8 33 15 -6 15 -5 3 10 -10 13 -10 17 -1 17
9 0 10 10 6 36 -5 22 -3 41 5 50 8 10 8 14 0 14 -6 0 -11 9 -11 20 0 30 -55
28 -64 -2z m34 -9 c0 -5 -4 -9 -10 -9 -5 0 -10 7 -10 16 0 8 5 12 10 9 6 -3
10 -10 10 -16z m-3 -35 c-3 -4 0 -16 8 -28 22 -31 18 -45 -5 -16 -22 28 -26
50 -8 50 6 0 8 -3 5 -6z m3 -139 c0 -8 -4 -15 -10 -15 -5 0 -10 7 -10 15 0 8
5 15 10 15 6 0 10 -7 10 -15z m-30 -232 c0 -26 0 -26 -20 -8 -16 14 -17 20 -8
27 22 13 28 9 28 -19z m5 -43 c-3 -5 -13 -10 -21 -10 -8 0 -12 5 -9 10 3 6 13
10 21 10 8 0 12 -4 9 -10z m73 -83 c2 -9 -2 -17 -8 -17 -6 0 -8 5 -5 10 3 6 2
10 -3 10 -6 0 -12 -7 -16 -15 -3 -8 -10 -15 -15 -15 -5 0 -4 11 2 25 13 28 40
29 45 2z m-38 -127 c0 -5 -7 -10 -15 -10 -8 0 -15 5 -15 10 0 6 7 10 15 10 8
0 15 -4 15 -10z"/>
<path d="M14585 6471 c-3 -5 -1 -12 5 -16 5 -3 10 1 10 9 0 18 -6 21 -15 7z"/>
<path d="M14570 6420 c0 -5 4 -10 9 -10 6 0 13 5 16 10 3 6 -1 10 -9 10 -9 0
-16 -4 -16 -10z"/>
<path d="M14695 6420 c3 -5 11 -10 16 -10 6 0 7 5 4 10 -3 6 -11 10 -16 10 -6
0 -7 -4 -4 -10z"/>
<path d="M8262 6360 c-5 -22 -6 -38 -2 -35 10 6 24 64 17 71 -2 3 -9 -13 -15
-36z"/>
<path d="M14585 6390 c3 -5 8 -10 11 -10 2 0 4 5 4 10 0 6 -5 10 -11 10 -5 0
-7 -4 -4 -10z"/>
<path d="M14578 6363 c-10 -3 -18 -9 -18 -14 0 -12 37 -12 45 0 7 12 -5 19
-27 14z"/>
<path d="M8250 6289 c0 -5 5 -7 10 -4 6 3 10 8 10 11 0 2 -4 4 -10 4 -5 0 -10
-5 -10 -11z"/>
<path d="M8247 6170 c3 -11 7 -20 9 -20 2 0 4 9 4 20 0 11 -4 20 -9 20 -5 0
-7 -9 -4 -20z"/>
<path d="M14742 6035 c0 -16 2 -22 5 -12 2 9 2 23 0 30 -3 6 -5 -1 -5 -18z"/>
<path d="M8241 5994 c0 -11 3 -14 6 -6 3 7 2 16 -1 19 -3 4 -6 -2 -5 -13z"/>
<path d="M14700 5951 c0 -17 2 -31 4 -31 8 0 13 51 5 56 -5 3 -9 -9 -9 -25z"/>
<path d="M8242 5925 c0 -16 2 -22 5 -12 2 9 2 23 0 30 -3 6 -5 -1 -5 -18z"/>
<path d="M12955 5880 c3 -5 8 -10 11 -10 2 0 4 5 4 10 0 6 -5 10 -11 10 -5 0
-7 -4 -4 -10z"/>
<path d="M11531 5863 c-1 -6 -4 -20 -7 -30 -5 -17 -5 -17 6 0 6 10 9 23 6 30
-3 9 -5 9 -5 0z"/>
<path d="M11561 5854 c0 -11 3 -14 6 -6 3 7 2 16 -1 19 -3 4 -6 -2 -5 -13z"/>
<path d="M12940 5851 c0 -5 5 -13 10 -16 6 -3 10 -2 10 4 0 5 -4 13 -10 16 -5
3 -10 2 -10 -4z"/>
<path d="M14776 5823 c-6 -14 -5 -15 5 -6 7 7 10 15 7 18 -3 3 -9 -2 -12 -12z"/>
<path d="M11547 5817 c-11 -29 -9 -43 4 -30 6 6 9 19 7 29 -3 18 -4 18 -11 1z"/>
<path d="M14700 5809 c0 -5 5 -7 10 -4 6 3 10 8 10 11 0 2 -4 4 -10 4 -5 0
-10 -5 -10 -11z"/>
<path d="M11527 5753 c-4 -3 -7 -11 -7 -17 0 -6 5 -5 12 2 6 6 9 14 7 17 -3 3
-9 2 -12 -2z"/>
<path d="M12885 5693 c4 -10 10 -26 12 -35 3 -10 9 -18 14 -18 12 0 11 6 -6
40 -17 32 -32 41 -20 13z"/>
<path d="M12860 5654 c0 -6 7 -19 15 -30 8 -10 14 -14 14 -9 0 6 -6 19 -14 29
-8 11 -15 15 -15 10z"/>
<path d="M12890 5591 c0 -5 5 -13 10 -16 6 -3 10 -2 10 4 0 5 -4 13 -10 16 -5
3 -10 2 -10 -4z"/>
<path d="M14528 5583 c-26 -6 -23 -39 3 -39 19 0 19 1 3 13 -16 12 -16 13 -2
13 9 0 20 5 23 10 6 10 2 11 -27 3z"/>
<path d="M14565 5550 c3 -5 8 -10 11 -10 2 0 4 5 4 10 0 6 -5 10 -11 10 -5 0
-7 -4 -4 -10z"/>
<path d="M7841 5494 c0 -11 3 -14 6 -6 3 7 2 16 -1 19 -3 4 -6 -2 -5 -13z"/>
<path d="M7871 5494 c0 -11 3 -14 6 -6 3 7 2 16 -1 19 -3 4 -6 -2 -5 -13z"/>
<path d="M13182 5460 c0 -19 4 -48 8 -65 7 -27 8 -28 8 -5 1 14 -3 43 -7 65
l-9 40 0 -35z"/>
<path d="M7841 5424 c0 -11 3 -14 6 -6 3 7 2 16 -1 19 -3 4 -6 -2 -5 -13z"/>
<path d="M6542 5298 c-6 -8 -13 -121 -16 -283 -5 -220 -11 -296 -31 -415 -13
-80 -29 -190 -34 -245 -6 -55 -17 -153 -26 -218 -15 -110 -15 -145 2 -475 10
-197 16 -425 14 -507 -2 -112 1 -164 12 -205 9 -30 18 -116 22 -190 4 -74 8
-162 10 -195 2 -33 6 -136 10 -230 6 -161 36 -440 71 -660 20 -129 14 -274
-16 -373 -21 -70 -22 -75 -6 -142 20 -90 54 -156 110 -213 67 -69 77 -65 71
33 -3 43 -12 99 -20 124 -18 54 -13 70 47 146 41 51 189 166 200 155 3 -3 13
4 23 15 10 11 26 20 36 20 10 0 20 4 23 9 3 5 17 12 30 15 14 3 38 11 53 18
15 6 31 12 35 12 3 1 10 4 14 8 4 5 19 8 34 8 14 0 30 4 36 9 5 6 23 12 39 15
17 2 30 5 30 6 0 2 9 4 20 6 11 1 45 7 75 12 30 5 60 8 66 5 7 -2 31 1 54 7
30 8 45 8 55 0 8 -7 15 -7 19 -1 6 9 82 5 98 -6 12 -6 0 -41 -25 -75 -23 -31
-24 -53 -9 -268 5 -74 16 -155 25 -180 36 -105 39 -128 24 -198 -8 -37 -13
-82 -12 -99 2 -19 -1 -30 -6 -27 -6 3 -17 0 -25 -7 -8 -6 -17 -9 -21 -5 -3 3
-16 0 -27 -7 -12 -7 -39 -14 -61 -15 -46 -2 -165 -32 -165 -41 0 -4 40 0 88 7
108 18 145 7 149 -43 1 -16 4 -45 6 -63 3 -28 0 -33 -15 -29 -15 4 -16 2 -7
-14 5 -10 13 -19 17 -19 16 0 44 -62 39 -88 -3 -14 0 -37 6 -51 9 -19 9 -25
-1 -29 -8 -2 -10 -13 -5 -29 5 -23 4 -25 -13 -19 -59 25 -58 26 -49 -60 5 -43
8 -107 6 -141 l-2 -63 49 0 48 0 19 100 c11 55 23 100 27 100 7 0 11 -27 23
-142 l6 -58 2755 0 c1515 0 2754 3 2754 8 -1 4 -7 35 -14 70 -7 34 -10 62 -5
62 5 0 6 24 3 53 -5 47 2 112 21 190 4 16 3 27 -3 27 -6 0 -13 -8 -15 -18 -3
-9 -5 0 -6 21 -1 27 3 37 14 37 8 0 15 5 15 11 0 5 -4 7 -10 4 -5 -3 -10 -2
-10 3 0 5 11 15 25 22 14 7 25 18 25 23 0 13 -49 -1 -82 -24 l-28 -20 0 32 c0
18 7 57 16 88 9 31 21 74 26 96 6 22 21 73 34 114 28 85 29 116 9 191 -22 78
-11 213 19 242 21 19 96 58 114 58 5 0 26 20 47 45 20 25 40 43 45 40 5 -3 12
-1 15 5 4 6 14 9 23 6 19 -6 125 -16 212 -21 30 -2 62 -6 70 -8 24 -8 94 -21
104 -18 5 1 17 -6 27 -15 10 -9 23 -13 29 -9 12 7 109 -14 124 -27 6 -4 16 -8
23 -8 7 0 32 -14 56 -31 24 -17 62 -33 85 -36 23 -3 42 -9 42 -14 0 -4 16 -16
35 -25 19 -9 35 -20 35 -25 0 -5 6 -9 14 -9 8 0 17 -6 19 -12 5 -13 60 40 102
99 34 47 96 189 116 266 39 152 44 237 24 438 -10 102 -17 250 -16 332 l2 147
-27 11 c-16 5 -72 8 -133 5 -97 -4 -112 -2 -190 25 -77 27 -203 44 -217 30 -3
-3 -22 -6 -42 -7 -20 -1 -37 -3 -37 -4 0 -7 -186 -7 -190 0 -7 11 -48 0 -57
-16 -6 -8 -18 -10 -44 -4 -20 5 -43 6 -50 3 -8 -3 -14 0 -14 6 0 6 -7 8 -15 5
-8 -3 -28 1 -45 9 -28 14 -30 14 -30 -3 0 -34 -11 -52 -25 -40 -21 18 -76 15
-86 -3 -10 -16 -24 -17 -101 -2 -32 6 -38 4 -38 -10 0 -12 5 -15 16 -11 10 4
14 1 11 -6 -4 -13 -10 -15 -58 -17 -24 -1 -30 -11 -71 -118 -47 -123 -74 -225
-63 -243 3 -5 3 -15 0 -20 -4 -6 -20 9 -37 32 -17 24 -61 76 -97 116 -61 69
-66 78 -78 145 -7 40 -17 140 -23 222 -14 190 -16 200 -35 185 -14 -11 -161
-21 -170 -11 -2 2 -50 5 -107 7 -57 3 -130 8 -163 13 -33 5 -94 9 -135 10 -41
2 -100 5 -130 7 -54 5 -212 14 -300 17 -25 1 -50 6 -57 10 -6 4 -14 4 -17 -1
-3 -5 -17 -7 -33 -6 -42 3 -132 13 -183 20 -25 3 -56 7 -70 9 -14 1 -25 4 -25
5 0 5 -106 16 -250 26 -38 3 -86 7 -105 9 -33 4 -50 6 -132 21 -30 5 -67 7
-243 18 -27 2 -50 5 -50 6 0 1 -18 4 -40 5 -22 2 -40 4 -40 5 0 1 -36 4 -80 6
-96 6 -160 11 -160 13 0 0 -45 3 -101 6 -133 6 -208 13 -329 31 -55 8 -118 17
-140 20 -106 13 -178 25 -195 31 -8 4 -27 7 -42 8 -15 2 -60 6 -100 10 -40 5
-89 9 -108 11 -71 6 -117 13 -195 28 -44 9 -93 16 -110 15 -62 -1 -314 17
-335 24 -19 6 -153 28 -203 33 -21 2 -42 6 -46 8 -7 5 -153 28 -386 62 -163
23 -252 43 -265 59 -16 19 -10 47 33 170 65 189 72 231 58 327 -8 46 -12 100
-9 119 9 67 59 232 78 259 19 27 19 28 0 111 -18 72 -44 176 -58 229 -16 59
-11 140 15 235 4 17 44 84 87 150 78 116 116 199 130 279 7 36 6 38 -13 33
-12 -3 -24 -1 -27 4 -3 5 -10 7 -15 3 -21 -13 -150 -11 -157 3 -5 9 -32 13
-82 14 -44 1 -78 6 -82 13 -5 7 -8 4 -8 -8 0 -12 -5 -16 -16 -12 -8 3 -25 1
-37 -5 -16 -9 -22 -9 -25 0 -7 21 -34 41 -45 34 -7 -4 -59 -9 -117 -10 -58 -1
-118 -2 -135 -3 -28 -2 -251 8 -340 15 -31 2 -40 7 -40 21 0 12 -6 18 -15 15
-31 -8 -197 -2 -245 10 -28 6 -61 13 -75 15 -92 11 -113 18 -117 35 -6 22 -45
26 -61 7z m1175 -4075 c-2 -16 -4 -3 -4 27 0 30 2 43 4 28 2 -16 2 -40 0 -55z"/>
<path d="M13225 5220 c3 -5 8 -10 11 -10 2 0 4 5 4 10 0 6 -5 10 -11 10 -5 0
-7 -4 -4 -10z"/>
<path d="M13244 5155 c3 -27 9 -90 12 -140 6 -96 10 -108 24 -85 14 22 12 65
-10 169 -22 104 -36 134 -26 56z"/>
<path d="M14700 5009 c0 -5 5 -7 10 -4 6 3 10 8 10 11 0 2 -4 4 -10 4 -5 0
-10 -5 -10 -11z"/>
<path d="M14600 5000 c0 -5 7 -10 16 -10 8 0 12 5 9 10 -3 6 -10 10 -16 10 -5
0 -9 -4 -9 -10z"/>
<path d="M14607 4963 c-11 -10 -8 -43 3 -43 5 0 9 11 8 25 -3 28 -2 27 -11 18z"/>
<path d="M14602 4885 c-11 -12 -10 -15 3 -15 8 0 15 7 15 15 0 18 -2 18 -18 0z"/>
<path d="M14715 4880 c-3 -5 -1 -10 4 -10 6 0 11 5 11 10 0 6 -2 10 -4 10 -3
0 -8 -4 -11 -10z"/>
<path d="M14608 4833 c-17 -4 -34 -33 -19 -33 4 0 16 9 26 20 10 11 16 19 14
19 -2 -1 -11 -3 -21 -6z"/>
<path d="M14616 4694 c-9 -24 3 -36 20 -19 9 8 12 19 9 25 -9 15 -22 12 -29
-6z"/>
<path d="M14730 4686 c0 -2 7 -6 15 -10 8 -3 15 -1 15 4 0 6 -7 10 -15 10 -8
0 -15 -2 -15 -4z"/>
<path d="M14641 4603 c0 -10 -4 -38 -10 -63 -10 -47 -6 -65 11 -54 6 4 8 22 5
40 -4 24 -1 36 10 42 10 6 13 16 8 31 -8 25 -24 28 -24 4z"/>
<path d="M14666 4537 c3 -10 9 -15 12 -12 3 3 0 11 -7 18 -10 9 -11 8 -5 -6z"/>
<path d="M14725 4460 c-3 -5 -1 -10 4 -10 6 0 11 5 11 10 0 6 -2 10 -4 10 -3
0 -8 -4 -11 -10z"/>
<path d="M13238 4425 c-3 -6 -9 -32 -12 -58 -4 -27 -10 -59 -12 -70 -3 -12 -7
-53 -11 -92 -3 -38 -10 -76 -16 -83 -7 -8 -7 -16 -1 -20 14 -11 16 -34 3 -43
-7 -4 -9 -15 -5 -25 7 -18 8 -18 20 -1 7 9 18 17 23 17 5 0 8 20 6 46 -3 32
-1 44 6 39 6 -3 9 -11 6 -16 -4 -5 -2 -9 4 -9 10 0 16 23 26 95 3 22 8 53 11
69 9 43 -5 136 -21 136 -7 0 -15 5 -17 12 -3 7 -7 8 -10 3z"/>
<path d="M14661 4423 c0 -5 4 -17 9 -28 8 -18 9 -17 9 8 1 15 -3 27 -9 27 -5
0 -10 -3 -9 -7z"/>
<path d="M14645 4390 c3 -5 8 -10 11 -10 2 0 4 5 4 10 0 6 -5 10 -11 10 -5 0
-7 -4 -4 -10z"/>
<path d="M11375 4349 c-15 -29 -15 -31 1 -27 10 2 19 14 21 31 5 35 -3 34 -22
-4z"/>
<path d="M14667 4336 c-3 -8 -2 -18 3 -21 13 -8 24 15 12 27 -6 6 -11 4 -15
-6z"/>
<path d="M11322 4318 c-6 -6 -12 -19 -12 -27 0 -13 2 -13 16 1 9 9 15 21 13
27 -3 9 -8 8 -17 -1z"/>
<path d="M11270 4299 c0 -5 5 -7 10 -4 6 3 10 8 10 11 0 2 -4 4 -10 4 -5 0
-10 -5 -10 -11z"/>
<path d="M11355 4300 c3 -5 8 -10 11 -10 2 0 4 5 4 10 0 6 -5 10 -11 10 -5 0
-7 -4 -4 -10z"/>
<path d="M10370 4275 c0 -8 5 -15 10 -15 6 0 10 7 10 15 0 8 -4 15 -10 15 -5
0 -10 -7 -10 -15z"/>
<path d="M10410 4276 c0 -9 5 -16 10 -16 6 0 10 4 10 9 0 6 -4 13 -10 16 -5 3
-10 -1 -10 -9z"/>
<path d="M10450 4274 c0 -8 5 -12 10 -9 6 3 10 10 10 16 0 5 -4 9 -10 9 -5 0
-10 -7 -10 -16z"/>
<path d="M14726 4162 c-2 -4 -1 -14 5 -22 7 -12 9 -10 9 8 0 23 -5 28 -14 14z"/>
<path d="M10701 2934 c0 -11 3 -14 6 -6 3 7 2 16 -1 19 -3 4 -6 -2 -5 -13z"/>
<path d="M11011 2904 c0 -11 3 -14 6 -6 3 7 2 16 -1 19 -3 4 -6 -2 -5 -13z"/>
<path d="M14680 2895 c0 -14 -4 -25 -10 -25 -5 0 -10 -9 -10 -20 0 -11 -4 -20
-9 -20 -18 0 -81 -117 -81 -150 0 -16 25 -47 64 -78 31 -25 44 21 48 176 2 78
3 142 1 142 -2 0 -3 -11 -3 -25z"/>
<path d="M11243 2885 c-3 -9 -3 -18 -1 -21 3 -3 8 4 11 16 6 23 -1 27 -10 5z"/>
<path d="M12113 2850 c0 -25 2 -35 4 -22 2 12 2 32 0 45 -2 12 -4 2 -4 -23z"/>
<path d="M12393 2845 c0 -22 2 -30 4 -17 2 12 2 30 0 40 -3 9 -5 -1 -4 -23z"/>
<path d="M12462 2850 c0 -19 2 -27 5 -17 2 9 2 25 0 35 -3 9 -5 1 -5 -18z"/>
<path d="M12641 2844 c0 -11 3 -14 6 -6 3 7 2 16 -1 19 -3 4 -6 -2 -5 -13z"/>
<path d="M11882 2825 c0 -16 2 -22 5 -12 2 9 2 23 0 30 -3 6 -5 -1 -5 -18z"/>
<path d="M12751 2834 c0 -11 3 -14 6 -6 3 7 2 16 -1 19 -3 4 -6 -2 -5 -13z"/>
<path d="M12642 2800 c0 -14 2 -19 5 -12 2 6 2 18 0 25 -3 6 -5 1 -5 -13z"/>
<path d="M13546 673 c-6 -14 -5 -15 5 -6 7 7 10 15 7 18 -3 3 -9 -2 -12 -12z"/>
<path d="M7340 621 c-8 -5 -49 -25 -90 -45 -41 -21 -88 -46 -105 -57 -16 -10
-38 -22 -47 -25 -10 -4 -18 -9 -18 -13 0 -4 -17 -15 -37 -26 -43 -22 -76 -53
-117 -107 -43 -58 -18 -45 54 27 35 36 68 65 73 65 5 0 27 14 49 32 22 17 66
44 97 60 72 36 161 85 169 92 8 9 -11 6 -28 -3z"/>
<path d="M13801 594 c0 -11 3 -14 6 -6 3 7 2 16 -1 19 -3 4 -6 -2 -5 -13z"/>
<path d="M13368 513 c7 -3 16 -2 19 1 4 3 -2 6 -13 5 -11 0 -14 -3 -6 -6z"/>
<path d="M13480 510 c20 -13 33 -13 25 0 -3 6 -14 10 -23 10 -15 0 -15 -2 -2
-10z"/>
<path d="M13541 497 c14 -8 43 -17 65 -21 37 -8 109 -29 149 -45 11 -4 49 -16
85 -25 36 -9 88 -23 115 -30 28 -8 71 -17 97 -21 51 -8 72 -25 82 -67 5 -21 1
-30 -15 -42 -18 -12 -23 -28 -27 -88 -2 -40 1 -92 7 -115 l12 -43 109 0 c90 0
110 3 110 15 0 18 -17 106 -32 162 -8 34 -8 46 3 59 12 14 9 20 -16 40 -40 31
-152 85 -192 91 -18 3 -33 9 -33 12 0 4 -8 7 -17 8 -51 4 -163 28 -163 34 0 5
-17 11 -37 14 -21 4 -76 17 -123 30 -47 13 -98 26 -115 29 -16 2 -30 5 -30 6
0 1 -13 4 -30 6 l-30 5 26 -14z m618 -303 c25 -42 27 -55 6 -47 -19 7 -48 60
-40 73 9 15 11 13 34 -26z"/>
<path d="M13670 375 c-6 -7 -13 -33 -16 -57 -8 -77 -22 -144 -24 -118 -1 14
-2 33 -1 43 2 14 -6 17 -37 17 -32 0 -43 -5 -58 -27 l-18 -28 -7 25 c-6 23 -7
24 -13 5 -4 -11 -12 -28 -17 -38 -5 -10 -7 -23 -3 -29 4 -5 1 -14 -7 -18 -10
-7 -10 -12 -1 -23 10 -11 9 -17 -2 -26 -15 -12 -14 -20 6 -73 l10 -28 125 0
124 0 18 43 c10 23 16 47 12 52 -15 26 -10 54 11 70 16 11 19 18 11 23 -17 11
-4 55 13 48 24 -9 15 13 -11 30 -14 9 -28 28 -32 43 -3 14 -8 31 -12 36 -3 6
-6 17 -6 25 0 19 -50 23 -65 5z m90 -130 c0 -8 -4 -15 -10 -15 -5 0 -10 7 -10
15 0 8 5 15 10 15 6 0 10 -7 10 -15z"/>
<path d="M7203 166 c-17 -8 -23 -19 -23 -43 0 -17 -6 -34 -12 -36 -9 -3 -3
-14 16 -29 l29 -25 -31 -11 c-18 -6 -32 -13 -32 -16 0 -4 36 -6 80 -6 77 0 80
1 70 19 -5 11 -10 29 -10 40 0 30 -31 97 -49 108 -10 5 -25 5 -38 -1z"/>
<path d="M13291 104 c0 -11 3 -14 6 -6 3 7 2 16 -1 19 -3 4 -6 -2 -5 -13z"/>
</g>
</svg>
