<?xml version="1.0" standalone="no"?>
<!DOCTYPE svg PUBLIC "-//W3C//DTD SVG 20010904//EN"
 "http://www.w3.org/TR/2001/REC-SVG-20010904/DTD/svg10.dtd">
<svg version="1.0" xmlns="http://www.w3.org/2000/svg"
 width="2160.000000pt" height="1200.000000pt" viewBox="0 0 2160.000000 1200.000000"
 preserveAspectRatio="xMidYMid meet">

<g transform="translate(0.000000,1200.000000) scale(0.100000,-0.100000)"
fill="#000000" stroke="none">
<path d="M2187 11933 c14 -38 28 -77 31 -88 3 -11 8 -24 12 -30 4 -5 10 -22
13 -36 4 -14 22 -43 42 -65 19 -21 35 -45 35 -55 0 -30 50 -108 90 -139 21
-17 42 -40 45 -51 4 -11 17 -24 30 -29 17 -7 24 -19 29 -52 25 -190 36 -311
46 -488 6 -113 15 -230 20 -260 5 -30 12 -95 15 -145 3 -49 11 -111 16 -136 7
-31 7 -76 -1 -145 -7 -54 -15 -129 -19 -165 -4 -36 -11 -70 -14 -76 -13 -21
-20 -459 -8 -495 6 -18 13 -122 15 -230 2 -108 6 -200 9 -205 3 -4 10 -57 17
-118 9 -85 16 -115 31 -131 15 -17 23 -45 31 -120 5 -55 10 -106 10 -114 1
-29 -13 -458 -21 -680 -11 -276 -6 -644 10 -845 14 -172 13 -299 -2 -401 -7
-43 -9 -135 -5 -240 4 -93 9 -274 12 -403 4 -181 8 -239 20 -256 8 -12 16 -54
18 -96 2 -41 7 -108 11 -149 6 -65 4 -83 -15 -130 -22 -54 -22 -58 -14 -390 9
-369 8 -437 -7 -493 -7 -26 -6 -63 2 -118 6 -45 9 -103 6 -130 -3 -27 -2 -113
3 -191 7 -98 7 -168 -1 -223 -6 -44 -12 -136 -14 -205 -5 -158 -24 -259 -71
-361 -39 -87 -41 -128 -9 -189 14 -28 38 -150 30 -158 -2 -2 -25 3 -52 11
-171 53 -469 84 -628 66 -38 -4 -109 -8 -156 -8 -104 -1 -114 -9 -114 -90 1
-44 7 -68 28 -104 15 -26 32 -47 37 -47 5 0 30 11 56 25 53 28 132 34 174 12
27 -14 146 -8 234 12 28 6 55 7 63 2 9 -5 24 -6 35 -3 11 3 24 -3 32 -14 12
-16 17 -17 41 -6 14 7 30 10 35 7 5 -3 11 -1 15 5 3 5 14 10 22 10 30 0 -12
-32 -129 -97 -38 -20 -68 -43 -68 -50 0 -18 19 -16 61 6 45 24 67 27 103 12
20 -8 31 -8 36 -2 3 6 22 14 40 18 32 6 34 5 21 -10 -7 -9 -20 -17 -27 -17 -8
0 -14 -4 -14 -10 0 -14 42 -12 130 7 41 9 96 16 123 16 33 0 47 4 47 13 0 17
12 18 27 3 16 -16 43 -4 43 20 0 20 43 41 84 41 12 0 46 9 76 19 61 22 58 14
45 131 -7 64 -7 65 11 40 10 -14 21 -27 24 -30 4 -3 11 -14 17 -24 10 -17 20
-21 71 -28 6 -1 12 -8 12 -16 0 -10 6 -12 20 -8 11 3 29 9 40 12 12 4 20 2 20
-5 0 -6 -6 -13 -12 -15 -51 -13 -73 -23 -74 -31 -6 -38 -18 -55 -35 -50 -15 5
-17 3 -12 -11 5 -14 15 -15 82 -8 42 5 102 8 134 7 31 0 57 3 57 8 0 5 7 9 15
9 8 0 15 -6 15 -14 0 -15 24 -28 34 -19 19 19 196 2 196 -19 0 -4 -6 -8 -14
-8 -8 0 -16 -6 -19 -13 -4 -11 16 -17 85 -25 50 -6 95 -9 100 -6 17 11 78 6
93 -6 12 -10 22 -9 49 4 21 10 60 16 103 16 51 0 79 6 108 21 55 29 141 33
167 7 15 -15 22 -16 39 -7 12 6 35 12 51 15 17 2 39 11 50 20 14 14 21 15 30
6 9 -9 5 -20 -19 -44 -25 -26 -30 -37 -22 -50 7 -12 7 -18 -1 -18 -16 0 -12
-47 5 -54 9 -3 15 0 15 9 0 8 9 15 20 15 18 0 19 -5 14 -63 -4 -34 -13 -93
-21 -132 -30 -155 -46 -287 -37 -312 9 -25 9 -25 162 -29 110 -3 160 -9 176
-19 14 -10 38 -13 76 -9 213 18 337 23 361 13 30 -12 175 -18 192 -7 24 15 58
322 44 402 -4 26 -6 51 -3 54 3 3 36 -8 73 -24 61 -26 79 -29 181 -29 78 0
115 -4 120 -12 5 -9 42 -12 117 -12 116 0 212 -10 335 -36 143 -31 388 -53
490 -44 159 12 202 47 166 133 -8 20 -16 36 -18 37 -2 0 -34 2 -73 5 -83 6
-102 19 -79 52 13 19 21 21 54 16 32 -5 41 -3 46 10 4 10 15 16 28 15 48 -6
93 61 51 77 -8 4 -15 10 -15 15 0 14 28 11 33 -3 3 -10 7 -10 19 0 9 7 17 38
21 78 4 37 11 71 16 78 5 6 7 57 5 116 -3 58 -4 119 -3 135 0 17 2 44 3 60 1
24 -3 30 -19 30 -13 0 -20 7 -20 20 0 11 7 20 15 20 8 0 16 8 18 18 2 9 -1 17
-7 17 -6 0 -11 -4 -11 -8 0 -15 -51 -12 -57 4 -8 22 15 34 45 23 37 -14 44 4
38 90 -2 40 0 85 5 99 6 15 6 29 1 34 -5 5 -4 32 4 64 11 48 16 132 15 254 0
19 3 37 8 40 14 10 7 100 -9 110 -28 17 -55 -30 -31 -56 14 -15 22 -62 11 -69
-6 -4 -20 -27 -31 -51 -17 -35 -19 -47 -9 -59 18 -21 4 -47 -22 -43 -20 3 -23
9 -23 48 0 65 -12 90 -41 90 -13 0 -24 4 -24 10 0 13 32 28 49 22 10 -3 12 0
7 13 -4 11 0 25 10 36 9 10 17 30 17 44 0 14 3 28 8 31 14 8 10 58 -6 80 -20
27 -19 51 4 64 11 5 21 20 23 32 2 16 11 24 28 26 43 7 75 73 58 121 -6 17 -4
27 9 36 14 10 17 32 20 116 3 138 -5 199 -26 206 -9 4 -29 15 -44 26 -19 13
-36 17 -54 12 -14 -3 -65 -8 -113 -10 -48 -3 -98 -9 -111 -13 -42 -16 -221
-24 -305 -13 -63 8 -99 7 -163 -4 -46 -8 -87 -12 -92 -9 -13 8 -289 8 -296 0
-11 -11 -40 -6 -53 9 -20 24 -69 19 -81 -9 -7 -15 -23 -26 -41 -30 -53 -10
-122 -6 -142 9 -11 8 -29 15 -41 15 -12 0 -26 5 -33 12 -7 7 -40 12 -77 12
-54 0 -69 -4 -90 -24 -30 -28 -54 -16 -36 18 6 11 11 41 11 66 0 26 7 88 15
139 8 50 21 173 30 272 21 252 34 365 44 400 15 48 25 173 22 271 -2 65 2 105
15 144 13 41 15 59 7 81 -7 18 -8 41 -3 61 28 103 43 265 49 533 5 160 4 298
-1 307 -4 9 -30 27 -56 39 -47 21 -98 28 -222 31 -129 2 -283 0 -400 -4 l-85
-3 -5 -40 c-3 -22 -14 -52 -23 -66 -17 -25 -16 -36 3 -84 23 -59 29 -104 21
-160 -18 -118 -23 -270 -11 -355 7 -51 12 -212 11 -405 0 -200 4 -347 11 -392
11 -68 10 -75 -10 -111 -19 -35 -21 -54 -23 -236 -1 -134 2 -201 10 -209 16
-16 14 -37 -9 -79 -36 -67 -69 -340 -70 -568 0 -85 -6 -186 -12 -225 -6 -38
-10 -121 -9 -182 2 -77 -3 -136 -14 -189 -11 -47 -15 -91 -11 -116 4 -27 3
-44 -5 -48 -11 -8 -39 -195 -59 -405 -6 -66 -13 -130 -15 -141 -6 -25 -26 -30
-189 -44 -105 -10 -113 -9 -235 22 -114 28 -168 35 -298 37 l-42 1 -3 88 c-5
105 -43 211 -105 289 -22 28 -46 72 -53 97 -14 52 -9 181 9 215 8 14 8 74 0
213 -10 185 -11 194 -34 213 -24 19 -25 25 -27 165 -2 140 -2 191 -1 365 0 44
8 118 16 165 9 47 17 110 18 140 5 105 -13 286 -37 388 -13 57 -24 121 -24
142 0 67 -30 273 -42 287 -22 27 -28 -5 -30 -160 -1 -103 -5 -156 -12 -154
-21 7 -34 84 -47 297 -7 113 -16 185 -30 229 -17 55 -19 81 -14 170 3 58 13
124 21 147 8 23 19 116 25 225 13 232 13 207 1 509 -6 140 -14 363 -18 495 -3
132 -9 296 -11 365 -7 198 -4 438 8 660 6 113 11 234 11 270 0 100 -18 258
-37 331 -18 65 -18 66 3 111 21 42 22 58 22 314 1 148 5 316 11 374 5 58 12
199 14 314 4 172 8 222 26 283 16 58 21 104 21 202 0 69 4 158 9 196 6 39 12
126 14 195 5 162 21 290 44 350 10 26 52 88 92 136 77 92 133 174 170 247 12
23 35 61 50 84 16 23 29 46 29 52 0 8 -106 11 -344 11 l-344 0 -6 -24 c-3 -14
-2 -36 4 -51 13 -33 3 -78 -16 -71 -9 3 -34 -20 -66 -60 -29 -35 -62 -67 -75
-70 -37 -10 -143 4 -169 21 -25 16 -33 58 -13 70 9 6 89 167 89 180 0 3 -171
5 -380 5 l-379 0 26 -67z m1012 -167 c16 -65 14 -76 -13 -76 -34 0 -46 51 -26
105 13 34 25 25 39 -29z m239 -258 c-2 -6 -13 -16 -23 -22 -11 -6 -31 -19 -44
-28 -23 -17 -91 -25 -104 -12 -11 12 12 41 40 52 55 22 137 28 131 10z m-168
-1888 c0 -5 -5 -10 -11 -10 -5 0 -7 5 -4 10 3 6 8 10 11 10 2 0 4 -4 4 -10z
m-63 -192 c-3 -8 -6 -5 -6 6 -1 11 2 17 5 13 3 -3 4 -12 1 -19z m117 -498 c35
-13 33 -26 -5 -39 -36 -12 -49 -7 -49 18 0 32 13 37 54 21z m-522 -3144 c4
-112 -2 -151 -22 -151 -12 0 -15 18 -13 108 2 113 6 137 22 137 5 0 11 -42 13
-94z m3778 -1336 c0 -5 -7 -10 -15 -10 -8 0 -15 5 -15 10 0 6 7 10 15 10 8 0
15 -4 15 -10z m-95 -49 c-5 -22 -2 -32 12 -39 17 -10 17 -11 -1 -31 -11 -12
-16 -29 -13 -41 3 -14 0 -23 -10 -27 -18 -7 -35 15 -29 40 3 14 -3 17 -30 17
-40 0 -40 3 -14 55 23 44 35 55 68 55 21 0 23 -3 17 -29z m-449 -168 c4 -10 6
-24 5 -31 -1 -8 3 -19 9 -27 17 -20 -4 -28 -57 -20 -42 6 -45 5 -41 -13 5 -19
3 -20 -21 -9 -14 6 -35 18 -46 27 -11 10 -28 20 -38 24 -10 3 -17 11 -15 18 7
20 26 20 46 -2 22 -24 61 -18 41 6 -18 22 -4 28 33 15 29 -11 35 -10 47 9 17
25 27 25 37 3z m444 -48 c0 -14 0 -28 0 -32 0 -5 -10 -9 -24 -10 -23 -2 -23 0
-13 33 12 40 37 46 37 9z m-80 -50 c10 -12 10 -15 -4 -15 -9 0 -16 7 -16 15 0
8 2 15 4 15 2 0 9 -7 16 -15z m-390 -24 c0 -6 -4 -13 -10 -16 -5 -3 -10 1 -10
9 0 9 5 16 10 16 6 0 10 -4 10 -9z m-102 -24 c16 -13 -3 -37 -29 -37 -19 0
-24 16 -13 44 6 15 15 14 42 -7z m-708 -107 c0 -5 -2 -10 -4 -10 -3 0 -8 5
-11 10 -3 6 -1 10 4 10 6 0 11 -4 11 -10z m615 -10 c3 -6 -1 -13 -10 -16 -19
-8 -30 0 -20 15 8 14 22 14 30 1z m75 -5 c0 -8 -7 -15 -15 -15 -16 0 -20 12
-8 23 11 12 23 8 23 -8z m431 -152 c13 -15 12 -15 -8 -4 -24 12 -29 21 -14 21
5 0 15 -7 22 -17z m-461 -85 c0 -29 -8 -40 -42 -57 -16 -8 -28 -18 -28 -23 0
-4 -7 -8 -15 -8 -11 0 -15 11 -15 40 0 35 4 42 33 54 48 22 67 20 67 -6z
m-132 -86 c2 -7 -6 -12 -17 -12 -21 0 -27 11 -14 24 9 9 26 2 31 -12z m30 -61
c3 -8 -1 -12 -9 -9 -7 2 -15 10 -17 17 -3 8 1 12 9 9 7 -2 15 -10 17 -17z
m1237 -52 c-8 -12 -35 -12 -35 0 0 11 22 20 33 14 4 -2 5 -9 2 -14z m-1276
-25 c10 -23 9 -25 -11 -22 -15 2 -24 11 -26 26 -5 31 22 29 37 -4z m81 6 c0
-5 -6 -10 -14 -10 -8 0 -18 5 -21 10 -3 6 3 10 14 10 12 0 21 -4 21 -10z m534
-89 c3 -5 -1 -14 -8 -20 -16 -13 -32 2 -21 19 8 12 22 13 29 1z m-597 -77 c8
-21 -13 -42 -28 -27 -13 13 -5 43 11 43 6 0 13 -7 17 -16z m-2533 -73 c16 -14
22 -71 8 -71 -5 0 -7 -13 -4 -29 6 -39 -12 -46 -34 -13 -19 27 -27 102 -12
102 5 0 6 19 3 43 l-5 42 14 -31 c8 -17 22 -36 30 -43z m2236 59 c0 -5 -7 -10
-15 -10 -8 0 -15 5 -15 10 0 6 7 10 15 10 8 0 15 -4 15 -10z m255 -56 c17 -13
18 -16 5 -24 -23 -15 -47 -12 -54 7 -4 9 -1 20 6 25 17 10 20 10 43 -8z m-293
-16 c-9 -9 -15 -9 -24 0 -9 9 -7 12 12 12 19 0 21 -3 12 -12z m-24 -44 c14 -9
36 -14 53 -12 34 5 35 -12 1 -27 -12 -5 -22 -19 -24 -30 -2 -12 -12 -21 -24
-23 -18 -3 -22 4 -28 37 -8 51 -28 53 -58 6 -26 -39 -27 -40 -52 -22 -17 12
-17 15 6 50 20 32 28 36 63 37 22 0 51 -7 63 -16z m-33 -65 c0 -7 -8 -15 -17
-17 -18 -3 -25 18 -11 32 10 10 28 1 28 -15z m115 -18 c0 -12 -20 -25 -27 -18
-7 7 6 27 18 27 5 0 9 -4 9 -9z m-2496 -17 c3 -8 2 -12 -4 -9 -6 3 -10 10 -10
16 0 14 7 11 14 -7z m3032 -32 c-6 -5 -36 23 -36 34 0 4 9 -1 20 -11 11 -10
18 -20 16 -23z m-487 -5 c13 -16 5 -27 -21 -27 -18 0 -25 20 -11 33 10 10 19
8 32 -6z m-2485 -91 c19 -58 21 -85 6 -70 -13 13 -50 113 -50 134 0 27 26 -11
44 -64z m2319 49 c42 -20 47 -37 15 -60 -23 -15 -23 -15 8 -9 25 5 32 2 38
-13 3 -10 9 -24 12 -31 4 -8 -6 -16 -25 -23 -29 -10 -43 -29 -21 -29 6 0 10
-7 10 -16 0 -11 -8 -14 -27 -12 -20 2 -27 8 -25 20 2 11 -5 18 -20 20 -26 3
-38 38 -14 38 19 0 23 6 31 53 5 26 4 37 -5 37 -8 0 -10 -8 -7 -21 4 -15 1
-19 -11 -17 -12 2 -17 14 -18 38 -2 37 3 53 14 46 4 -2 24 -11 45 -21z m87 7
c0 -13 -12 -22 -22 -16 -10 6 -1 24 13 24 5 0 9 -4 9 -8z m240 -12 c0 -5 -4
-10 -10 -10 -5 0 -10 5 -10 10 0 6 5 10 10 10 6 0 10 -4 10 -10z m1358 -17
c-2 -10 -10 -18 -18 -18 -8 0 -16 8 -18 18 -2 12 3 17 18 17 15 0 20 -5 18
-17z m-3338 -13 c0 -5 -2 -10 -4 -10 -3 0 -8 5 -11 10 -3 6 -1 10 4 10 6 0 11
-4 11 -10z m1788 -7 c16 -31 23 -73 12 -73 -5 0 -10 7 -10 15 0 8 -3 15 -7 15
-20 1 -43 29 -37 44 8 21 31 20 42 -1z m-1794 -58 c-16 -25 -42 -36 -28 -12
14 23 27 37 35 37 5 0 2 -11 -7 -25z m3331 -72 c-12 -18 -20 -22 -28 -14 -7 7
-7 14 2 25 7 8 12 23 11 33 -4 35 1 38 16 10 14 -26 14 -31 -1 -54z m-1238 41
c-3 -3 -12 -4 -19 -1 -8 3 -5 6 6 6 11 1 17 -2 13 -5z m-2457 -38 c0 -19 -4
-22 -25 -18 -30 5 -31 10 -7 28 25 19 32 17 32 -10z m2594 -74 c5 -15 19 -18
83 -19 128 -3 195 -19 151 -36 -27 -10 26 -37 60 -32 24 4 34 2 38 -10 3 -8
18 -15 33 -15 81 -1 173 -77 111 -93 -13 -3 -18 -10 -14 -21 11 -27 -26 -31
-90 -8 -34 12 -95 24 -136 28 -41 3 -83 11 -94 16 -26 14 -455 9 -503 -6 -26
-8 -41 5 -45 38 -2 21 -13 34 -43 50 -22 13 -41 30 -43 38 -3 14 3 15 35 7 44
-10 73 -4 73 17 0 8 9 14 20 14 11 0 20 6 20 14 0 19 112 31 141 15 17 -9 24
-8 37 4 11 12 19 13 31 5 13 -8 27 -5 57 10 42 22 68 16 78 -16z m-484 25 c0
-17 -35 -67 -46 -67 -19 0 -18 30 4 51 15 16 42 25 42 16z m-110 -52 c-12 -15
-40 -21 -40 -8 0 3 8 15 17 25 21 23 43 7 23 -17z m180 0 c0 -8 -6 -15 -14
-15 -8 0 -21 -3 -30 -6 -11 -4 -16 -1 -16 11 0 12 5 15 20 10 11 -4 20 -2 20
4 0 6 5 11 10 11 6 0 10 -7 10 -15z m-125 -55 c4 -6 -5 -10 -19 -10 -14 0 -26
5 -26 10 0 6 9 10 19 10 11 0 23 -4 26 -10z m1363 -182 c21 -21 14 -38 -16
-38 -30 0 -52 16 -52 37 0 16 52 17 68 1z m169 -74 c-3 -3 -12 -4 -19 -1 -8 3
-5 6 6 6 11 1 17 -2 13 -5z"/>
<path d="M5545 2741 c3 -6 13 -11 21 -11 8 0 19 -11 24 -25 5 -14 14 -25 19
-25 13 0 25 40 14 50 -14 13 -86 23 -78 11z"/>
<path d="M5665 2740 c-3 -5 1 -10 10 -10 9 0 13 5 10 10 -3 6 -8 10 -10 10 -2
0 -7 -4 -10 -10z"/>
<path d="M5021 11922 c-5 -75 -6 -351 -2 -422 1 -19 -2 -134 -8 -255 -5 -121
-12 -287 -16 -370 -6 -168 -9 -207 -25 -420 -7 -82 -13 -166 -14 -185 -2 -19
-11 -102 -21 -183 -9 -81 -15 -160 -12 -175 3 -15 -1 -47 -9 -72 -7 -25 -18
-88 -23 -140 -5 -52 -17 -124 -25 -160 -29 -119 -52 -398 -61 -723 -4 -138 -7
-160 -25 -185 -11 -15 -25 -52 -30 -82 -6 -30 -14 -73 -20 -95 -5 -22 -18 -78
-30 -125 -22 -91 -19 -147 7 -157 14 -6 14 -8 -2 -19 -14 -11 -16 -26 -13
-108 3 -83 6 -98 26 -116 12 -11 22 -29 22 -39 0 -22 19 -31 65 -31 19 0 36
-4 39 -9 3 -5 41 -12 83 -16 43 -4 96 -14 118 -23 22 -8 63 -16 90 -16 28 -1
52 -5 54 -11 10 -23 -188 -28 -284 -8 -22 5 -71 6 -108 3 -69 -5 -69 -5 -82
-42 -7 -22 -9 -40 -3 -46 12 -12 6 -94 -7 -99 -10 -3 -19 76 -17 162 0 32 -5
44 -26 60 -25 19 -43 20 -255 20 -216 0 -229 -1 -243 -20 -8 -11 -11 -26 -7
-35 4 -8 6 -35 5 -60 -1 -25 -3 -114 -4 -199 -3 -166 1 -154 -58 -181 -8 -4
-26 -40 -39 -80 -22 -66 -23 -76 -11 -126 12 -47 11 -56 -4 -79 -14 -22 -16
-42 -12 -113 10 -164 17 -210 32 -216 9 -4 43 16 83 49 45 36 77 55 95 55 15
0 43 8 64 19 20 10 53 21 72 25 20 3 71 20 114 36 59 23 82 28 96 20 24 -13
60 7 60 33 0 10 9 30 20 45 17 24 20 43 20 157 1 72 0 139 0 150 -1 17 5 111
9 138 0 5 5 6 10 3 5 -3 9 -38 9 -78 1 -40 9 -102 18 -137 9 -37 13 -77 9 -95
-13 -59 -8 -87 17 -113 25 -24 26 -24 57 -9 22 12 37 14 49 7 12 -6 58 -6 127
0 176 16 275 18 344 7 53 -9 70 -8 95 5 17 8 39 18 49 21 10 3 17 15 17 30 0
14 9 48 20 76 11 28 20 67 21 88 0 29 2 33 8 17 11 -25 1 -257 -10 -270 -24
-26 8 -105 43 -105 12 0 38 11 58 25 36 25 163 51 184 37 44 -28 414 11 513
54 60 27 79 9 52 -49 -16 -36 4 -66 98 -146 65 -55 121 -89 270 -163 103 -52
213 -104 243 -118 98 -42 386 -186 417 -208 53 -37 308 -137 582 -226 l156
-51 3 -34 c2 -18 -1 -38 -7 -44 -6 -6 -11 -21 -11 -33 0 -12 -6 -24 -12 -27
-10 -3 -10 -7 1 -20 7 -9 11 -28 8 -43 -3 -18 1 -29 14 -37 11 -7 19 -20 19
-29 0 -10 5 -18 11 -18 8 0 10 -19 6 -57 -4 -47 -1 -66 17 -98 12 -22 21 -47
20 -55 -2 -34 -25 -98 -39 -110 -8 -7 -15 -23 -15 -36 0 -12 -4 -26 -10 -29
-5 -3 -10 -19 -10 -35 0 -16 -4 -31 -9 -34 -5 -3 -12 -35 -16 -71 -4 -43 -11
-65 -20 -65 -7 0 -15 -13 -18 -30 -4 -16 -12 -30 -19 -30 -9 0 -12 -16 -11
-52 5 -128 4 -161 -6 -167 -6 -4 -11 -38 -11 -77 0 -38 0 -116 0 -173 0 -57 3
-107 6 -112 5 -8 5 -334 0 -449 -3 -78 -25 -221 -36 -235 -4 -5 -6 -43 -4 -84
1 -41 0 -80 -4 -85 -3 -6 -7 -36 -7 -66 0 -30 -5 -62 -10 -70 -5 -8 -11 -28
-12 -45 -2 -28 -10 -351 -12 -490 0 -33 -5 -94 -10 -135 -5 -41 -6 -81 -1 -89
4 -8 4 -26 -2 -40 -9 -24 -23 -328 -23 -501 1 -215 96 -556 181 -647 33 -35
84 -109 84 -121 0 -5 11 -14 25 -20 24 -11 67 -70 93 -127 20 -43 73 -194 82
-235 5 -19 15 -64 23 -100 9 -36 25 -85 36 -110 20 -45 28 -110 13 -110 -9 0
-7 -28 10 -175 6 -55 15 -108 20 -118 17 -33 18 -130 2 -148 -13 -15 -13 -17
5 -22 28 -7 41 -76 17 -89 -9 -5 -14 -14 -11 -19 4 -5 11 -7 16 -4 5 4 9 -3 9
-14 0 -10 -4 -21 -9 -23 -6 -2 -6 -21 -1 -48 5 -26 4 -52 -1 -62 -14 -26 -11
-38 11 -38 11 0 20 -4 20 -10 0 -7 755 -10 2245 -10 1235 0 2245 3 2245 8 0
10 -38 42 -50 42 -14 0 -13 10 11 151 11 68 36 173 55 232 19 59 41 151 50
205 29 184 46 275 55 300 6 14 19 77 29 139 19 107 29 141 83 268 33 78 70
124 164 205 84 73 156 166 189 245 8 19 21 96 29 171 9 75 17 140 20 144 6 10
19 130 17 165 -1 17 -4 136 -7 265 -4 129 -10 267 -14 305 -5 39 -5 77 -1 85
4 8 2 51 -5 95 -7 44 -9 89 -6 100 4 11 6 31 5 45 -2 14 -5 105 -8 203 -2 98
-9 184 -14 190 -5 7 -9 57 -10 112 -1 55 -9 154 -18 219 -15 120 -21 473 -17
1026 2 248 1 275 -17 355 -6 28 -15 77 -21 110 -5 33 -11 65 -13 70 -2 6 1 20
5 33 5 14 5 22 -2 22 -11 0 -5 47 18 128 13 48 13 55 0 65 -13 10 -16 47 -18
216 l-3 205 25 18 c32 24 503 179 507 167 2 -5 15 -9 29 -9 35 0 85 -26 106
-55 10 -14 22 -51 28 -82 6 -32 15 -62 19 -68 5 -5 16 -48 24 -95 9 -46 21
-89 26 -94 6 -6 10 -18 10 -28 0 -10 5 -18 11 -18 5 0 9 -8 8 -17 -5 -37 14
-128 29 -139 12 -9 18 -39 24 -115 4 -57 10 -120 12 -139 2 -19 1 -55 -4 -80
-5 -24 -6 -49 -2 -54 9 -15 3 -207 -12 -374 -2 -23 -9 -48 -15 -56 -9 -10 -7
-17 5 -27 19 -15 12 -63 -12 -90 -9 -10 -13 -23 -9 -29 4 -6 1 -18 -6 -27 -11
-12 -11 -17 2 -27 19 -14 31 -44 20 -48 -5 -2 -5 -25 -1 -52 8 -52 3 -86 -12
-86 -5 0 -5 -7 0 -17 18 -35 25 -104 12 -128 -10 -19 -10 -27 4 -46 9 -13 16
-35 16 -48 0 -23 -1 -24 -13 -6 -8 10 -19 15 -25 11 -14 -8 -16 -46 -3 -46 5
0 16 -12 26 -26 16 -24 16 -27 -7 -60 -13 -18 -27 -34 -32 -34 -5 0 -4 -6 2
-12 6 -7 10 -24 10 -38 -1 -14 2 -53 5 -87 5 -49 4 -62 -8 -67 -8 -3 -15 -12
-15 -21 0 -8 -6 -24 -12 -36 -11 -17 -10 -22 4 -30 16 -9 16 -13 4 -43 -12
-28 -12 -34 2 -42 11 -7 12 -15 5 -29 -20 -39 -34 -95 -28 -114 4 -13 0 -23
-12 -30 -17 -9 -17 -10 1 -24 15 -11 17 -20 11 -43 -10 -38 -6 -87 8 -96 8 -5
6 -12 -8 -22 -19 -14 -19 -15 -2 -21 13 -6 15 -11 7 -21 -8 -9 -8 -18 -1 -33
8 -14 8 -22 0 -26 -6 -4 -8 -14 -5 -22 3 -8 -1 -27 -9 -42 -9 -18 -11 -31 -4
-38 10 -10 2 -43 -11 -43 -15 0 -35 -73 -21 -78 7 -2 11 -30 11 -72 0 -38 4
-71 10 -75 6 -3 6 -15 0 -29 -5 -13 -7 -41 -5 -62 2 -21 -1 -44 -7 -51 -6 -7
-7 -13 -3 -13 4 0 0 -11 -9 -25 -9 -13 -16 -33 -16 -44 0 -11 -5 -23 -11 -27
-6 -3 -9 -19 -5 -34 5 -30 -14 -79 -39 -100 -30 -25 9 -250 43 -250 19 0 35
-60 29 -105 -5 -31 -3 -45 5 -45 9 0 9 -3 0 -12 -7 -7 -12 -22 -12 -35 0 -18
-6 -23 -26 -23 -16 0 -24 -5 -21 -12 2 -7 13 -12 25 -10 24 4 39 -19 44 -68 3
-31 0 -35 -23 -38 -24 -3 -26 -5 -15 -27 6 -14 17 -25 24 -25 6 0 12 -7 12
-16 0 -11 -6 -15 -20 -11 -16 4 -20 0 -20 -19 0 -13 -4 -24 -8 -24 -5 0 -9
-13 -10 -30 0 -23 4 -30 19 -30 10 0 19 -4 19 -10 0 -5 -17 -10 -37 -10 -28 0
-34 -3 -23 -10 8 -5 16 -22 16 -37 2 -27 21 -85 37 -110 5 -7 22 -13 39 -13
24 0 28 3 20 13 -8 9 -8 25 -2 48 5 19 8 63 8 99 -1 36 2 71 6 78 4 7 4 18 -1
25 -4 6 -8 38 -9 70 -2 44 1 60 12 64 8 3 13 12 10 20 -3 8 -1 11 4 8 5 -3 16
10 24 30 8 19 20 35 26 35 7 0 7 -6 -1 -21 -8 -17 -8 -23 2 -30 7 -4 16 -6 20
-3 4 2 10 0 13 -5 4 -5 2 -12 -4 -16 -13 -8 -13 -35 0 -35 6 0 10 6 10 14 0 8
5 16 12 18 9 3 8 12 0 38 -7 18 -15 65 -17 104 -3 39 -11 103 -17 142 -16 111
2 395 72 1089 24 243 29 316 35 510 8 279 7 276 61 230 40 -35 62 -39 143 -25
55 9 77 18 104 43 18 18 62 55 96 82 92 73 119 104 138 155 9 25 26 56 38 70
17 18 24 44 29 95 14 145 21 155 122 155 70 0 88 -26 86 -124 0 -38 3 -76 8
-85 5 -10 4 -33 -3 -58 -9 -35 -8 -45 7 -68 10 -16 23 -24 32 -21 18 7 18 -8
-1 -24 -14 -12 -16 -26 -16 -119 1 -24 -4 -49 -9 -56 -5 -6 -8 -49 -5 -95 4
-75 1 -91 -22 -142 -26 -58 -26 -59 -10 -121 31 -123 43 -223 61 -489 3 -48
14 -119 24 -157 11 -38 16 -75 11 -83 -4 -7 -3 -37 2 -67 4 -30 5 -61 0 -69
-4 -8 -4 -33 2 -56 5 -22 10 -72 11 -111 1 -38 5 -75 9 -82 8 -13 239 -17 270
-5 10 4 23 19 30 32 8 17 24 27 47 31 54 9 92 33 130 84 19 26 46 59 60 74 29
32 40 93 25 141 -7 19 -15 71 -19 115 -4 44 -12 85 -18 93 -6 7 -13 41 -14 75
-5 127 -10 163 -27 196 -12 24 -14 38 -6 52 5 11 7 24 4 30 -8 13 -26 170 -31
274 -3 73 -10 125 -22 165 -2 8 -5 26 -6 40 -1 14 -8 37 -16 52 -10 22 -10 31
-1 42 12 14 11 18 -18 74 -10 20 -9 26 10 41 27 22 21 61 -13 76 -13 6 -25 19
-27 30 -3 19 -1 18 22 -4 l26 -24 7 27 c4 17 1 35 -10 50 -13 21 -13 26 -1 36
10 9 11 18 4 38 -5 14 -9 35 -8 46 3 42 -1 56 -21 66 -14 7 -26 8 -39 0 -16
-8 -25 -5 -48 16 l-28 26 27 -7 c55 -14 86 33 57 86 -8 16 -13 18 -24 9 -8 -7
-20 -8 -27 -3 -7 4 -44 8 -82 8 -50 0 -71 4 -74 14 -3 10 2 13 22 9 14 -3 26
-1 26 3 0 14 -34 11 -66 -6 -44 -21 -100 -20 -184 3 -87 25 -120 27 -168 10
-30 -11 -35 -11 -48 7 -8 10 -14 27 -14 37 0 44 -82 115 -151 131 -34 9 -40
25 -27 78 12 44 -3 364 -22 473 -5 28 -11 96 -14 151 -3 56 -17 142 -31 195
-13 52 -29 142 -35 200 -6 58 -15 130 -20 161 -6 30 -10 68 -10 83 0 20 -4 27
-17 24 -22 -4 -39 -92 -48 -238 -4 -58 -15 -143 -26 -190 -11 -47 -27 -112
-34 -145 -8 -33 -14 -80 -15 -105 0 -47 -26 -191 -41 -225 -18 -43 -38 -142
-38 -190 0 -27 -1 -57 -2 -65 -7 -49 2 -66 46 -90 25 -14 52 -35 60 -46 8 -13
24 -21 39 -21 31 0 136 -70 136 -90 0 -8 -12 -24 -27 -37 -17 -15 -24 -28 -20
-40 6 -15 9 -15 36 -1 44 22 150 20 179 -5 15 -12 22 -28 20 -42 -3 -21 -10
-24 -72 -30 -56 -5 -73 -11 -87 -29 -15 -20 -19 -21 -34 -9 -16 13 -70 15
-107 4 -16 -5 -16 -3 -1 28 9 18 25 41 37 50 20 16 20 17 3 24 -26 10 -65 -11
-72 -39 -4 -16 -18 -28 -41 -35 -19 -5 -36 -7 -39 -2 -3 4 -34 14 -70 21 -36
7 -70 18 -75 24 -13 15 -19 96 -25 330 -15 558 -14 552 -76 793 -31 122 -40
178 -45 286 l-7 134 70 35 c38 20 121 64 184 99 63 35 141 75 174 88 33 13
138 63 233 112 96 48 183 88 193 88 11 0 32 6 47 14 16 8 66 17 112 20 47 3
100 8 119 12 26 5 36 3 43 -10 9 -16 62 -21 105 -10 24 7 43 54 43 107 0 15 9
40 19 55 51 71 91 521 55 618 -20 57 -47 80 -76 67 -25 -11 -83 3 -212 51 -38
15 -94 29 -124 33 l-54 6 -43 88 c-37 76 -44 100 -50 176 -5 66 -2 104 10 153
10 42 18 129 21 245 6 218 17 346 43 485 83 450 80 421 96 775 5 116 13 171
46 325 42 194 73 416 89 640 6 80 15 181 20 225 8 75 26 279 34 390 2 28 14
115 26 195 25 171 31 466 10 568 l-13 62 -963 0 c-875 0 -964 -1 -964 -16 0
-9 9 -18 20 -21 29 -8 25 -17 -12 -28 -47 -15 -58 -39 -27 -64 20 -17 22 -23
12 -39 -10 -16 -9 -23 2 -32 24 -20 17 -29 -25 -36 -46 -7 -48 -12 -20 -46 16
-22 18 -30 8 -61 -9 -30 -16 -37 -36 -37 -21 0 -24 -4 -19 -26 7 -38 -31 -93
-64 -94 -23 0 -26 -3 -21 -26 8 -44 -45 -62 -63 -22 -11 23 -35 37 -35 19 0
-6 9 -19 20 -28 11 -10 20 -30 20 -45 0 -32 -14 -37 -29 -11 -5 10 -15 18 -23
19 -56 4 -55 3 -23 30 17 13 23 22 14 19 -8 -3 -23 3 -33 14 -18 20 -18 21 3
56 11 20 21 49 21 65 0 16 7 36 16 45 12 12 13 19 5 29 -9 10 -7 19 8 37 14
18 16 27 8 40 -8 13 -8 24 0 42 9 20 8 28 -5 40 -15 15 -14 19 8 42 22 24 23
26 6 38 -16 11 -16 17 -6 34 17 27 7 55 -17 46 -21 -8 -43 -35 -37 -44 2 -4
-8 -14 -22 -24 -25 -16 -25 -17 -7 -37 17 -19 17 -20 -2 -34 -10 -8 -25 -14
-32 -14 -7 0 -13 -6 -13 -14 0 -8 -14 -26 -31 -41 -30 -24 -31 -28 -18 -52 7
-14 24 -29 36 -34 30 -11 30 -29 1 -26 -20 2 -23 -3 -26 -35 -3 -32 -7 -38
-27 -38 -29 0 -43 -18 -21 -26 24 -9 19 -23 -10 -34 -22 -9 -25 -14 -19 -38 4
-15 6 -40 6 -55 0 -22 3 -27 15 -23 18 7 54 -14 54 -31 0 -9 -15 -11 -57 -7
-32 4 -72 6 -89 6 -26 0 -32 5 -43 35 -11 31 -11 37 6 52 16 15 18 32 16 152
-2 74 -5 179 -9 234 -3 55 -5 110 -5 123 l1 22 -449 0 -448 0 -13 -57 c-7 -32
-19 -83 -26 -113 -26 -100 -31 -174 -19 -267 7 -48 17 -101 24 -116 15 -39 14
-77 -4 -83 -20 -8 -55 16 -124 83 -76 75 -90 83 -132 83 -42 0 -51 11 -86 100
-30 76 -51 153 -63 235 -5 39 -12 85 -15 103 l-6 32 -297 -1 c-163 0 -291 -3
-284 -6 6 -2 12 -9 12 -15 0 -6 -7 -7 -16 -4 -10 4 -14 1 -12 -6 3 -7 17 -14
32 -16 23 -3 27 -7 22 -26 -4 -16 1 -24 17 -31 16 -7 21 -18 20 -38 -1 -22 2
-27 22 -27 34 0 94 30 100 51 3 9 13 19 23 22 9 3 25 8 35 12 25 10 21 -10 -5
-22 -12 -5 -18 -12 -12 -15 16 -10 56 11 61 32 8 30 39 24 57 -12 20 -38 20
-36 -4 -40 -32 -5 -8 -30 36 -37 33 -6 39 -10 37 -30 -2 -12 2 -31 7 -42 8
-15 7 -19 -4 -19 -26 0 -30 -22 -8 -40 16 -13 21 -32 25 -82 5 -78 8 -85 47
-93 21 -5 30 -13 30 -26 0 -12 7 -19 20 -19 22 0 27 -16 8 -23 -10 -3 -10 -9
-1 -25 13 -22 8 -52 -8 -52 -5 0 -9 -9 -9 -19 0 -11 -9 -23 -20 -26 -22 -7
-28 -35 -7 -35 7 0 18 5 25 12 9 9 15 9 24 0 9 -9 8 -12 -5 -12 -9 0 -17 -5
-17 -11 0 -33 -158 -134 -244 -155 -28 -6 -85 -23 -126 -37 -118 -40 -170 -47
-336 -47 -239 0 -410 45 -689 180 -176 85 -254 141 -285 206 -21 43 -22 51
-11 92 6 25 9 47 6 50 -10 10 -57 -43 -87 -101 -35 -64 -85 -112 -128 -120
-17 -4 -45 -27 -75 -61 -49 -58 -139 -123 -240 -173 -33 -16 -78 -41 -100 -55
-98 -61 -284 -160 -580 -306 -153 -76 -229 -115 -250 -132 -5 -4 -68 -38 -140
-75 -219 -114 -325 -175 -384 -217 -82 -61 -314 -287 -329 -322 -7 -16 -53
-100 -102 -185 -86 -150 -176 -349 -322 -716 -32 -82 -86 -215 -118 -295 -86
-212 -205 -517 -257 -660 -25 -69 -60 -163 -78 -210 -18 -47 -36 -96 -40 -110
-4 -14 -16 -45 -26 -70 -19 -45 -20 -45 -112 -73 -68 -21 -130 -31 -237 -38
-226 -17 -295 -15 -383 9 -43 12 -106 22 -143 22 -39 0 -77 6 -95 16 -25 12
-33 13 -46 3 -8 -7 -29 -13 -46 -13 l-32 -1 3 -107 c3 -76 -1 -123 -11 -160
-9 -29 -19 -66 -22 -83 -7 -30 -7 -30 -16 -7 -5 13 -7 28 -4 33 8 12 8 193 -1
261 -6 50 -12 62 -45 93 -34 30 -46 35 -88 35 -55 0 -101 14 -101 30 0 5 16
10 35 10 65 0 201 43 214 69 10 18 5 222 -14 511 -2 47 -7 198 -9 335 -6 302
-9 332 -38 387 -22 42 -23 53 -24 328 -2 157 -3 366 -4 465 -2 295 7 817 19
1015 19 326 31 651 29 805 -1 83 3 183 8 223 l10 72 -250 0 -251 0 -4 -78z
m8259 -127 c0 -8 -4 -15 -10 -15 -5 0 -10 7 -10 15 0 8 5 15 10 15 6 0 10 -7
10 -15z m-1597 -432 c3 -5 -5 -17 -16 -28 -18 -18 -19 -18 -14 -2 4 10 7 23 7
28 0 11 17 12 23 2z m2296 -1034 c15 -44 14 -54 -5 -39 -21 19 -36 49 -29 60
11 18 23 10 34 -21z m459 -218 c18 -27 32 -58 32 -70 0 -12 7 -38 15 -58 11
-25 15 -73 15 -170 0 -117 3 -144 25 -209 14 -41 25 -98 25 -126 0 -53 -18
-118 -32 -118 -15 0 -220 434 -220 465 1 26 9 207 11 242 1 18 71 93 85 93 7
0 27 -22 44 -49z m-3086 -532 c50 -13 84 -55 91 -117 3 -27 2 -63 -2 -78 -6
-24 -9 -16 -14 41 -7 89 -13 102 -51 123 -26 14 -63 17 -246 18 -118 1 -332 5
-475 9 -287 8 -456 7 -467 -3 -4 -4 -8 -27 -11 -52 -3 -43 -4 -42 -5 12 -1 37
2 58 11 62 20 9 1129 -5 1169 -15z m-1138 -160 c-7 -12 -44 2 -44 16 0 10 5
11 24 2 13 -7 22 -15 20 -18z m1017 -18 c25 -25 29 -37 29 -82 0 -62 -6 -62
-15 1 -4 24 -11 52 -16 62 -16 30 -82 40 -251 36 -87 -2 -161 0 -164 4 -3 4
83 8 191 8 l197 0 29 -29z m-961 9 c0 -5 -2 -10 -4 -10 -3 0 -8 5 -11 10 -3 6
-1 10 4 10 6 0 11 -4 11 -10z m30 0 c0 -5 -4 -10 -10 -10 -5 0 -10 5 -10 10 0
6 5 10 10 10 6 0 10 -4 10 -10z m60 -6 c0 -2 -12 -4 -26 -4 -14 0 -23 4 -20 9
6 8 46 4 46 -5z m250 6 c0 -5 -5 -10 -11 -10 -5 0 -7 5 -4 10 3 6 8 10 11 10
2 0 4 -4 4 -10z m138 3 c-16 -2 -40 -2 -55 0 -16 2 -3 4 27 4 30 0 43 -2 28
-4z m-305 -10 c-7 -2 -19 -2 -25 0 -7 3 -2 5 12 5 14 0 19 -2 13 -5z m70 0
c-7 -2 -21 -2 -30 0 -10 3 -4 5 12 5 17 0 24 -2 18 -5z m454 -44 c35 -17 63
-34 63 -39 0 -4 20 -30 45 -58 42 -47 45 -54 45 -106 0 -46 -3 -57 -21 -67
-15 -8 -102 -11 -288 -9 -362 4 -348 5 -357 -22 -8 -27 -6 -411 3 -448 7 -29
21 -40 39 -33 10 4 12 30 8 116 -11 211 -4 320 23 349 18 21 54 21 61 0 2 -7
-2 -10 -12 -6 -9 3 -16 1 -16 -5 0 -6 9 -11 20 -11 13 0 18 -5 14 -15 -7 -17
7 -20 22 -6 7 8 394 21 394 14 0 -2 -16 -10 -36 -18 -27 -11 -76 -15 -193 -15
-156 -1 -156 -1 -175 -26 -13 -18 -17 -36 -13 -59 5 -28 2 -35 -14 -40 -10 -4
-23 -14 -28 -23 -12 -24 -23 -101 -11 -83 7 12 10 9 15 -12 10 -38 25 -34 25
7 0 25 5 35 20 39 20 5 28 27 10 27 -13 0 -13 27 0 32 5 2 12 21 15 42 5 41
20 59 43 51 7 -3 69 0 138 6 128 11 167 8 147 -12 -8 -8 -7 -28 3 -67 7 -32
13 -73 14 -92 0 -20 4 -40 9 -45 5 -6 4 -35 -2 -68 l-11 -58 -42 7 c-40 6
-114 -17 -114 -36 0 -4 -11 -12 -25 -18 -14 -7 -22 -17 -19 -25 3 -8 -2 -20
-11 -27 -8 -7 -15 -18 -15 -24 0 -7 -20 -31 -44 -55 -43 -42 -43 -42 -112 -40
-37 1 -80 8 -95 16 -31 15 -79 84 -79 112 0 11 -4 23 -10 26 -5 3 -10 15 -10
26 0 10 -3 19 -8 19 -4 0 -5 -36 -1 -80 8 -112 25 -134 108 -138 67 -3 76 -22
10 -22 -48 0 -94 22 -110 53 -7 12 -18 82 -25 156 -12 133 -13 134 -47 168
-40 39 -63 111 -54 175 4 31 15 50 46 78 l41 38 0 112 c0 117 -13 140 -24 43
-11 -89 -18 -123 -25 -123 -4 0 -8 17 -9 38 0 20 -5 69 -9 107 -9 81 -17 66
-29 -54 -7 -74 -7 -74 -25 -50 -13 18 -16 35 -12 65 3 26 1 44 -6 48 -12 8
-17 -44 -13 -119 3 -48 -5 -85 -18 -85 -6 0 -10 25 -10 56 0 40 -3 55 -12 52
-22 -8 -8 -261 17 -328 14 -35 18 -92 23 -263 4 -211 5 -220 28 -246 34 -41
112 -55 237 -44 54 5 100 6 103 2 8 -14 -40 -21 -150 -22 -93 -1 -119 3 -158
20 -71 32 -75 45 -81 293 -4 155 -10 229 -21 266 -9 28 -16 80 -17 115 -4 158
-2 236 5 264 l8 30 13 -30 c13 -28 13 -29 14 -6 1 30 22 103 33 116 4 5 8 -2
8 -15 0 -47 16 -53 28 -12 7 22 12 49 12 61 0 11 4 21 9 21 9 0 16 -27 30
-115 7 -45 8 -47 10 -15 2 19 8 53 15 75 l12 40 14 -25 c9 -15 16 -66 18 -128
l4 -103 30 30 c17 17 34 31 39 31 5 0 9 15 9 34 0 35 38 116 73 154 11 12 31
22 44 22 13 0 23 4 23 9 0 14 51 28 95 25 22 -2 46 3 55 10 22 19 38 23 105
24 47 1 72 -5 122 -29z m484 -61 c0 -29 2 -73 4 -98 2 -25 1 -70 -4 -100 -7
-46 -9 -30 -12 98 -2 83 -1 152 4 152 4 0 7 -24 8 -52z m-181 -125 c0 -32 -5
-28 -14 10 -4 19 -3 26 4 22 5 -3 10 -18 10 -32z m180 -160 c-1 -24 -2 -26
-11 -10 -5 9 -7 22 -4 27 10 17 15 11 15 -17z m76 -277 c17 -113 15 -217 -3
-224 -9 -2 -14 8 -15 30 -1 18 -4 2 -7 -37 -5 -53 -10 -70 -21 -70 -20 0 -39
57 -40 120 0 32 -3 45 -9 36 -5 -7 -6 -51 -3 -98 5 -80 -7 -133 -29 -133 -11
0 -29 94 -30 163 l-2 62 -7 -73 c-11 -97 -18 -122 -35 -122 -21 0 -37 71 -31
148 4 63 -5 105 -19 90 -4 -3 -13 -39 -21 -80 -16 -76 -36 -118 -57 -118 -9 0
-12 27 -12 97 0 54 -2 127 -5 163 -3 58 -1 70 23 105 17 25 27 53 27 77 0 20
5 40 10 43 6 3 10 14 10 23 0 15 14 18 93 20 53 2 94 8 96 14 2 6 19 -22 38
-63 24 -51 39 -105 49 -173z m-392 -352 c27 -10 18 -26 -11 -20 -16 4 -71 2
-123 -3 -127 -14 -177 -1 -60 15 102 13 173 16 194 8z m-316 -21 c-10 -2 -26
-2 -35 0 -10 3 -2 5 17 5 19 0 27 -2 18 -5z m-125 -10 c-7 -2 -19 -2 -25 0 -7
3 -2 5 12 5 14 0 19 -2 13 -5z m33 -132 c-6 -9 -93 -7 -103 3 -4 3 19 6 51 6
31 0 55 -4 52 -9z m85 -4 c-7 -7 -18 -7 -33 0 -22 10 -21 11 10 10 22 0 30 -3
23 -10z m209 -67 c-6 -11 -8 -25 -5 -30 6 -10 -13 -25 -22 -16 -8 8 17 66 29
66 5 0 4 -9 -2 -20z m131 -7 c-5 -10 -14 -31 -20 -47 -7 -16 -15 -26 -18 -22
-8 8 27 86 39 86 4 0 4 -8 -1 -17z m-262 -22 c-6 -17 -17 -35 -24 -41 -12 -10
-13 -6 -5 21 8 26 24 48 37 49 1 0 -3 -13 -8 -29z m415 -3 c-38 -45 -50 -48
-57 -12 -4 23 -2 25 19 20 12 -3 26 -2 29 4 3 5 11 10 17 10 6 0 3 -10 -8 -22z
m133 -10 c-3 -8 -6 -5 -6 6 -1 11 2 17 5 13 3 -3 4 -12 1 -19z m-593 -16 c-6
-4 -14 -14 -17 -22 -3 -9 -6 -5 -6 11 -1 31 9 43 23 29 8 -8 8 -13 0 -18z
m-194 14 c0 -14 -14 -36 -22 -36 -5 0 -6 5 -3 10 3 6 -1 10 -10 10 -9 0 -13 5
-10 10 6 10 45 15 45 6z m60 -6 c0 -5 -7 -10 -16 -10 -8 0 -12 5 -9 10 3 6 10
10 16 10 5 0 9 -4 9 -10z m262 -7 c24 -22 23 -31 -5 -26 -14 3 -23 12 -24 24
-2 23 5 24 29 2z m533 -21 c-8 -8 -25 10 -25 26 0 13 2 13 14 -4 8 -10 13 -21
11 -22z m-1272 -2 c-6 -23 -23 -43 -31 -35 -2 2 2 13 8 25 11 21 10 22 -24 18
-20 -2 -36 -1 -36 3 0 4 12 9 28 11 58 7 62 5 55 -22z m217 12 c0 -5 -9 -17
-20 -27 -11 -10 -20 -13 -20 -7 0 7 5 12 10 12 6 0 10 7 10 15 0 8 5 15 10 15
6 0 10 -4 10 -8z m70 -8 c0 -14 3 -14 15 -4 12 10 15 10 15 -3 0 -8 -11 -17
-24 -19 -18 -4 -23 -1 -19 10 3 8 0 18 -8 23 -11 7 -11 9 4 9 9 0 17 -7 17
-16z m680 6 c0 -5 -7 -10 -15 -10 -8 0 -15 5 -15 10 0 6 7 10 15 10 8 0 15 -4
15 -10z m30 0 c0 -5 -2 -10 -4 -10 -3 0 -8 5 -11 10 -3 6 -1 10 4 10 6 0 11
-4 11 -10z m370 -10 c0 -5 -4 -10 -10 -10 -5 0 -10 5 -10 10 0 6 5 10 10 10 6
0 10 -4 10 -10z m-1290 -29 c0 -5 -9 -11 -20 -14 -22 -6 -28 8 -7 16 19 8 27
8 27 -2z m-5595 -526 c0 -10 -6 -20 -12 -22 -8 -3 -13 5 -13 22 0 17 5 25 13
23 6 -3 12 -13 12 -23z m3826 -1447 c-12 -62 -26 -138 -31 -168 -29 -161 -85
-418 -93 -426 -18 -18 -23 361 -7 492 l10 77 65 63 c36 35 65 69 65 75 0 7 3
10 6 6 4 -3 -3 -57 -15 -119z m4846 -51 c12 -25 5 -133 -7 -120 -5 4 -11 38
-15 76 -7 68 2 88 22 44z m1273 -1341 c0 -11 -19 -15 -25 -6 -3 5 1 10 9 10 9
0 16 -2 16 -4z m272 -50 c4 -6 7 -54 6 -106 0 -52 5 -121 12 -153 10 -42 10
-63 3 -80 -6 -12 -14 -30 -17 -39 -3 -10 -13 -18 -22 -18 -10 0 -25 -6 -33
-14 -9 -7 -45 -24 -81 -36 -36 -12 -75 -28 -87 -36 -30 -19 -117 -18 -133 1
-7 8 -18 15 -25 15 -34 0 -39 30 -41 236 -2 129 1 206 7 210 20 12 81 -7 86
-27 5 -17 10 -15 40 20 l34 40 102 3 c112 4 138 1 149 -16z m128 -1 c11 -13
11 -23 0 -54 -19 -60 -26 -68 -47 -55 -19 12 -46 91 -38 112 6 17 70 15 85 -3z
m350 -20 c0 -8 9 -19 20 -25 11 -6 20 -17 20 -24 0 -8 9 -16 21 -19 12 -3 18
-10 14 -16 -9 -16 -35 -13 -35 4 0 8 -7 15 -14 15 -14 0 -66 58 -66 73 0 4 9
7 20 7 11 0 20 -7 20 -15z m142 -37 c2 -19 10 -24 41 -26 20 -2 37 -8 37 -13
0 -6 12 -21 27 -35 14 -13 23 -27 20 -30 -12 -12 -55 6 -60 26 -3 13 -13 20
-31 20 -30 0 -76 19 -76 32 0 16 20 48 30 48 5 0 10 -10 12 -22z m-174 -26 c3
-9 -2 -13 -14 -10 -9 1 -19 9 -22 16 -3 9 2 13 14 10 9 -1 19 -9 22 -16z m24
-83 c-5 -11 -12 -21 -17 -22 -16 -1 -18 35 -4 44 19 12 29 1 21 -22z m158 11
c0 -5 -4 -10 -10 -10 -5 0 -10 5 -10 10 0 6 5 10 10 10 6 0 10 -4 10 -10z
m-30 -20 c0 -5 -4 -10 -9 -10 -6 0 -13 5 -16 10 -3 6 1 10 9 10 9 0 16 -4 16
-10z m-70 -44 c0 -14 8 -32 17 -41 19 -19 8 -48 -21 -53 -17 -4 -23 23 -6 33
21 13 9 24 -19 19 -24 -5 -30 -2 -36 16 -9 29 5 41 58 49 4 0 7 -10 7 -23z
m264 -21 c20 -31 20 -35 -2 -35 -10 0 -26 14 -35 30 -18 29 -18 30 1 30 11 0
27 -11 36 -25z m-207 9 c-3 -3 -12 -4 -19 -1 -8 3 -5 6 6 6 11 1 17 -2 13 -5z
m-117 -53 c0 -9 -5 -23 -10 -31 -9 -13 -12 -12 -25 4 -24 32 -19 54 10 48 15
-2 25 -11 25 -21z m249 10 c9 -6 10 -10 2 -16 -16 -9 -44 2 -36 15 8 12 16 12
34 1z m-109 -5 c0 -3 -4 -8 -10 -11 -5 -3 -10 -1 -10 4 0 6 5 11 10 11 6 0 10
-2 10 -4z m50 -6 c0 -5 -2 -10 -4 -10 -3 0 -8 5 -11 10 -3 6 -1 10 4 10 6 0
11 -4 11 -10z m-45 -37 c16 -9 17 -14 8 -24 -10 -10 -18 -10 -38 1 -14 7 -25
19 -25 25 0 15 28 14 55 -2z m225 2 c0 -8 -4 -15 -10 -15 -5 0 -10 7 -10 15 0
8 5 15 10 15 6 0 10 -7 10 -15z m-102 -23 c2 -7 -6 -12 -17 -12 -21 0 -27 11
-14 24 9 9 26 2 31 -12z m-228 -17 c0 -9 -6 -12 -15 -9 -8 4 -12 10 -9 15 8
14 24 10 24 -6z m50 -72 c0 -22 -2 -25 -10 -13 -13 20 -13 40 0 40 6 0 10 -12
10 -27z m-90 -3 c0 -5 -4 -10 -9 -10 -6 0 -13 5 -16 10 -3 6 1 10 9 10 9 0 16
-4 16 -10z m157 4 c-3 -3 -12 -4 -19 -1 -8 3 -5 6 6 6 11 1 17 -2 13 -5z m93
-59 c0 -8 -4 -15 -10 -15 -5 0 -7 7 -4 15 4 8 8 15 10 15 2 0 4 -7 4 -15z
m-250 -89 c0 -3 -4 -8 -10 -11 -5 -3 -10 -1 -10 4 0 6 5 11 10 11 6 0 10 -2
10 -4z m50 -226 c0 -5 -4 -10 -9 -10 -6 0 -13 5 -16 10 -3 6 1 10 9 10 9 0 16
-4 16 -10z m-7403 -1718 c2 -113 -7 -276 -15 -268 -3 3 -9 50 -13 103 -8 95 6
281 20 267 3 -3 7 -49 8 -102z m6245 -314 c-6 -6 -16 -7 -22 -3 -9 6 -9 9 1
16 17 10 34 0 21 -13z"/>
<path d="M10572 8910 c0 -14 2 -19 5 -12 2 6 2 18 0 25 -3 6 -5 1 -5 -13z"/>
<path d="M10752 8852 c-28 -3 -31 -6 -22 -23 8 -14 21 -19 51 -19 36 0 40 3
37 22 -3 22 -13 26 -66 20z"/>
<path d="M10705 8490 c3 -5 8 -10 11 -10 2 0 4 5 4 10 0 6 -5 10 -11 10 -5 0
-7 -4 -4 -10z"/>
<path d="M10581 8481 c-10 -7 -10 -10 -1 -16 6 -4 16 -3 22 3 13 13 -4 23 -21
13z"/>
<path d="M10572 8420 c0 -14 2 -19 5 -12 2 6 2 18 0 25 -3 6 -5 1 -5 -13z"/>
<path d="M6098 11918 c-2 -93 -2 -93 8 -163 4 -27 11 -55 16 -62 17 -21 21
-122 8 -181 -15 -61 -90 -219 -172 -360 -155 -267 -176 -350 -199 -787 -11
-214 -10 -246 4 -290 8 -28 19 -86 22 -130 4 -43 12 -91 17 -105 9 -23 13 -51
22 -170 7 -76 35 -214 52 -256 10 -24 16 -62 15 -99 -1 -32 3 -80 8 -105 6
-25 15 -67 21 -93 13 -58 37 -95 105 -159 100 -96 209 -106 355 -35 97 48 164
123 225 254 52 109 80 147 185 247 41 39 105 101 142 139 37 37 72 67 78 67
13 0 130 148 130 165 0 7 14 23 30 35 17 12 39 38 49 58 10 21 28 46 40 56 12
11 21 23 21 29 0 5 15 30 34 56 32 44 34 51 38 151 4 83 10 118 30 165 42 98
58 189 60 335 2 110 -1 145 -16 188 -19 54 -16 89 14 157 15 35 29 178 19 196
-5 10 -9 26 -9 36 0 36 -48 92 -84 99 -19 3 -44 17 -57 30 -12 13 -27 24 -32
24 -5 0 -25 14 -44 30 -41 37 -53 38 -53 5 0 -32 -38 -52 -67 -36 -26 13 -81
-6 -89 -31 -3 -10 -16 -26 -29 -34 -21 -13 -29 -14 -61 -2 -36 13 -37 13 -70
-26 -36 -41 -53 -71 -103 -173 -17 -35 -36 -63 -44 -63 -23 0 -59 -47 -63 -81
-2 -18 -8 -46 -13 -63 -38 -125 -51 -204 -56 -341 -4 -96 -8 -112 -55 -190
-31 -51 -73 -136 -105 -212 -13 -32 -25 -44 -46 -48 -35 -8 -39 -35 -5 -35 38
0 50 -25 49 -98 -2 -69 -40 -193 -61 -200 -6 -2 -14 9 -18 25 -3 15 -14 64
-24 108 -30 130 -53 266 -53 320 0 28 7 91 16 140 9 50 17 106 17 125 0 36 19
103 64 222 13 36 22 68 20 71 -3 3 9 26 25 53 17 26 31 56 31 66 0 9 8 25 19
35 19 19 91 127 91 138 0 3 15 39 34 78 44 92 91 242 105 334 9 59 16 155 24
348 0 11 0 44 -1 73 l-2 52 -305 0 -305 0 -2 -82z"/>
<path d="M8267 11910 c-7 -103 1 -196 17 -208 6 -5 26 -14 44 -20 30 -10 36
-9 58 13 13 13 24 30 24 38 0 8 14 28 30 45 17 18 30 40 30 51 0 27 65 81 98
81 20 0 41 13 72 45 l44 45 -205 0 -206 0 -6 -90z"/>
<path d="M10848 11993 c23 -2 59 -2 80 0 20 2 1 4 -43 4 -44 0 -61 -2 -37 -4z"/>
<path d="M10978 11993 c7 -3 16 -2 19 1 4 3 -2 6 -13 5 -11 0 -14 -3 -6 -6z"/>
<path d="M16956 11881 c-5 -88 -12 -131 -27 -163 -27 -60 -102 -161 -181 -249
-38 -40 -68 -78 -68 -85 0 -6 -14 -31 -32 -54 -17 -24 -51 -85 -74 -134 -24
-50 -66 -120 -94 -156 -80 -105 -86 -113 -114 -165 -16 -27 -34 -57 -41 -65
-25 -30 -84 -147 -120 -240 -21 -52 -44 -104 -51 -115 -8 -11 -14 -25 -14 -33
0 -7 -15 -36 -33 -65 -33 -51 -82 -155 -126 -264 -12 -29 -31 -77 -43 -105
-71 -175 -125 -335 -139 -414 -6 -38 -18 -85 -26 -104 -8 -19 -21 -73 -29
-120 -8 -47 -18 -110 -24 -140 -11 -61 -5 -349 10 -445 5 -33 10 -91 10 -130
1 -93 17 -310 35 -470 8 -71 17 -161 20 -200 3 -38 10 -83 15 -100 21 -68 41
-217 45 -330 2 -66 8 -132 14 -147 5 -15 13 -73 17 -130 4 -57 16 -150 27
-208 25 -133 32 -247 17 -297 -10 -34 -26 -132 -35 -223 -12 -113 -22 -149
-53 -184 -28 -33 -32 -44 -32 -97 0 -54 2 -61 25 -71 30 -13 32 -38 7 -61 -27
-24 -39 -21 -57 14 -17 33 -31 34 -98 7 -52 -20 -73 -99 -42 -157 14 -28 76
-61 113 -61 38 0 81 38 92 82 7 24 16 51 21 60 5 10 9 27 9 39 0 11 15 39 34
62 18 23 39 52 45 65 6 12 27 29 46 36 21 9 46 32 63 59 29 46 60 86 123 160
20 23 49 69 65 102 15 33 41 74 55 92 43 51 76 113 94 178 9 33 27 92 39 130
45 138 59 237 87 625 5 74 17 158 25 185 8 28 19 106 24 175 10 144 20 199 51
301 13 41 30 108 40 149 28 126 80 280 94 283 15 3 23 -76 30 -296 3 -111 8
-224 10 -252 2 -27 6 -104 10 -170 6 -143 34 -491 40 -522 3 -13 -2 -78 -10
-145 -8 -68 -15 -166 -14 -218 0 -52 -4 -183 -10 -290 -14 -264 -15 -280 -6
-395 6 -93 50 -421 60 -455 12 -38 31 -543 24 -625 -13 -159 -10 -443 7 -545
13 -86 24 -217 42 -510 4 -58 4 -139 0 -180 -8 -101 7 -256 32 -327 67 -183
108 -339 146 -548 8 -44 21 -109 29 -145 8 -36 15 -86 15 -111 0 -39 4 -49 26
-64 37 -24 43 -9 45 95 l2 85 9 -75 c13 -99 18 -112 30 -77 11 32 34 36 43 6
18 -56 82 31 86 116 1 28 -4 117 -11 198 -12 146 -12 148 9 171 25 26 26 34 7
55 -13 14 -13 37 0 171 8 85 17 189 20 230 3 41 13 94 21 117 8 22 12 50 9 61
-4 11 -2 32 4 47 6 15 15 57 21 94 5 36 17 107 25 156 16 94 35 325 28 336 -2
4 7 85 21 180 24 173 50 373 59 459 3 25 12 81 21 125 10 44 21 105 25 135 11
69 39 195 52 235 6 17 18 65 28 108 10 43 21 81 24 84 10 11 24 -43 50 -197
14 -85 37 -202 50 -260 31 -129 83 -359 97 -420 51 -236 73 -329 86 -364 16
-44 53 -182 83 -311 30 -130 42 -232 45 -370 2 -71 8 -159 14 -195 22 -131 31
-207 35 -296 2 -50 9 -100 15 -112 31 -57 199 -85 344 -56 45 9 88 21 96 28
11 9 13 38 6 166 -19 370 -4 691 50 1090 39 285 48 339 65 400 27 97 61 307
81 500 16 160 19 184 25 200 4 8 10 67 15 130 5 63 13 158 18 210 6 52 13 156
16 230 7 157 30 371 49 450 13 54 14 54 24 28 16 -39 39 -134 47 -193 4 -27
24 -102 46 -165 21 -63 46 -142 54 -175 19 -71 45 -107 116 -162 67 -50 116
-62 147 -33 26 25 46 93 38 134 -3 17 -11 67 -16 111 -6 44 -15 100 -21 125
-6 25 -12 74 -15 110 -3 36 -10 88 -16 117 -10 46 -9 54 9 80 11 15 37 66 58
113 36 81 37 91 42 220 l5 135 30 26 c40 34 54 106 68 344 10 167 24 272 49
370 78 303 93 448 87 850 -4 240 -7 284 -30 400 -25 125 -37 210 -51 360 -3
39 -13 95 -20 125 -8 30 -28 125 -44 210 -59 301 -73 366 -98 455 -75 268
-104 430 -114 630 -10 219 -23 378 -37 465 -6 36 -25 158 -43 273 l-32 207
-559 0 c-351 0 -557 -4 -553 -10 8 -13 -35 -100 -50 -100 -7 0 -15 9 -18 20
-3 11 -12 20 -20 20 -9 0 -18 8 -21 18 -4 14 -5 14 -4 -3 1 -36 -2 -45 -13
-45 -7 0 -9 11 -6 29 3 15 3 38 0 50 l-5 21 -543 0 -542 0 -7 -119z m1107 -41
c-3 -11 -7 -20 -9 -20 -2 0 -4 9 -4 20 0 11 4 20 9 20 5 0 7 -9 4 -20z m1039
-3417 c5 -58 -9 -343 -18 -383 -7 -30 -10 -19 -21 75 -26 219 -26 225 -13 240
6 8 9 19 5 25 -8 13 22 80 35 80 5 0 10 -17 12 -37z"/>
<path d="M13470 11740 c0 -5 5 -10 11 -10 5 0 7 5 4 10 -3 6 -8 10 -11 10 -2
0 -4 -4 -4 -10z"/>
<path d="M13085 11620 c3 -5 12 -10 20 -10 8 0 17 5 20 10 4 6 -5 10 -20 10
-15 0 -24 -4 -20 -10z"/>
<path d="M610 11567 c-93 -33 -138 -86 -111 -129 9 -14 10 -49 5 -124 l-7
-104 -46 -48 c-56 -59 -102 -145 -102 -192 -1 -63 -21 -104 -87 -177 -57 -64
-69 -73 -101 -74 -59 -2 -85 -13 -109 -49 -17 -26 -22 -46 -21 -82 2 -33 -3
-53 -14 -66 -12 -13 -17 -37 -17 -85 l0 -67 30 0 c45 0 50 -26 35 -156 -12
-111 -21 -140 -49 -164 -14 -10 -16 -45 -16 -221 l0 -209 33 -1 c17 -1 93 -2
167 -3 122 -2 139 0 175 20 22 12 59 27 82 33 23 6 65 27 93 46 34 23 64 35
86 35 18 0 63 11 99 24 35 14 67 21 70 17 3 -5 -11 -35 -30 -67 -19 -32 -35
-62 -35 -67 0 -20 -54 -143 -70 -159 -10 -9 -36 -22 -60 -29 -28 -9 -50 -24
-68 -48 -14 -20 -39 -50 -55 -68 -28 -30 -29 -35 -23 -88 3 -31 19 -82 35
-113 36 -71 106 -152 132 -152 12 0 19 -7 19 -20 0 -27 -27 -40 -61 -28 -22 7
-37 4 -75 -16 -27 -13 -76 -34 -108 -45 -64 -22 -96 -45 -96 -69 0 -9 -15 -30
-32 -47 -18 -18 -44 -46 -58 -63 -21 -25 -36 -31 -83 -37 -63 -8 -107 -35
-107 -66 0 -11 9 -37 20 -59 11 -22 20 -46 20 -54 0 -23 29 -46 59 -46 15 0
30 -2 33 -6 9 -9 -21 -97 -41 -118 -49 -54 -55 -103 -13 -111 15 -4 35 -11 45
-16 26 -14 47 6 47 43 0 37 28 86 53 94 11 3 31 -4 52 -20 18 -14 36 -26 38
-26 3 0 40 -20 83 -44 44 -24 96 -49 116 -55 21 -7 40 -21 43 -32 4 -10 15
-19 26 -19 10 0 27 -8 37 -17 10 -11 28 -17 45 -15 15 2 27 -1 27 -7 0 -14
142 -3 151 11 4 7 13 7 24 1 12 -7 27 -4 53 9 28 14 48 17 84 12 34 -5 48 -3
48 5 0 9 5 9 20 1 16 -9 20 -8 20 5 0 18 12 19 28 3 9 -9 12 -9 12 0 0 7 11
12 23 12 47 0 67 99 68 335 0 55 4 118 9 140 10 43 -3 293 -18 380 -5 28 -7
111 -3 185 3 74 3 160 -1 190 -8 56 -14 210 -31 800 -5 157 -21 363 -36 455
-29 171 -76 347 -103 381 -5 7 -5 22 0 35 14 39 7 75 -23 118 -15 23 -31 41
-36 41 -4 0 -15 7 -24 17 -13 12 -19 13 -24 4 -10 -15 -80 -12 -106 6 -17 11
-11 13 48 13 91 0 109 17 102 98 -12 118 -40 172 -104 199 -47 20 -244 27
-291 10z"/>
<path d="M7663 11253 c-30 -27 -87 -104 -101 -137 -10 -21 -11 -52 -6 -105 11
-126 36 -162 119 -176 35 -5 46 -2 82 24 55 40 70 90 54 176 -6 33 -12 86 -13
117 -4 73 -30 112 -80 116 -23 2 -41 -3 -55 -15z"/>
<path d="M1170 10861 c0 -12 6 -21 16 -21 9 0 14 7 12 17 -5 25 -28 28 -28 4z"/>
<path d="M606 7914 c-4 -10 -1 -14 6 -12 15 5 23 28 10 28 -5 0 -13 -7 -16
-16z"/>
<path d="M0 7768 l1 -33 14 25 c18 32 18 40 0 40 -10 0 -15 -10 -15 -32z"/>
<path d="M610 7719 c0 -5 5 -7 10 -4 6 3 10 8 10 11 0 2 -4 4 -10 4 -5 0 -10
-5 -10 -11z"/>
<path d="M20990 7564 c-28 -18 -90 -103 -90 -124 0 -7 12 -42 26 -77 50 -127
97 -489 95 -738 -1 -204 -12 -278 -43 -300 -27 -18 -27 -53 -1 -141 12 -38 27
-96 35 -128 24 -105 93 -124 133 -36 18 39 20 41 54 36 65 -11 87 26 158 264
14 47 34 94 44 106 35 37 24 148 -36 364 -23 86 -25 106 -19 205 4 84 10 116
25 136 22 32 24 74 5 109 -8 14 -36 67 -62 118 -54 107 -109 174 -165 202 -46
24 -124 26 -159 4z"/>
<path d="M1009 6556 c-2 -3 -40 -6 -84 -7 -61 -2 -87 -8 -107 -23 -26 -19 -28
-19 -47 -2 -18 17 -20 17 -29 -1 -9 -16 -24 -18 -110 -18 -55 0 -103 -3 -106
-6 -4 -3 -19 -44 -35 -90 -16 -46 -45 -129 -65 -184 -20 -55 -43 -141 -51
-191 -8 -50 -24 -117 -35 -148 -73 -212 -83 -348 -69 -927 6 -239 8 -481 4
-538 -6 -101 -36 -243 -75 -364 -20 -60 -56 -127 -68 -127 -4 0 -24 11 -43 24
-20 14 -48 28 -63 32 l-26 6 0 -92 c0 -86 2 -94 32 -138 18 -26 55 -69 83 -97
28 -27 67 -68 87 -90 89 -97 158 -130 185 -87 8 14 20 18 42 14 36 -5 117 23
149 52 41 36 89 109 101 151 6 22 19 54 30 71 32 52 60 231 66 421 6 188 14
245 44 313 47 108 64 206 63 380 -1 135 4 188 24 295 37 195 54 272 81 355 14
43 30 134 39 215 8 77 19 181 24 230 6 50 12 149 15 220 2 72 7 176 11 232 l7
102 -27 11 c-30 11 -40 12 -47 6z m-302 -1218 c-3 -13 -12 -50 -21 -84 -8 -33
-13 -75 -11 -93 2 -17 0 -42 -5 -54 -7 -17 -9 -7 -12 43 -5 111 1 173 19 192
22 25 36 23 30 -4z m-261 -148 c7 -25 20 -72 30 -105 10 -35 19 -101 20 -157
2 -54 8 -116 14 -140 19 -67 14 -137 -10 -170 -17 -23 -20 -37 -15 -67 8 -50
-16 -111 -44 -111 -11 0 -23 5 -27 12 -7 12 -7 19 3 338 7 227 5 428 -4 443
-3 5 0 8 7 5 7 -2 19 -24 26 -48z m-199 -1453 c-10 -104 -26 -124 -48 -59 -20
59 -4 122 32 122 21 0 22 -3 16 -63z"/>
<path d="M8032 5760 c-18 -29 -15 -42 15 -67 23 -20 53 -23 71 -8 6 5 -18 55
-27 55 -5 0 -11 9 -14 20 -7 26 -29 26 -45 0z"/>
<path d="M7880 5421 c0 -6 5 -13 10 -16 6 -3 10 1 10 9 0 9 -4 16 -10 16 -5 0
-10 -4 -10 -9z"/>
<path d="M3060 2738 c0 -7 5 -20 10 -28 8 -12 10 -11 10 7 0 12 -4 25 -10 28
-5 3 -10 0 -10 -7z"/>
<path d="M1467 2520 c-8 -31 -26 -329 -31 -505 -3 -71 -10 -148 -16 -170 -10
-33 -9 -51 6 -111 17 -69 17 -74 0 -128 -10 -30 -15 -59 -12 -64 10 -16 -21
-112 -43 -136 -28 -30 -37 -87 -21 -137 11 -33 11 -49 -3 -108 -9 -37 -29 -95
-43 -127 -52 -118 -49 -331 8 -569 6 -27 11 -70 10 -95 -1 -25 -4 -118 -6
-207 l-5 -163 229 0 c220 0 229 1 235 20 4 11 7 74 7 139 0 99 -3 123 -18 147
-17 26 -19 52 -20 294 -1 249 -6 316 -33 418 -6 22 -14 101 -17 174 -8 161 -8
141 6 318 16 196 10 244 -76 560 -30 109 -56 187 -96 285 -23 55 -44 120 -48
145 -5 38 -7 41 -13 20z"/>
<path d="M6768 2013 c7 -3 16 -2 19 1 4 3 -2 6 -13 5 -11 0 -14 -3 -6 -6z"/>
<path d="M14200 1956 c0 -14 5 -28 10 -31 6 -3 10 5 10 19 0 14 -4 28 -10 31
-6 3 -10 -5 -10 -19z"/>
<path d="M14426 1921 c-4 -7 -5 -15 -2 -18 9 -9 19 4 14 18 -4 11 -6 11 -12 0z"/>
<path d="M14188 1827 c-4 -19 -1 -27 8 -27 15 0 16 6 5 35 -7 17 -8 17 -13 -8z"/>
<path d="M6385 1620 c-3 -5 3 -10 14 -10 12 0 21 5 21 10 0 6 -6 10 -14 10 -8
0 -18 -4 -21 -10z"/>
<path d="M14265 1463 c-4 -13 -11 -20 -16 -17 -5 3 -9 -9 -9 -25 0 -17 5 -31
10 -31 6 0 10 -7 10 -15 0 -9 -8 -14 -22 -12 -17 2 -23 -5 -30 -33 -4 -19 -5
-55 -2 -80 3 -25 0 -68 -7 -95 -6 -28 -12 -78 -14 -111 -3 -79 -13 -96 -34
-58 l-16 29 -3 -55 c-5 -75 16 -190 34 -190 8 0 14 -10 14 -26 0 -17 -5 -24
-12 -22 -18 7 -63 -37 -49 -46 6 -4 11 -19 11 -33 0 -21 2 -23 15 -13 41 34
55 -41 41 -225 l-7 -100 20 24 c12 13 21 37 21 55 0 17 4 37 9 45 12 18 31 5
31 -22 1 -34 31 40 33 80 1 18 5 33 10 33 4 0 7 9 7 20 0 21 27 40 59 40 11 0
26 7 33 16 61 77 87 87 142 59 36 -19 36 -19 36 9 0 35 -52 86 -87 86 -15 0
-41 7 -57 15 -37 19 -43 19 -73 -5 -65 -51 -82 -9 -88 222 -3 90 -9 185 -14
213 -6 31 -6 54 0 61 7 8 2 14 -16 18 -30 8 -33 22 -6 31 13 4 17 12 14 25 -4
15 0 20 15 20 16 0 22 -8 25 -32 2 -18 5 -5 5 30 1 34 -2 62 -7 62 -6 0 -12
17 -14 38 -3 32 -5 34 -12 15z m-5 -503 c0 -5 -4 -10 -10 -10 -5 0 -10 5 -10
10 0 6 5 10 10 10 6 0 10 -4 10 -10z m17 -272 c-3 -8 -6 -5 -6 6 -1 11 2 17 5
13 3 -3 4 -12 1 -19z m20 -140 c-3 -8 -6 -5 -6 6 -1 11 2 17 5 13 3 -3 4 -12
1 -19z"/>
<path d="M2917 1426 c-9 -13 -29 -20 -67 -24 -30 -2 -66 -12 -80 -22 -36 -24
-185 -27 -211 -4 -16 15 -27 15 -101 4 -159 -23 -241 -58 -344 -144 -91 -75
-112 -242 -40 -311 18 -16 35 -38 39 -47 3 -10 16 -18 27 -18 14 0 20 -7 20
-21 0 -11 4 -18 9 -15 5 3 11 -1 15 -9 3 -8 15 -15 26 -15 27 0 25 -14 -7 -45
-18 -16 -36 -24 -48 -21 -11 3 -32 8 -47 11 -21 6 -30 1 -49 -24 -12 -17 -28
-31 -35 -31 -22 0 -28 -23 -9 -37 27 -19 33 -17 50 17 9 18 23 30 36 30 16 0
18 -3 10 -19 -13 -23 10 -36 37 -22 9 4 33 11 52 14 19 3 43 8 53 12 10 4 17
3 17 -4 0 -6 -11 -13 -25 -17 -28 -7 -34 -31 -10 -40 8 -4 15 -14 15 -24 0
-11 4 -21 9 -24 5 -3 9 -17 9 -32 0 -18 -8 -28 -27 -36 -78 -30 -132 -60 -129
-71 3 -6 18 -16 36 -21 20 -6 32 -17 34 -30 2 -17 11 -22 46 -24 38 -3 42 -6
42 -29 0 -13 -8 -39 -17 -55 -14 -23 -15 -32 -5 -35 6 -3 12 -13 12 -22 0 -10
3 -21 6 -24 14 -13 6 -117 -10 -142 -33 -50 -26 -55 89 -55 l105 0 0 34 c0 19
4 46 10 60 7 18 5 37 -5 67 -18 49 -19 90 -5 156 9 39 15 48 33 50 59 4 117
16 117 24 0 5 6 9 13 9 6 0 23 12 36 26 l25 25 -29 23 c-15 13 -25 28 -21 34
3 6 2 13 -4 17 -5 3 -10 1 -10 -4 0 -6 -5 -11 -11 -11 -6 0 -9 7 -6 15 4 8 2
17 -4 21 -18 11 62 44 90 37 23 -5 24 -4 13 9 -10 13 -7 17 20 28 18 6 45 18
60 26 35 19 129 23 135 7 3 -7 -3 -13 -12 -13 -9 0 -13 -5 -9 -11 4 -7 -4 -20
-17 -30 -13 -10 -21 -21 -17 -24 7 -8 68 10 110 31 31 17 88 18 88 3 0 -7 10
-9 28 -4 45 12 222 15 222 4 0 -6 -8 -9 -17 -8 -42 4 -57 -1 -45 -13 16 -16
143 -20 160 -5 11 9 11 12 -5 18 -11 5 1 8 34 8 42 1 57 6 80 27 42 39 107 64
170 64 39 0 74 9 123 30 38 16 82 30 100 30 17 0 47 11 67 24 30 20 40 23 64
14 24 -8 34 -7 48 6 12 11 27 14 49 10 20 -4 32 -2 32 4 0 6 9 14 20 17 11 4
32 18 47 31 17 15 33 22 45 18 10 -3 18 -1 18 5 0 6 -6 11 -13 11 -7 0 -21 14
-30 30 -16 27 -23 32 -43 29 -13 -2 -20 22 -16 51 3 19 10 30 21 30 9 0 24 12
34 25 l17 24 -44 21 c-48 21 -67 40 -42 40 9 0 21 9 28 20 7 11 23 20 36 20
17 0 23 5 20 17 -4 24 -39 29 -54 8 -9 -12 -19 -15 -31 -10 -12 5 -14 9 -5 12
22 8 13 32 -15 39 -16 4 -37 15 -48 25 -41 37 -169 42 -248 10 -15 -6 -71 -15
-125 -20 -53 -6 -107 -13 -119 -17 -13 -3 -23 -2 -23 4 0 5 25 13 56 17 31 4
77 16 103 27 43 18 45 20 27 34 -11 8 -26 14 -33 14 -7 0 -21 4 -31 9 -9 5
-44 14 -77 21 -33 6 -87 17 -120 25 -145 33 -369 47 -377 23 -3 -9 -14 -7 -42
6 -51 24 -161 19 -179 -8z m-17 -171 c0 -19 -5 -25 -23 -25 -13 0 -28 -5 -35
-12 -6 -6 -15 -8 -19 -4 -5 4 0 13 10 20 9 7 17 18 17 24 0 9 15 17 43 21 4 0
7 -10 7 -24z m35 6 c-3 -6 -11 -11 -17 -11 -6 0 -6 6 2 15 14 17 26 13 15 -4z
m-149 -46 c-11 -8 -27 -15 -35 -15 -9 0 -21 -11 -28 -25 -11 -24 -1 -36 12
-15 3 6 18 10 33 10 15 0 40 7 55 15 24 12 29 12 33 0 4 -8 10 -12 15 -9 15 9
79 -16 79 -32 0 -20 18 -17 32 6 7 11 19 20 27 20 11 0 9 -5 -6 -19 -12 -11
-23 -25 -25 -32 -5 -16 -237 -16 -247 0 -4 6 -23 10 -42 10 -56 -2 -71 0 -64
12 4 6 -1 16 -11 24 -18 13 -18 14 1 20 11 4 31 11 45 16 26 10 104 26 130 28
11 0 10 -3 -4 -14z m264 -62 c0 -5 -5 -15 -10 -23 -8 -12 -10 -11 -10 8 0 12
5 22 10 22 6 0 10 -3 10 -7z m164 -452 c53 -11 7 -29 -87 -34 -88 -4 -118 7
-49 19 20 4 44 10 52 15 17 9 42 10 84 0z m61 -1 c-3 -5 -11 -10 -16 -10 -6 0
-7 5 -4 10 3 6 11 10 16 10 6 0 7 -4 4 -10z"/>
<path d="M13484 823 c-37 -134 -42 -148 -52 -146 -6 1 -13 -16 -17 -39 -4 -22
-16 -56 -27 -74 -11 -19 -24 -49 -29 -67 -55 -202 -72 -271 -79 -322 -5 -33
-18 -85 -30 -115 -11 -30 -20 -56 -20 -57 0 -2 51 -3 113 -3 l114 0 31 44 c18
24 32 53 32 63 0 10 7 29 16 42 12 17 14 28 6 45 -12 27 3 211 20 244 10 19 9
28 -2 45 -8 12 -17 42 -20 67 -4 37 -9 46 -27 48 -26 4 -32 39 -11 60 14 14
19 210 6 218 -4 3 -15 -21 -24 -53z"/>
<path d="M8090 787 c0 -26 -4 -36 -12 -31 -11 7 -9 -32 7 -111 6 -26 3 -32
-23 -43 -29 -12 -32 -19 -48 -102 -2 -8 -13 -23 -24 -32 -20 -16 -21 -22 -12
-65 6 -27 13 -103 15 -171 4 -118 5 -124 34 -160 16 -20 32 -45 36 -55 6 -15
21 -17 118 -17 110 0 111 0 106 23 -3 12 -8 45 -12 72 -4 28 -12 73 -20 100
-7 28 -23 100 -35 160 -12 61 -30 139 -40 175 -11 36 -29 109 -41 163 -12 53
-28 105 -35 115 -12 15 -13 13 -14 -21z m0 -472 c0 -118 1 -218 3 -222 1 -5
-7 -9 -18 -11 -13 -2 -26 7 -37 25 -15 27 -19 63 -18 216 0 37 -5 77 -11 88
-9 17 -7 24 10 40 11 11 28 33 36 49 9 17 20 30 25 30 6 0 10 -82 10 -215z"/>
<path d="M3981 711 c-9 -6 2 -10 35 -13 53 -5 74 -1 74 13 0 12 -91 11 -109 0z"/>
<path d="M4115 710 c-4 -6 -5 -14 -2 -17 10 -9 88 -24 98 -18 17 11 9 22 -18
29 -16 3 -38 8 -49 12 -12 3 -25 1 -29 -6z"/>
<path d="M3902 668 c5 -15 48 -24 48 -10 0 10 -23 22 -42 22 -5 0 -8 -6 -6
-12z"/>
<path d="M3693 647 c-47 -16 -41 -23 21 -24 37 -1 59 3 67 13 9 11 8 14 -2 14
-8 0 -23 2 -34 4 -11 2 -35 -1 -52 -7z"/>
<path d="M3563 603 c9 -2 15 -9 12 -14 -10 -15 1 -10 15 6 11 13 8 15 -16 14
-17 -1 -22 -3 -11 -6z"/>
<path d="M14044 584 c3 -9 6 -21 6 -27 0 -8 3 -8 10 -1 12 12 3 44 -12 44 -6
0 -7 -7 -4 -16z"/>
<path d="M2965 580 c-3 -5 -1 -10 4 -10 6 0 11 5 11 10 0 6 -2 10 -4 10 -3 0
-8 -4 -11 -10z"/>
<path d="M2018 545 c-3 -3 -3 -17 0 -31 3 -18 10 -24 25 -22 27 4 34 26 10 35
-10 3 -21 10 -24 15 -3 5 -8 6 -11 3z"/>
<path d="M3915 541 c-6 -11 9 -23 19 -14 9 9 7 23 -3 23 -6 0 -12 -4 -16 -9z"/>
<path d="M2866 523 c-11 -11 -6 -23 9 -23 8 0 15 4 15 9 0 13 -16 22 -24 14z"/>
<path d="M3188 482 c-16 -2 -28 -7 -28 -12 0 -13 -30 -40 -43 -40 -7 0 -6 4 3
10 27 18 -8 30 -39 14 -14 -8 -36 -14 -48 -14 -12 0 -25 -4 -28 -10 -3 -5 -16
-10 -28 -11 -14 -1 -10 -4 13 -9 35 -8 70 2 70 20 0 6 5 10 10 10 17 0 11 -28
-7 -39 -17 -10 -16 -10 2 -12 11 0 31 -2 45 -4 14 -1 78 -6 143 -10 64 -5 115
-10 112 -13 -12 -13 -83 -32 -117 -32 -54 0 -54 -14 0 -19 58 -5 109 -4 286 3
105 5 154 3 200 -9 34 -8 107 -17 164 -19 93 -4 103 -3 100 12 -2 11 -15 18
-36 20 -24 2 -32 8 -32 22 0 25 -32 45 -95 59 -72 16 -195 29 -195 20 0 -9
-307 -4 -378 6 -62 9 -57 26 9 31 56 5 81 13 73 25 -5 9 -83 9 -156 1z"/>
<path d="M3360 480 c0 -5 9 -10 21 -10 11 0 17 5 14 10 -3 6 -13 10 -21 10 -8
0 -14 -4 -14 -10z"/>
<path d="M3430 480 c-23 -7 -23 -8 -3 -9 12 -1 25 4 28 9 3 6 5 10 3 9 -2 -1
-14 -5 -28 -9z"/>
<path d="M3755 473 c-16 -16 -16 -17 5 -25 27 -10 39 -3 37 22 -2 24 -20 26
-42 3z"/>
<path d="M14001 471 c-21 -21 -35 -65 -47 -145 l-7 -49 25 19 c46 35 68 79 68
139 0 59 -9 66 -39 36z"/>
<path d="M3840 455 c-7 -8 -11 -15 -9 -16 11 -2 36 -9 57 -15 29 -8 29 10 0
30 -28 20 -32 20 -48 1z"/>
<path d="M4020 461 c0 -11 59 -23 72 -15 15 9 -12 24 -44 24 -16 0 -28 -4 -28
-9z"/>
<path d="M4145 450 c3 -5 12 -10 20 -10 8 0 17 5 20 10 4 6 -5 10 -20 10 -15
0 -24 -4 -20 -10z"/>
<path d="M4090 410 c20 -13 33 -13 25 0 -3 6 -14 10 -23 10 -15 0 -15 -2 -2
-10z"/>
<path d="M3950 361 c0 -11 39 -25 47 -18 3 3 2 10 -2 16 -8 13 -45 15 -45 2z"/>
<path d="M4037 353 c-20 -20 17 -57 47 -46 11 4 41 7 65 8 29 0 46 5 49 14 4
11 -4 13 -35 9 -24 -4 -49 0 -64 8 -26 15 -52 18 -62 7z"/>
<path d="M3334 228 c-7 -11 14 -48 29 -49 7 0 37 -2 67 -4 30 -2 133 -6 229
-9 130 -4 179 -9 196 -20 21 -14 24 -13 40 4 14 16 20 17 36 7 16 -10 25 -9
50 6 23 13 35 15 45 7 15 -14 69 -9 68 5 -1 6 -18 16 -38 24 -33 12 -38 12
-56 -4 -22 -20 -55 -13 -46 10 6 17 -5 20 -20 5 -7 -7 -53 -5 -145 6 -141 18
-446 26 -455 12z"/>
<path d="M3246 183 c-4 -4 -22 -8 -39 -9 -78 -3 -87 -5 -87 -14 0 -11 99 -42
111 -34 5 3 9 12 9 20 0 8 7 14 15 14 8 0 15 7 15 15 0 16 -12 20 -24 8z"/>
<path d="M13884 173 c-4 -10 -17 -40 -29 -68 -13 -27 -28 -62 -34 -77 -10 -26
-9 -28 17 -28 22 0 30 8 43 38 9 20 25 57 37 82 14 32 17 49 10 58 -15 17 -38
15 -44 -5z"/>
<path d="M3055 170 c3 -5 15 -10 26 -10 11 0 17 5 14 10 -3 6 -15 10 -26 10
-11 0 -17 -4 -14 -10z"/>
<path d="M4142 168 c5 -15 28 -18 29 -3 0 6 -7 12 -17 13 -10 3 -15 -1 -12
-10z"/>
<path d="M14124 142 c-17 -11 -34 -48 -34 -74 1 -22 1 -22 13 -3 10 17 37 85
33 85 0 0 -6 -4 -12 -8z"/>
<path d="M3288 133 c-31 -8 -19 -23 18 -23 19 0 42 -7 50 -15 9 -8 24 -15 35
-15 13 0 18 -4 13 -12 -7 -12 8 -5 34 15 18 14 -3 27 -48 27 -19 0 -44 7 -54
15 -11 8 -22 14 -25 14 -3 -1 -14 -3 -23 -6z"/>
<path d="M3828 103 c7 -3 16 -2 19 1 4 3 -2 6 -13 5 -11 0 -14 -3 -6 -6z"/>
<path d="M3470 92 c-5 -2 -10 -10 -10 -17 0 -7 -6 -16 -12 -19 -7 -3 26 -4 75
-3 115 4 130 20 32 33 -41 5 -79 8 -85 6z"/>
</g>
</svg>
