<?xml version="1.0" standalone="no"?>
<!DOCTYPE svg PUBLIC "-//W3C//DTD SVG 20010904//EN"
 "http://www.w3.org/TR/2001/REC-SVG-20010904/DTD/svg10.dtd">
<svg version="1.0" xmlns="http://www.w3.org/2000/svg"
 width="2160.000000pt" height="1200.000000pt" viewBox="0 0 2160.000000 1200.000000"
 preserveAspectRatio="xMidYMid meet">

<g transform="translate(0.000000,1200.000000) scale(0.100000,-0.100000)"
fill="#000000" stroke="none">
<path d="M11085 10980 c-316 -6 -804 -28 -1135 -51 -85 -6 -177 -12 -205 -13
-176 -9 -255 -27 -255 -56 0 -6 90 -10 239 -10 227 0 386 -12 404 -30 15 -13
-7 -19 -79 -21 -38 -1 -80 -5 -94 -9 l-25 -7 30 -6 c17 -3 122 -6 235 -6 189
0 389 -13 411 -27 16 -10 -1 -24 -29 -24 -15 0 -34 -5 -42 -10 -11 -7 -3 -10
30 -10 25 0 99 -3 165 -6 108 -5 118 -4 101 10 -23 19 -14 46 15 46 15 0 19 4
15 15 -3 8 -9 22 -12 30 -7 17 3 19 81 16 71 -3 115 -19 115 -41 0 -31 -29
-52 -64 -46 -24 5 -34 2 -44 -14 -10 -17 -10 -21 1 -26 8 -3 20 -4 27 -2 7 2
15 -2 17 -9 11 -31 -114 -34 -572 -14 -325 15 -959 17 -994 3 l-25 -9 27 -18
c15 -9 27 -21 27 -26 0 -5 -18 -32 -40 -60 -22 -28 -40 -54 -40 -59 0 -16 41
-17 107 -3 37 8 88 16 113 19 l45 4 -40 -16 c-47 -18 -190 -43 -255 -45 -25 0
-60 -7 -77 -15 -30 -14 -33 -19 -33 -59 0 -24 4 -46 9 -49 4 -3 44 -8 87 -11
83 -6 107 -16 86 -37 -7 -7 -12 -21 -12 -32 0 -19 9 -19 698 -12 383 3 1004 6
1380 7 639 0 725 3 666 26 -11 4 -14 13 -10 29 6 21 2 24 -34 30 -65 11 -53
23 35 38 63 10 121 25 159 41 32 14 37 19 31 38 -4 12 -9 51 -11 87 -2 36 -7
72 -10 80 -4 8 -9 84 -13 167 -9 210 12 194 -273 204 -250 8 -452 8 -933 -1z
m295 -34 c0 -8 -4 -18 -10 -21 -5 -3 -10 -15 -10 -25 0 -27 -15 -33 -16 -7 0
12 -4 29 -8 39 -5 11 -2 18 11 21 31 8 33 7 33 -7z"/>
<path d="M9655 10758 c-92 -11 -86 -11 -184 -2 -61 6 -73 4 -69 -7 10 -32 70
-38 373 -38 201 -1 296 2 289 9 -6 6 -54 14 -108 19 -55 6 -104 15 -109 20
-13 13 -80 12 -192 -1z"/>
<path d="M10423 6723 c-19 -7 -16 -40 4 -47 9 -4 19 -2 22 3 5 7 655 17 747
12 33 -2 48 -183 19 -228 -21 -31 -14 -40 10 -13 24 27 23 215 -2 242 -15 17
-41 18 -388 13 -325 -4 -374 -3 -379 10 -6 15 -12 17 -33 8z"/>
<path d="M10327 6692 c-14 -15 -17 -40 -17 -124 0 -96 2 -106 23 -126 13 -12
30 -22 38 -22 8 0 3 10 -14 25 -24 23 -27 33 -27 93 0 37 -3 77 -6 89 -4 15 2
30 20 48 14 14 26 28 26 30 0 12 -29 3 -43 -13z"/>
<path d="M10396 6617 c-13 -10 -17 -24 -14 -57 3 -51 23 -53 23 -3 0 18 6 38
13 44 26 27 9 39 -22 16z"/>
<path d="M10465 6605 c-14 -13 -25 -29 -25 -35 0 -20 20 -49 40 -60 25 -13 70
-3 70 16 0 12 -4 12 -23 -1 -22 -14 -25 -14 -39 2 -33 38 0 104 36 74 9 -8 16
-20 16 -27 0 -16 16 -19 25 -4 8 13 -39 60 -60 60 -9 0 -27 -11 -40 -25z"/>
<path d="M10599 6599 l-30 -32 24 -31 c28 -35 63 -44 92 -22 28 20 12 32 -16
12 -21 -15 -25 -14 -46 6 -28 27 -29 40 -2 64 16 15 24 16 39 6 23 -14 40 -16
40 -4 0 9 -44 32 -61 32 -6 0 -24 -14 -40 -31z"/>
<path d="M10746 6609 c-14 -11 -26 -31 -26 -43 0 -27 39 -66 66 -66 28 0 64
36 64 65 0 24 -41 65 -65 65 -7 0 -24 -9 -39 -21z m69 -19 c16 -18 17 -23 5
-45 -16 -29 -36 -32 -62 -8 -22 20 -23 31 -1 55 21 23 36 23 58 -2z"/>
<path d="M11002 6607 c-12 -13 -22 -33 -22 -44 0 -22 43 -63 64 -63 19 0 52
27 44 36 -4 4 -14 1 -22 -5 -8 -7 -24 -10 -36 -6 -27 9 -29 70 -2 84 21 11 42
-3 42 -26 0 -7 7 -13 15 -13 22 0 18 27 -7 44 -31 22 -51 20 -76 -7z"/>
<path d="M11135 6622 c-15 -10 -17 -104 -2 -99 7 2 11 17 9 34 -2 18 3 35 12
43 28 22 10 43 -19 22z"/>
<path d="M10860 6610 c0 -20 44 -100 56 -100 12 0 58 99 50 108 -10 9 -25 -10
-31 -38 -9 -39 -22 -38 -42 5 -16 33 -33 46 -33 25z"/>
<path d="M11035 6570 c-3 -5 1 -10 10 -10 9 0 13 5 10 10 -3 6 -8 10 -10 10
-2 0 -7 -4 -10 -10z"/>
<path d="M10498 6563 c6 -2 18 -2 25 0 6 3 1 5 -13 5 -14 0 -19 -2 -12 -5z"/>
<path d="M11107 6446 c-3 -8 0 -21 6 -30 11 -15 15 -15 32 -2 16 12 17 16 6
30 -17 20 -37 21 -44 2z"/>
<path d="M10415 6430 c28 -12 37 -12 30 0 -3 6 -16 10 -28 9 -21 0 -21 -1 -2
-9z"/>
<path d="M10667 6428 c-7 -4 45 -8 115 -8 70 0 129 4 133 9 6 11 -231 10 -248
-1z"/>
<path d="M10930 6430 c0 -5 7 -10 16 -10 8 0 12 5 9 10 -3 6 -10 10 -16 10 -5
0 -9 -4 -9 -10z"/>
<path d="M10980 6430 c0 -11 76 -7 87 4 3 3 -15 6 -40 6 -26 0 -47 -4 -47 -10z"/>
<path d="M10568 6423 c12 -2 30 -2 40 0 9 3 -1 5 -23 4 -22 0 -30 -2 -17 -4z"/>
<path d="M10395 6380 c-3 -5 3 -10 15 -10 12 0 18 5 15 10 -3 6 -10 10 -15 10
-5 0 -12 -4 -15 -10z"/>
<path d="M10449 6379 c-10 -6 -4 -9 19 -9 17 0 32 2 32 4 0 9 -39 13 -51 5z"/>
<path d="M10525 6381 c-3 -5 -1 -12 4 -15 13 -8 42 4 35 15 -7 12 -31 12 -39
0z"/>
<path d="M10620 6380 c-12 -8 -12 -10 3 -16 21 -8 35 2 21 16 -5 5 -15 6 -24
0z"/>
<path d="M10682 6383 c-6 -3 -10 -9 -6 -14 7 -12 44 -12 44 0 0 11 -21 19 -38
14z"/>
<path d="M10907 6378 c-7 -4 10 -8 37 -8 27 0 46 3 42 8 -10 9 -64 9 -79 0z"/>
<path d="M10775 6370 c3 -5 13 -10 21 -10 8 0 14 5 14 10 0 6 -9 10 -21 10
-11 0 -17 -4 -14 -10z"/>
<path d="M10830 6371 c0 -17 14 -18 40 -5 l25 14 -32 0 c-18 0 -33 -4 -33 -9z"/>
<path d="M9373 3567 c21 -59 39 -164 42 -247 5 -156 16 -274 26 -286 5 -6 8
-55 7 -110 -1 -54 2 -127 6 -161 5 -38 4 -63 -1 -63 -6 0 -8 -34 -5 -80 4 -75
3 -83 -23 -120 -22 -31 -26 -46 -21 -72 10 -53 14 -278 4 -278 -5 0 -4 -9 2
-20 8 -14 8 -26 0 -40 -6 -11 -8 -25 -5 -30 10 -17 15 -240 5 -240 -17 0 -11
-16 17 -44 157 -157 904 -268 1603 -237 347 15 585 46 828 106 172 43 340 116
366 159 7 12 14 55 16 96 6 151 6 165 -9 162 -7 -1 -51 -14 -98 -27 -180 -53
-253 -31 -371 109 -264 312 -309 329 -609 231 -282 -93 -415 -70 -539 90 -17
22 -59 87 -94 145 -88 146 -113 181 -165 231 -85 82 -176 90 -345 29 -197 -71
-261 -54 -362 93 -62 91 -102 181 -229 522 -17 44 -35 85 -41 90 -8 7 -9 5 -5
-8z"/>
<path d="M11034 2912 c-51 -24 -114 -100 -93 -113 13 -8 12 -10 -10 -13 -12
-1 -44 -43 -64 -83 -23 -48 -7 -40 26 12 16 25 33 42 38 39 6 -3 16 0 24 6 12
10 15 9 15 -4 0 -17 14 -19 73 -10 25 5 37 12 37 23 1 14 2 14 13 1 7 -8 30
-16 52 -17 22 -2 46 -5 53 -8 14 -5 16 -45 2 -45 -5 0 -10 5 -10 10 0 6 -13
10 -29 10 -17 0 -33 5 -36 10 -3 6 -12 10 -20 10 -11 0 -12 -6 -4 -30 12 -33
36 -40 47 -12 5 13 8 11 12 -13 8 -45 46 -46 93 -1 43 41 47 56 12 56 -14 0
-25 5 -25 11 0 7 10 9 25 7 14 -3 25 -2 25 1 0 13 -24 31 -42 31 -10 0 -17 3
-17 8 4 21 -3 23 -21 7 -11 -10 -20 -13 -20 -7 0 7 5 12 10 12 6 0 10 9 10 21
0 16 -4 19 -21 14 -15 -5 -20 -3 -17 6 8 24 23 19 90 -35 37 -30 62 -56 56
-58 -14 -5 8 -68 23 -68 5 0 9 -4 9 -10 0 -5 -18 -10 -39 -10 -42 0 -89 -29
-77 -48 9 -15 46 -16 46 -2 0 6 9 10 20 10 12 0 20 7 20 18 1 15 2 15 16 -3 8
-11 12 -30 9 -42 -4 -16 1 -25 15 -33 23 -12 27 0 8 29 -8 14 -8 22 1 32 6 8
18 23 26 34 16 24 34 12 19 -13 -17 -28 -6 -45 18 -28 18 13 45 12 58 -3 31
-36 92 -79 105 -75 24 10 17 31 -12 37 -17 4 -88 61 -181 146 -83 77 -171 151
-195 165 -60 35 -122 41 -173 18z"/>
<path d="M11061 2700 c-1 -15 4 -31 11 -38 15 -15 38 -16 38 -2 0 6 -6 10 -13
10 -7 0 -18 12 -24 28 l-11 27 -1 -25z"/>
<path d="M10880 2658 c0 -17 20 -47 20 -31 0 6 3 18 6 27 4 11 1 16 -10 16 -9
0 -16 -6 -16 -12z"/>
<path d="M11010 2654 c0 -14 3 -14 15 -4 8 7 15 14 15 16 0 2 -7 4 -15 4 -8 0
-15 -7 -15 -16z"/>
<path d="M10820 2625 c-6 -19 -15 -35 -20 -35 -5 0 -14 -17 -21 -37 -6 -21
-18 -42 -25 -46 -16 -9 -19 -37 -4 -37 6 0 10 7 10 15 0 8 6 15 14 15 15 0 59
82 71 133 10 40 -11 33 -25 -8z"/>
<path d="M11837 2629 c-20 -5 -54 -17 -75 -27 -20 -10 -56 -24 -79 -32 -36
-11 -40 -15 -30 -31 13 -21 45 -31 50 -16 2 7 9 7 20 1 10 -6 33 -8 52 -6 25
3 35 9 37 26 l3 21 21 -21 c20 -20 21 -20 36 -2 12 15 30 20 72 21 55 1 57 0
103 -48 51 -55 47 -46 -11 27 -63 78 -124 105 -199 87z m83 -33 c0 -8 -7 -17
-16 -20 -23 -9 -24 -8 -24 14 0 13 7 20 20 20 11 0 20 -6 20 -14z"/>
<path d="M10920 2605 c-7 -8 -26 -17 -44 -21 -29 -5 -32 -8 -28 -36 3 -16 7
-26 11 -20 3 5 23 17 44 25 29 13 37 21 37 41 0 30 -3 32 -20 11z"/>
<path d="M11050 2600 c0 -13 18 -22 24 -11 3 5 -1 11 -9 15 -8 3 -15 1 -15 -4z"/>
<path d="M11274 2585 c-6 -16 31 -54 54 -55 19 0 14 18 -8 25 -11 3 -20 15
-20 26 0 23 -18 25 -26 4z"/>
<path d="M11420 2579 c0 -6 25 -19 35 -19 1 0 5 6 8 13 3 7 -4 12 -19 12 -13
0 -24 -3 -24 -6z"/>
<path d="M11482 2568 c6 -18 28 -21 28 -4 0 9 -7 16 -16 16 -9 0 -14 -5 -12
-12z"/>
<path d="M11145 2560 c3 -5 10 -10 16 -10 5 0 9 5 9 10 0 6 -7 10 -16 10 -8 0
-12 -4 -9 -10z"/>
<path d="M10978 2533 c7 -3 16 -2 19 1 4 3 -2 6 -13 5 -11 0 -14 -3 -6 -6z"/>
<path d="M11603 2515 c-9 -25 2 -27 22 -5 17 18 17 20 1 20 -9 0 -19 -7 -23
-15z"/>
<path d="M11530 2505 c0 -9 9 -15 25 -15 16 0 25 6 25 15 0 9 -9 15 -25 15
-16 0 -25 -6 -25 -15z"/>
<path d="M11935 2510 c-19 -7 -19 -8 -2 -15 10 -4 23 -3 29 3 14 14 -3 21 -27
12z"/>
<path d="M10940 2500 c0 -5 5 -10 10 -10 6 0 10 5 10 10 0 6 -4 10 -10 10 -5
0 -10 -4 -10 -10z"/>
<path d="M11250 2491 c0 -11 26 -22 34 -14 3 3 3 10 0 14 -7 12 -34 11 -34 0z"/>
<path d="M11390 2480 c-13 -11 -19 -20 -14 -20 14 1 48 29 42 35 -2 3 -15 -4
-28 -15z"/>
<path d="M11115 2470 c-3 -5 1 -10 10 -10 9 0 13 5 10 10 -3 6 -8 10 -10 10
-2 0 -7 -4 -10 -10z"/>
<path d="M11694 2455 c-4 -8 -3 -27 1 -42 5 -21 8 -24 16 -12 7 11 9 8 9 -10
0 -13 8 -30 18 -37 23 -18 32 -17 32 1 0 8 -7 15 -15 15 -8 0 -15 9 -15 20 0
27 30 26 37 -1 4 -14 12 -19 24 -16 12 3 19 0 19 -10 0 -20 34 -12 38 10 2 11
-3 17 -16 17 -31 0 -53 11 -46 22 10 17 -17 26 -47 18 -27 -8 -28 -7 -18 11 5
11 14 17 20 14 5 -4 9 -1 9 4 0 17 -60 13 -66 -4z"/>
<path d="M10712 2448 c-18 -18 -15 -32 11 -47 20 -13 21 -13 8 2 -7 9 -11 26
-8 37 6 23 5 24 -11 8z"/>
<path d="M11800 2450 c0 -5 4 -10 9 -10 6 0 13 5 16 10 3 6 -1 10 -9 10 -9 0
-16 -4 -16 -10z"/>
<path d="M11860 2450 c0 -5 5 -10 10 -10 6 0 10 5 10 10 0 6 -4 10 -10 10 -5
0 -10 -4 -10 -10z"/>
<path d="M11500 2440 c0 -6 7 -10 15 -10 8 0 15 2 15 4 0 2 -7 6 -15 10 -8 3
-15 1 -15 -4z"/>
<path d="M11000 2415 c0 -8 7 -15 16 -15 14 0 14 3 4 15 -7 8 -14 15 -16 15
-2 0 -4 -7 -4 -15z"/>
<path d="M11661 2364 c0 -11 3 -14 6 -6 3 7 2 16 -1 19 -3 4 -6 -2 -5 -13z"/>
<path d="M10978 2363 c7 -3 16 -2 19 1 4 3 -2 6 -13 5 -11 0 -14 -3 -6 -6z"/>
<path d="M11810 2255 c-10 -13 -9 -15 9 -15 12 0 21 6 21 15 0 8 -4 15 -9 15
-5 0 -14 -7 -21 -15z"/>
<path d="M10665 1489 c47 -9 180 -9 285 1 54 5 20 7 -125 7 -130 1 -186 -2
-160 -8z"/>
<path d="M12075 950 c-72 -38 -178 -77 -265 -98 -82 -20 -110 -26 -285 -54
-103 -17 -470 -17 -486 -1 -9 9 -16 9 -30 0 -14 -8 -26 -8 -51 1 -25 8 -56 9
-118 2 -47 -6 -186 -9 -310 -9 -124 1 -240 1 -257 1 -18 0 -33 2 -33 6 0 4
-53 8 -118 9 -138 3 -329 38 -453 83 -46 16 -87 30 -91 30 -21 0 15 -39 59
-62 59 -32 312 -118 348 -118 14 0 54 -6 88 -14 147 -33 219 -41 608 -66 146
-10 199 -8 420 10 241 20 282 25 439 49 218 34 454 118 544 194 51 43 46 65
-9 37z"/>
</g>
</svg>
